<svg width="307" height="256" viewBox="0 0 307 256" fill="none" xmlns="http://www.w3.org/2000/svg">
<g clip-path="url(#clip0_324_4900)">
<path d="M147.022 92.543C147.022 92.543 91.508 132.236 88.9165 140.121C86.3249 148.005 95.6 151.268 123.152 137.538C150.704 123.808 153.159 120.138 153.159 120.138C153.159 120.138 159.979 92.8148 147.022 92.543Z" fill="url(#paint0_linear_324_4900)"/>
<path d="M217.3 116.76C217.335 118.294 217.195 119.898 216.915 121.537C215.62 128.859 211.807 139.144 206.069 148.768C196.623 164.702 181.93 178.718 165.032 174.081C147.469 169.27 142.326 146.78 141.102 127.952C140.437 117.666 140.962 108.462 141.277 103.789C141.347 102.604 141.557 101.488 141.837 100.477C144.74 90.1564 157.37 88.2734 157.37 88.2734L201.066 89.1104C201.066 89.1104 217.195 99.9889 217.3 116.76Z" fill="url(#paint1_linear_324_4900)"/>
<path d="M213.881 118.433L201.565 124.462C197.988 126.213 193.743 125.678 190.688 123.128C186.999 120.05 180.716 115.324 170.452 108.88C161.267 103.114 153.627 101.039 148.059 100.489C144.852 100.173 143.377 96.3061 145.661 94.0411C150.434 89.3073 157.368 88.2734 157.368 88.2734L201.064 89.1104C201.064 89.1104 214.593 98.2354 216.95 112.655C217.338 115.027 216.045 117.373 213.881 118.433Z" fill="url(#paint2_linear_324_4900)"/>
<path d="M206.073 148.767C196.626 164.702 181.933 178.718 165.035 174.081C147.473 169.269 142.33 146.78 141.105 127.952C144.289 126.906 147.752 124.883 148.872 120.908C149.209 119.736 149.509 118.676 149.777 117.721C150.902 113.71 155.369 111.689 159.153 113.455L164.527 115.961C169.223 118.152 172.454 122.515 173.401 127.596C174.657 134.334 177.861 143.572 186.026 147.651C192.358 150.79 199.845 150.267 206.073 148.767Z" fill="url(#paint3_linear_324_4900)"/>
<path d="M203.668 99.8566C202.9 105.479 191.315 108.55 177.792 106.716C164.269 104.881 153.928 98.8353 154.696 93.2124C155.464 87.5896 167.05 84.5188 180.573 86.3534C194.096 88.1882 204.436 94.2338 203.668 99.8566Z" fill="url(#paint4_linear_324_4900)"/>
<path d="M133.713 54.8965C133.795 53.8041 133.935 52.6974 134.152 51.5825C134.172 51.4793 134.194 51.376 134.215 51.2727C134.464 50.0615 134.781 48.8459 135.174 47.6408C135.183 47.6149 135.192 47.5898 135.201 47.564C135.606 46.3353 136.083 45.1185 136.623 43.9296C136.639 43.895 136.653 43.8594 136.669 43.8248C137.201 42.6653 137.799 41.5373 138.444 40.4479C138.504 40.348 138.563 40.2489 138.624 40.1499C139.221 39.1655 139.869 38.2257 140.55 37.3263C140.696 37.1323 140.844 36.9406 140.995 36.7514C141.538 36.0664 142.117 35.4359 142.704 34.8185C142.968 34.5405 143.221 34.2427 143.494 33.9799C144.333 33.1696 145.202 32.4177 146.109 31.7725C146.997 31.1407 147.871 30.656 148.732 30.248C148.9 30.1684 149.068 30.0901 149.235 30.019C150.051 29.6704 150.851 29.4062 151.624 29.254C151.694 29.2403 151.766 29.2242 151.836 29.2119C152.669 29.0662 153.474 29.0275 154.241 29.1033C154.282 29.1072 154.323 29.1145 154.363 29.1195C155.148 29.2098 155.896 29.4049 156.588 29.7216L148.383 25.9704C148.354 25.9572 148.326 25.9444 148.298 25.9318C148.043 25.8195 147.781 25.722 147.514 25.6399C147.249 25.5581 146.978 25.4912 146.702 25.4392C146.525 25.4059 146.341 25.3892 146.159 25.3683C146.117 25.3633 146.078 25.3563 146.036 25.352C145.972 25.3457 145.912 25.3324 145.849 25.3276C145.552 25.3053 145.248 25.2992 144.941 25.3097C144.618 25.3205 144.29 25.3492 143.957 25.3962C143.85 25.4113 143.739 25.4417 143.631 25.4607C143.56 25.4732 143.49 25.4885 143.419 25.5028C143.233 25.5396 143.049 25.5659 142.86 25.6137C142.439 25.7204 142.012 25.8548 141.579 26.0178C141.399 26.0858 141.213 26.1897 141.03 26.2678C140.862 26.3394 140.696 26.4171 140.527 26.4971C140.312 26.5986 140.103 26.6732 139.887 26.7882C139.234 27.1361 138.572 27.5466 137.905 28.0212C136.997 28.6664 136.128 29.4178 135.289 30.2286C135.017 30.4917 134.766 30.7878 134.501 31.066C134.098 31.4898 133.681 31.8875 133.299 32.3436C133.122 32.5541 132.961 32.7849 132.789 33.0017C132.638 33.191 132.492 33.3803 132.346 33.5739C132.178 33.7957 132 34.0037 131.837 34.2311C131.468 34.7464 131.111 35.2758 130.768 35.8177C130.647 36.008 130.536 36.2059 130.419 36.399C130.358 36.4981 130.3 36.5964 130.241 36.6964C130.129 36.8838 130.012 37.0667 129.904 37.2566C129.648 37.7069 129.401 38.1637 129.164 38.6263C128.939 39.0661 128.722 39.5107 128.514 39.9596C128.496 39.9986 128.48 40.0383 128.462 40.0772C128.448 40.1089 128.435 40.1403 128.421 40.172C128.254 40.5396 128.089 40.9086 127.935 41.2809C127.752 41.7207 127.578 42.1638 127.414 42.6089C127.265 43.0103 127.127 43.4143 126.994 43.8192C126.986 43.8419 126.977 43.8638 126.971 43.886C126.963 43.91 126.954 43.9338 126.946 43.9578C126.796 44.4193 126.656 44.8821 126.527 45.3455C126.392 45.8295 126.269 46.314 126.158 46.7986C126.103 47.0389 126.061 47.2786 126.012 47.5183C125.99 47.6239 125.968 47.7279 125.948 47.8333C125.913 48.0085 125.872 48.1838 125.84 48.3588C125.737 48.9435 125.652 49.526 125.586 50.1048C125.546 50.4553 125.535 50.7994 125.509 51.1467C125.495 51.3291 125.479 51.5103 125.469 51.6918C125.46 51.8598 125.436 52.0314 125.431 52.1986C125.398 53.1942 125.427 54.172 125.522 55.1219C125.988 59.7949 127.962 62.9187 130.78 64.2074L138.985 67.9583C136.166 66.6696 134.193 63.5457 133.727 58.873C133.616 57.7646 133.611 56.6133 133.673 55.4449C133.683 55.2631 133.7 55.0793 133.713 54.8965Z" fill="url(#paint5_linear_324_4900)"/>
<path d="M146.104 31.7711C153.879 26.2406 160.922 29.4278 161.863 38.8541C162.803 48.2801 157.284 60.3605 149.509 65.891C141.734 71.4213 134.662 68.2978 133.721 58.8718C132.78 49.4456 138.329 37.3014 146.104 31.7711Z" fill="url(#paint6_linear_324_4900)"/>
<path d="M231.121 63.1137C231.121 79.7526 220.576 93.91 205.052 100.867C198.121 104.03 190.213 105.684 181.767 105.489C162.289 105.051 145.448 94.6887 137.442 80.0932C134.22 74.255 132.414 67.7354 132.414 60.8757C132.414 37.8149 152.77 19.4244 178.448 18.5487C179.424 18.5 180.449 18.5 181.426 18.5H181.767C197.925 18.8893 212.229 26.0409 221.211 36.7931C221.504 37.1337 221.797 37.4256 222.04 37.7662C227.753 45.0152 231.121 53.7238 231.121 63.1137Z" fill="url(#paint7_linear_324_4900)"/>
<path d="M205.055 100.868C198.124 104.03 190.216 105.685 181.77 105.49C162.292 105.052 145.451 94.6895 137.445 80.0939C140.032 80.8235 143.208 79.0833 147.65 77.1372C156.535 73.1963 162.502 74.3339 172.007 88.8512C181.187 102.873 196.952 99.4085 205.055 100.868Z" fill="url(#paint8_linear_324_4900)"/>
<path d="M185.117 77.7843C183.354 77.7843 181.594 77.3472 180.031 76.5205L143.066 57.0598C137.54 54.1474 135.347 47.4767 138.079 41.8704L139.619 38.7109C141.631 34.5822 145.745 32.0117 150.36 32.0117C152.286 32.0117 154.212 32.4915 155.928 33.3943L190.881 51.8002C197.007 55.0215 199.438 62.4143 196.411 68.6288L194.933 71.6647C193.093 75.4373 189.332 77.7843 185.117 77.7843Z" fill="url(#paint9_linear_324_4900)"/>
<path d="M183.278 78.8175C181.514 78.8175 179.755 78.3805 178.191 77.5537L141.226 58.093C135.701 55.1806 133.508 48.5099 136.239 42.9036L137.779 39.7441C139.791 35.6154 143.905 33.0449 148.52 33.0449C150.446 33.0449 152.372 33.5247 154.088 34.4275L189.041 52.8334C195.167 56.0547 197.598 63.4475 194.571 69.662L193.093 72.6979C191.253 76.4705 187.492 78.8175 183.278 78.8175Z" fill="url(#paint10_linear_324_4900)"/>
<path d="M142.522 55.6535L179.485 75.1178C183.554 77.2605 188.595 75.6164 190.606 71.4906L192.084 68.4584C194.443 63.6173 192.528 57.7836 187.753 55.2693L152.799 36.8632C148.215 34.4491 142.535 36.3015 140.27 40.9497L138.731 44.1082C136.665 48.346 138.342 53.4526 142.522 55.6535Z" fill="url(#paint11_linear_324_4900)"/>
<path d="M215.244 87.2892C215.326 86.1968 215.466 85.0901 215.684 83.9752C215.703 83.872 215.725 83.7687 215.746 83.6654C215.995 82.4542 216.312 81.2386 216.705 80.0335C216.714 80.0076 216.723 79.9825 216.732 79.9567C217.137 78.7279 217.614 77.5112 218.154 76.3223C218.17 76.2876 218.184 76.2521 218.2 76.2175C218.732 75.058 219.33 73.9299 219.976 72.8406C220.035 72.7406 220.094 72.6416 220.155 72.5426C220.752 71.5582 221.4 70.6184 222.081 69.7189C222.227 69.525 222.376 69.3332 222.526 69.144C223.069 68.459 223.648 67.8285 224.235 67.211C224.5 66.9331 224.752 66.6352 225.025 66.3725C225.864 65.5621 226.733 64.8102 227.64 64.1651C228.528 63.5332 229.402 63.0485 230.263 62.6405C230.431 62.561 230.599 62.4827 230.766 62.4116C231.582 62.063 232.382 61.7988 233.155 61.6466C233.226 61.6329 233.297 61.6168 233.367 61.6045C234.2 61.4587 235.006 61.42 235.772 61.4958C235.813 61.4998 235.854 61.5071 235.894 61.5121C236.679 61.6024 237.427 61.7975 238.119 62.1142L229.914 58.363C229.886 58.3498 229.857 58.337 229.829 58.3244C229.574 58.2121 229.313 58.1146 229.045 58.0325C228.78 57.9506 228.509 57.8838 228.233 57.8317C228.056 57.7985 227.872 57.7818 227.69 57.7608C227.648 57.7558 227.609 57.7489 227.567 57.7446C227.504 57.7383 227.443 57.725 227.38 57.7202C227.083 57.6979 226.78 57.6917 226.472 57.7023C226.149 57.713 225.821 57.7418 225.488 57.7887C225.381 57.8038 225.27 57.8342 225.162 57.8533C225.092 57.8658 225.021 57.8811 224.95 57.8954C224.764 57.9322 224.58 57.9585 224.391 58.0062C223.971 58.1129 223.543 58.2473 223.111 58.4104C222.93 58.4784 222.744 58.5823 222.562 58.6603C222.393 58.7319 222.227 58.8098 222.058 58.8896C221.844 58.9912 221.634 59.0657 221.418 59.1808C220.765 59.5287 220.103 59.9392 219.436 60.4138C218.528 61.059 217.659 61.8103 216.82 62.6211C216.548 62.8842 216.297 63.1804 216.033 63.4586C215.63 63.8824 215.213 64.28 214.83 64.7361C214.654 64.9467 214.492 65.1775 214.32 65.3943C214.169 65.5836 214.023 65.7728 213.877 65.9665C213.709 66.1883 213.531 66.3963 213.368 66.6237C212.999 67.139 212.643 67.6684 212.299 68.2103C212.178 68.4006 212.067 68.5984 211.95 68.7916C211.889 68.8907 211.831 68.989 211.772 69.0889C211.66 69.2764 211.543 69.4593 211.435 69.6492C211.179 70.0995 210.933 70.5563 210.695 71.0189C210.47 71.4587 210.253 71.9033 210.045 72.3522C210.027 72.3912 210.011 72.4309 209.994 72.4698C209.979 72.5015 209.966 72.5329 209.952 72.5646C209.785 72.9322 209.62 73.3011 209.466 73.6735C209.283 74.1133 209.11 74.5564 208.945 75.0015C208.797 75.4029 208.658 75.8069 208.525 76.2117C208.517 76.2344 208.509 76.2562 208.502 76.2786C208.494 76.3026 208.485 76.3263 208.477 76.3504C208.328 76.8118 208.187 77.2745 208.058 77.7381C207.924 78.222 207.801 78.7066 207.689 79.1912C207.634 79.4315 207.592 79.6711 207.543 79.9109C207.521 80.0164 207.499 80.1204 207.479 80.2259C207.445 80.401 207.403 80.5763 207.371 80.7514C207.268 81.3361 207.183 81.9186 207.118 82.4974C207.077 82.848 207.066 83.192 207.04 83.5394C207.027 83.7218 207.01 83.903 207 84.0845C206.991 84.2526 206.968 84.4242 206.962 84.5912C206.93 85.5869 206.958 86.5646 207.053 87.5145C207.52 92.1876 209.493 95.3113 212.312 96.6001L220.516 100.351C217.697 99.0623 215.724 95.9384 215.258 91.2657C215.147 90.1573 215.143 89.006 215.205 87.8376C215.214 87.6558 215.231 87.472 215.244 87.2892Z" fill="url(#paint12_linear_324_4900)"/>
<path d="M227.639 64.1656C235.414 58.6351 242.457 61.8223 243.398 71.2486C244.338 80.6747 238.819 92.755 231.044 98.2855C223.269 103.816 216.197 100.692 215.256 91.2663C214.316 81.84 219.864 69.6958 227.639 64.1656Z" fill="url(#paint13_linear_324_4900)"/>
<path d="M230.587 93.6189C227.072 96.1001 223.753 96.1488 221.605 94.2514C223.607 94.9326 226.096 94.3976 228.732 92.5487C234.346 88.5106 238.349 79.7534 237.666 72.8932C237.422 70.2662 236.494 68.32 235.128 67.1523C237.471 67.8822 239.179 70.3148 239.521 74.0124C240.204 80.8234 236.201 89.5807 230.587 93.6189Z" fill="url(#paint14_linear_324_4900)"/>
<path d="M228.728 92.5494C226.092 94.3982 223.602 94.9333 221.601 94.2521C220.283 93.0358 219.355 91.1383 219.111 88.5112C218.427 81.6999 222.43 72.8455 228.093 68.8561C230.68 67.0073 233.17 66.4719 235.123 67.1531C236.49 68.3207 237.417 70.2669 237.661 72.894C238.345 79.754 234.341 88.5112 228.728 92.5494Z" fill="url(#paint15_linear_324_4900)"/>
<path d="M221.216 36.7931L204.374 43.4096C201.054 44.6746 197.344 44.5288 194.171 42.9232L168.64 30.1765C165.809 28.7654 165.858 24.7763 168.64 23.3652L178.452 18.5487C179.428 18.5 180.454 18.5 181.431 18.5H181.772C197.93 18.8894 212.234 26.041 221.216 36.7931Z" fill="url(#paint16_linear_324_4900)"/>
<path d="M153.962 55.0698L152.651 54.5212L153.899 51.5622C154.938 49.0968 154.006 46.3494 151.823 45.4358C149.641 44.5219 147.023 45.7829 145.983 48.2482L144.736 51.2072L143.426 50.6587L144.673 47.6996C146.016 44.5145 149.469 42.9136 152.374 44.1298C155.279 45.346 156.552 48.9256 155.209 52.1107L153.962 55.0698Z" fill="#29ABE2"/>
<path d="M180.719 67.9313L179.409 67.3827L180.657 64.4236C181.696 61.9583 180.764 59.2109 178.581 58.2971C176.399 57.3833 173.781 58.6443 172.741 61.1096L171.494 64.0686L170.184 63.5201L171.431 60.561C172.774 57.3758 176.227 55.775 179.132 56.9911C182.036 58.2073 183.31 61.7868 181.967 64.972L180.719 67.9313Z" fill="#29ABE2"/>
<path d="M218.116 121.353C209.717 114.827 196.407 130.561 199.272 146.602C202.136 162.642 204.318 187.247 209.911 190.373C215.503 193.5 219.872 183.919 221.661 168.52C223.357 153.924 227.211 128.42 218.116 121.353Z" fill="url(#paint17_linear_324_4900)"/>
<path d="M71.6513 169.155L69.1332 167.654C66.5744 166.128 64.5 162.824 64.5 160.274V60.3661C64.5 57.0315 67.2123 55.9455 70.5584 57.9406L71.6513 58.5923V169.155Z" fill="#29ABE2"/>
<path d="M185.834 237.241L71.3555 168.981V58.418L185.605 126.541C188.571 128.31 190.976 132.141 190.976 135.098V235.183C190.976 238.013 188.674 238.934 185.834 237.241Z" fill="url(#paint18_linear_324_4900)"/>
<path d="M190.977 140.903L64.5 65.4878V59.3454C64.5 56.5748 66.7536 55.6726 69.5336 57.3301L185.264 126.337C188.42 128.218 190.978 132.293 190.978 135.437L190.977 140.903Z" fill="#29ABE2"/>
<path d="M127.769 198.422L75.8872 167.486C74.9204 166.91 74.1367 165.662 74.1367 164.698V133.208C74.1367 132.245 74.9204 131.931 75.8872 132.507L127.769 163.443C128.736 164.019 129.519 165.268 129.519 166.231V197.721C129.519 198.685 128.736 198.998 127.769 198.422Z" fill="white" stroke="#BDE5F6" stroke-width="2.284" stroke-miterlimit="10"/>
<path d="M184.777 232.412L132.895 201.477C131.928 200.9 131.145 199.652 131.145 198.688V167.198C131.145 166.235 131.928 165.921 132.895 166.498L184.777 197.433C185.743 198.01 186.527 199.258 186.527 200.221V231.711C186.527 232.675 185.743 232.989 184.777 232.412Z" fill="white" stroke="#BDE5F6" stroke-width="2.284" stroke-miterlimit="10"/>
<path d="M95.0069 87.0366L74.1367 74.5923V73.1191L95.0069 85.5634V87.0366Z" fill="white"/>
<path d="M108.498 115.354L75.8872 95.9089C74.9204 95.3324 74.1367 94.0841 74.1367 93.1205V78.5637C74.1367 77.6002 74.9204 77.2865 75.8872 77.8629L108.498 97.3078C109.465 97.8843 110.249 99.1326 110.249 100.096V114.653C110.249 115.616 109.465 115.93 108.498 115.354Z" fill="white" stroke="#BDE5F6" stroke-width="2.284" stroke-miterlimit="10"/>
<path d="M146.584 138.059L113.973 118.614C113.006 118.037 112.223 116.789 112.223 115.826V101.269C112.223 100.305 113.006 99.9916 113.973 100.568L146.584 120.013C147.551 120.589 148.335 121.838 148.335 122.801V137.358C148.335 138.322 147.551 138.635 146.584 138.059Z" fill="white" stroke="#BDE5F6" stroke-width="2.284" stroke-miterlimit="10"/>
<path d="M86.1213 87.3509L77.2885 82.0842C77.0375 81.9344 76.832 81.6073 76.832 81.357V81.2849C76.832 81.0347 77.0374 80.9524 77.2885 81.1021L86.1213 86.3688C86.3723 86.5186 86.5778 86.8457 86.5778 87.096V87.1681C86.5778 87.4184 86.3724 87.5007 86.1213 87.3509Z" fill="white"/>
<path d="M86.1213 90.8353L77.2885 85.5686C77.0375 85.4189 76.832 85.0917 76.832 84.8414V84.7692C76.832 84.5191 77.0374 84.4368 77.2885 84.5865L86.1213 89.8532C86.3723 90.0028 86.5778 90.33 86.5778 90.5803V90.6525C86.5778 90.9028 86.3724 90.9849 86.1213 90.8353Z" fill="white"/>
<path d="M84.9284 98.7473L79.4768 95.4968C79.2769 95.3776 79.1133 95.117 79.1133 94.9178V94.6601C79.1133 94.4609 79.2769 94.3954 79.4768 94.5146L84.9284 97.7652C85.1283 97.8845 85.2919 98.145 85.2919 98.3442V98.6019C85.2919 98.8011 85.1283 98.8666 84.9284 98.7473Z" fill="white"/>
<path d="M78.2069 94.2841C78.2069 94.7237 77.8999 94.897 77.5214 94.6712C77.1427 94.4454 76.8359 93.9062 76.8359 93.4666C76.8359 93.0271 77.1429 92.8537 77.5214 93.0795C77.8999 93.3053 78.2069 93.8446 78.2069 94.2841Z" fill="#29ABE2"/>
<path d="M94.3619 104.372L88.9104 101.122C88.7105 101.003 88.5469 100.742 88.5469 100.543V100.285C88.5469 100.086 88.7105 100.02 88.9104 100.14L94.3619 103.39C94.5619 103.509 94.7254 103.77 94.7254 103.969V104.227C94.7254 104.426 94.5619 104.492 94.3619 104.372Z" fill="white"/>
<path d="M87.6365 99.9072C87.6365 100.347 87.3296 100.52 86.9511 100.294C86.5725 100.068 86.2656 99.5292 86.2656 99.0897C86.2656 98.6501 86.5725 98.4768 86.9511 98.7025C87.3296 98.9282 87.6365 99.4676 87.6365 99.9072Z" fill="#2A2B6D"/>
<path d="M112.71 123.255L107.258 120.005C107.058 119.885 106.895 119.625 106.895 119.426V119.168C106.895 118.969 107.058 118.903 107.258 119.022L112.71 122.273C112.91 122.392 113.073 122.653 113.073 122.852V123.11C113.073 123.309 112.91 123.374 112.71 123.255Z" fill="white"/>
<path d="M105.98 118.792C105.98 119.231 105.673 119.405 105.295 119.179C104.916 118.953 104.609 118.414 104.609 117.974C104.609 117.535 104.916 117.362 105.295 117.587C105.673 117.813 105.98 118.352 105.98 118.792Z" fill="url(#paint19_linear_324_4900)"/>
<path d="M122.135 128.878L116.684 125.628C116.484 125.508 116.32 125.248 116.32 125.049V124.791C116.32 124.592 116.484 124.526 116.684 124.645L122.135 127.896C122.335 128.015 122.499 128.276 122.499 128.475V128.733C122.499 128.932 122.335 128.997 122.135 128.878Z" fill="white"/>
<path d="M115.414 124.415C115.414 124.855 115.107 125.028 114.728 124.802C114.35 124.576 114.043 124.037 114.043 123.597C114.043 123.158 114.35 122.985 114.728 123.21C115.107 123.436 115.414 123.975 115.414 124.415Z" fill="url(#paint20_linear_324_4900)"/>
<path d="M102.774 99.436C103.401 99.8095 103.979 100.378 104.445 101.029L105.521 100.011C104.734 98.9074 103.786 97.9694 102.774 97.366C100.14 95.7955 97.9883 96.9924 97.9883 100.069C97.9883 103.127 100.14 106.891 102.774 108.461C103.272 108.758 103.754 108.952 104.204 109.071L103.738 106.761C103.433 106.728 103.112 106.593 102.774 106.391C101.12 105.405 99.771 103.053 99.771 101.132C99.771 99.1929 101.12 98.4497 102.774 99.436Z" fill="#2A2B6D"/>
<path d="M107.557 105.778C107.557 108.258 106.143 109.522 104.2 109.072L103.734 106.762C104.923 107.023 105.774 106.244 105.774 104.715C105.774 103.503 105.244 102.124 104.441 101.03L105.517 100.012C106.754 101.737 107.557 103.895 107.557 105.778Z" fill="#29ABE2"/>
<path d="M124.012 109.945L115.179 104.678C114.928 104.528 114.723 104.201 114.723 103.951V103.879C114.723 103.628 114.928 103.546 115.179 103.696L124.012 108.963C124.263 109.112 124.468 109.439 124.468 109.69V109.762C124.468 110.012 124.263 110.094 124.012 109.945Z" fill="white"/>
<path d="M124.012 113.429L115.179 108.162C114.928 108.013 114.723 107.685 114.723 107.435V107.363C114.723 107.113 114.928 107.031 115.179 107.18L124.012 112.447C124.263 112.597 124.468 112.924 124.468 113.174V113.246C124.468 113.497 124.263 113.579 124.012 113.429Z" fill="white"/>
<path d="M122.819 121.343L117.367 118.092C117.168 117.973 117.004 117.713 117.004 117.513V117.256C117.004 117.057 117.168 116.991 117.367 117.11L122.819 120.361C123.019 120.48 123.182 120.741 123.182 120.94V121.198C123.182 121.397 123.019 121.462 122.819 121.343Z" fill="white"/>
<path d="M116.094 116.88C116.094 117.319 115.787 117.493 115.408 117.267C115.029 117.041 114.723 116.502 114.723 116.062C114.723 115.623 115.03 115.449 115.408 115.675C115.787 115.901 116.094 116.44 116.094 116.88Z" fill="#29ABE2"/>
<path d="M132.249 126.966L126.797 123.716C126.597 123.596 126.434 123.336 126.434 123.137V122.879C126.434 122.68 126.597 122.614 126.797 122.733L132.249 125.984C132.449 126.103 132.612 126.364 132.612 126.563V126.821C132.612 127.02 132.449 127.085 132.249 126.966Z" fill="white"/>
<path d="M125.527 122.503C125.527 122.942 125.22 123.116 124.842 122.89C124.463 122.664 124.156 122.125 124.156 121.685C124.156 121.246 124.463 121.072 124.842 121.298C125.22 121.524 125.527 122.063 125.527 122.503Z" fill="#2A2B6D"/>
<path d="M143.403 122.602C142.616 121.498 141.668 120.56 140.656 119.957V122.027C141.283 122.401 141.861 122.969 142.327 123.62C143.13 124.714 143.66 126.093 143.66 127.305C143.66 128.834 142.808 129.613 141.62 129.352C141.315 129.319 140.993 129.184 140.656 128.982V131.052C141.154 131.349 141.636 131.543 142.086 131.662C144.029 132.112 145.442 130.848 145.442 128.368C145.442 126.484 144.639 124.327 143.403 122.602Z" fill="#29ABE2"/>
<path d="M137.658 123.722C137.658 125.643 139.007 127.995 140.661 128.981V131.051C138.027 129.481 135.875 125.717 135.875 122.659C135.875 119.582 138.027 118.385 140.661 119.956V122.026C139.007 121.039 137.658 121.783 137.658 123.722Z" fill="#2A2B6D"/>
<path d="M78.0141 87.2752V87.5165L77.0017 89.3721L76.6755 89.1777L77.6848 87.3911V87.3821L76.5469 86.7036V86.4004L78.0141 87.2752Z" fill="black"/>
<path d="M79.8904 89.7127C79.8904 90.6314 79.5971 90.9628 79.0819 90.6556C78.6278 90.3849 78.3197 89.7067 78.3125 88.8092C78.3125 87.9042 78.6489 87.6058 79.121 87.8873C79.6112 88.1796 79.8904 88.8533 79.8904 89.7127ZM78.6278 89.0018C78.6278 89.7038 78.8138 90.2134 79.1 90.3841C79.4223 90.5763 79.5759 90.2318 79.5759 89.5416C79.5759 88.877 79.4293 88.3534 79.1038 88.1593C78.8278 87.9947 78.6278 88.2661 78.6278 89.0018Z" fill="black"/>
<path d="M81.9924 90.4072C81.9924 90.9763 81.7352 91.1061 81.4341 90.9265C81.1447 90.7539 80.8938 90.3339 80.8906 89.7876C80.8906 89.2476 81.1447 89.0959 81.4521 89.2793C81.7775 89.4733 81.9924 89.8928 81.9924 90.4072ZM81.1407 89.9249C81.1337 90.2648 81.245 90.5935 81.4411 90.7103C81.6488 90.8342 81.7422 90.6322 81.7422 90.2753C81.7422 89.9466 81.6599 89.6235 81.4411 89.493C81.245 89.3762 81.1407 89.5844 81.1407 89.9249ZM81.4128 92.0475L82.7796 90.0709L82.9797 90.1901L81.6135 92.1673L81.4128 92.0475ZM83.5059 92.4278C83.5059 92.9969 83.2487 93.1258 82.9514 92.9486C82.6612 92.7756 82.4111 92.356 82.4071 91.8137C82.4071 91.2702 82.6613 91.1176 82.9694 91.3014C83.2949 91.4953 83.5059 91.9125 83.5059 92.4278ZM82.6542 91.9446C82.651 92.2878 82.7655 92.6174 82.9585 92.7324C83.1663 92.8563 83.2588 92.6538 83.2588 92.2969C83.2588 91.9682 83.1765 91.645 82.9585 91.515C82.7617 91.3977 82.6542 91.6041 82.6542 91.9446Z" fill="black"/>
<path d="M101.877 101.822V101.932L101.412 102.784L101.263 102.695L101.725 101.874V101.871L101.203 101.559V101.42L101.877 101.822Z" fill="black"/>
<path d="M102.732 102.941C102.732 103.363 102.598 103.515 102.362 103.374C102.153 103.25 102.012 102.939 102.008 102.527C102.008 102.111 102.162 101.974 102.38 102.104C102.604 102.237 102.732 102.546 102.732 102.941ZM102.153 102.615C102.153 102.937 102.238 103.171 102.369 103.249C102.517 103.337 102.587 103.179 102.587 102.862C102.587 102.557 102.521 102.317 102.371 102.228C102.245 102.153 102.153 102.277 102.153 102.615Z" fill="black"/>
<path d="M103.697 103.259C103.697 103.52 103.579 103.579 103.441 103.496C103.307 103.417 103.193 103.225 103.191 102.974C103.191 102.727 103.308 102.657 103.449 102.741C103.598 102.83 103.697 103.023 103.697 103.259ZM103.306 103.037C103.303 103.194 103.354 103.343 103.444 103.397C103.54 103.454 103.582 103.362 103.582 103.198C103.582 103.047 103.544 102.899 103.444 102.839C103.354 102.785 103.306 102.881 103.306 103.037ZM103.431 104.012L104.058 103.104L104.151 103.159L103.523 104.066L103.431 104.012ZM104.391 104.185C104.391 104.446 104.274 104.507 104.137 104.425C104.004 104.346 103.889 104.154 103.888 103.904C103.888 103.655 104.004 103.584 104.145 103.669C104.295 103.758 104.391 103.949 104.391 104.185ZM104.001 103.964C103.999 104.122 104.052 104.273 104.14 104.326C104.235 104.383 104.278 104.29 104.278 104.126C104.278 103.975 104.241 103.827 104.14 103.767C104.05 103.713 104.001 103.808 104.001 103.964Z" fill="black"/>
<path d="M115.813 110.123L114.925 109.594L114.836 110.234C114.889 110.258 114.939 110.28 115.026 110.331C115.204 110.438 115.383 110.59 115.527 110.775C115.709 111.004 115.859 111.326 115.859 111.667C115.859 112.195 115.498 112.373 114.994 112.073C114.739 111.921 114.525 111.71 114.414 111.562L114.492 111.33C114.589 111.454 114.779 111.65 114.99 111.776C115.287 111.953 115.541 111.88 115.541 111.519C115.537 111.168 115.337 110.799 114.872 110.522C114.739 110.443 114.635 110.397 114.55 110.359L114.7 109.152L115.813 109.815L115.813 110.123Z" fill="black"/>
<path d="M117.808 112.328C117.808 113.246 117.515 113.578 117 113.271C116.546 113 116.238 112.322 116.23 111.424C116.23 110.519 116.567 110.221 117.039 110.502C117.529 110.795 117.808 111.468 117.808 112.328ZM116.546 111.617C116.546 112.319 116.732 112.828 117.018 112.999C117.34 113.191 117.494 112.847 117.494 112.157C117.494 111.492 117.347 110.968 117.022 110.774C116.746 110.61 116.546 110.881 116.546 111.617Z" fill="black"/>
<path d="M119.914 113.02C119.914 113.589 119.657 113.719 119.356 113.54C119.067 113.367 118.816 112.947 118.812 112.401C118.812 111.861 119.067 111.709 119.374 111.892C119.7 112.086 119.914 112.506 119.914 113.02ZM119.063 112.538C119.056 112.878 119.167 113.207 119.363 113.323C119.571 113.447 119.664 113.245 119.664 112.888C119.664 112.56 119.582 112.237 119.363 112.106C119.167 111.989 119.063 112.197 119.063 112.538ZM119.335 114.661L120.702 112.684L120.902 112.803L119.536 114.78L119.335 114.661ZM121.428 115.041C121.428 115.61 121.171 115.739 120.874 115.562C120.583 115.389 120.333 114.969 120.329 114.427C120.329 113.883 120.583 113.731 120.892 113.914C121.217 114.108 121.428 114.525 121.428 115.041ZM120.576 114.558C120.573 114.901 120.688 115.23 120.881 115.345C121.088 115.469 121.181 115.267 121.181 114.91C121.181 114.581 121.099 114.258 120.881 114.128C120.684 114.011 120.576 114.217 120.576 114.558Z" fill="black"/>
<path d="M139.744 124.544L139.336 124.301L139.295 124.595C139.32 124.605 139.343 124.615 139.382 124.639C139.465 124.688 139.546 124.757 139.612 124.843C139.696 124.948 139.765 125.096 139.765 125.252C139.765 125.494 139.599 125.576 139.367 125.438C139.251 125.369 139.153 125.272 139.102 125.203L139.138 125.097C139.182 125.154 139.269 125.244 139.366 125.302C139.502 125.383 139.618 125.349 139.618 125.184C139.617 125.022 139.525 124.854 139.312 124.727C139.251 124.69 139.204 124.669 139.164 124.652L139.233 124.098L139.744 124.403L139.744 124.544Z" fill="black"/>
<path d="M140.658 125.553C140.658 125.974 140.523 126.126 140.287 125.985C140.079 125.861 139.938 125.55 139.934 125.138C139.934 124.722 140.088 124.586 140.305 124.715C140.53 124.849 140.658 125.158 140.658 125.553ZM140.079 125.226C140.079 125.549 140.164 125.783 140.295 125.861C140.443 125.949 140.513 125.79 140.513 125.473C140.513 125.168 140.447 124.928 140.297 124.839C140.171 124.764 140.079 124.889 140.079 125.226Z" fill="black"/>
<path d="M141.627 125.87C141.627 126.131 141.509 126.19 141.37 126.108C141.237 126.028 141.123 125.836 141.121 125.586C141.121 125.338 141.237 125.268 141.379 125.353C141.528 125.442 141.627 125.634 141.627 125.87ZM141.236 125.649C141.232 125.805 141.283 125.955 141.374 126.009C141.469 126.066 141.512 125.973 141.512 125.81C141.512 125.659 141.474 125.51 141.374 125.451C141.283 125.397 141.236 125.492 141.236 125.649ZM141.361 126.623L141.988 125.716L142.08 125.771L141.453 126.678L141.361 126.623ZM142.321 126.797C142.321 127.058 142.203 127.118 142.067 127.037C141.933 126.957 141.819 126.765 141.817 126.515C141.817 126.266 141.933 126.196 142.075 126.28C142.224 126.369 142.321 126.561 142.321 126.797ZM141.93 126.576C141.929 126.733 141.981 126.885 142.07 126.937C142.165 126.994 142.208 126.901 142.208 126.738C142.208 126.586 142.17 126.438 142.07 126.378C141.98 126.325 141.93 126.419 141.93 126.576Z" fill="black"/>
<path d="M184.846 160.871L152.235 141.426C151.268 140.85 150.484 139.602 150.484 138.638V124.081C150.484 123.118 151.268 122.804 152.235 123.38L184.846 142.825C185.813 143.402 186.596 144.65 186.596 145.614V160.17C186.596 161.134 185.813 161.448 184.846 160.871Z" fill="white" stroke="#BDE5F6" stroke-width="2.284" stroke-miterlimit="10"/>
<path d="M184.846 195.402L152.235 175.957C151.268 175.38 150.484 174.132 150.484 173.168V144.198C150.484 143.235 151.268 142.921 152.235 143.498L184.846 162.943C185.813 163.519 186.596 164.767 186.596 165.731V194.701C186.596 195.664 185.813 195.978 184.846 195.402Z" fill="white" stroke="#BDE5F6" stroke-width="2.284" stroke-miterlimit="10"/>
<path d="M162.27 132.757L153.437 127.491C153.186 127.341 152.98 127.014 152.98 126.763V126.691C152.98 126.441 153.186 126.359 153.437 126.508L162.27 131.775C162.521 131.925 162.726 132.252 162.726 132.502V132.574C162.726 132.825 162.521 132.907 162.27 132.757Z" fill="white"/>
<path d="M162.27 136.242L153.437 130.975C153.186 130.825 152.98 130.498 152.98 130.248V130.175C152.98 129.925 153.186 129.843 153.437 129.993L162.27 135.259C162.521 135.409 162.726 135.736 162.726 135.987V136.059C162.726 136.309 162.521 136.391 162.27 136.242Z" fill="white"/>
<path d="M161.077 144.156L155.625 140.905C155.425 140.786 155.262 140.525 155.262 140.326V140.068C155.262 139.869 155.425 139.804 155.625 139.923L161.077 143.173C161.277 143.293 161.44 143.553 161.44 143.752V144.01C161.44 144.209 161.277 144.275 161.077 144.156Z" fill="white"/>
<path d="M154.351 139.692C154.351 140.132 154.044 140.305 153.666 140.079C153.287 139.854 152.98 139.314 152.98 138.875C152.98 138.435 153.287 138.262 153.666 138.488C154.044 138.713 154.351 139.253 154.351 139.692Z" fill="#29ABE2"/>
<path d="M170.506 149.779L165.055 146.528C164.855 146.409 164.691 146.148 164.691 145.949V145.691C164.691 145.492 164.855 145.427 165.055 145.546L170.506 148.796C170.706 148.916 170.87 149.176 170.87 149.375V149.633C170.87 149.832 170.706 149.898 170.506 149.779Z" fill="white"/>
<path d="M163.785 145.315C163.785 145.755 163.478 145.928 163.1 145.702C162.721 145.477 162.414 144.937 162.414 144.498C162.414 144.058 162.721 143.885 163.1 144.111C163.478 144.336 163.785 144.876 163.785 145.315Z" fill="#2A2B6D"/>
<path d="M181.664 145.412C180.877 144.309 179.93 143.371 178.918 142.768V144.838C179.544 145.211 180.123 145.779 180.588 146.43C181.391 147.524 181.921 148.903 181.921 150.115C181.921 151.644 181.07 152.424 179.882 152.162C179.576 152.13 179.255 151.994 178.918 151.793V153.863C179.416 154.16 179.898 154.354 180.347 154.473C182.291 154.923 183.704 153.658 183.704 151.178C183.704 149.295 182.901 147.138 181.664 145.412Z" fill="#29ABE2"/>
<path d="M175.915 146.536C175.915 148.457 177.265 150.809 178.919 151.796V153.866C176.285 152.295 174.133 148.532 174.133 145.474C174.133 142.397 176.285 141.2 178.919 142.77V144.84C177.265 143.854 175.915 144.597 175.915 146.536Z" fill="#2A2B6D"/>
<path d="M154.071 132.936L153.183 132.407L153.094 133.047C153.147 133.071 153.197 133.093 153.283 133.144C153.462 133.251 153.641 133.403 153.785 133.588C153.967 133.817 154.117 134.139 154.117 134.48C154.117 135.008 153.756 135.187 153.251 134.886C152.997 134.734 152.782 134.523 152.672 134.375L152.75 134.143C152.847 134.267 153.037 134.463 153.247 134.589C153.545 134.766 153.799 134.693 153.799 134.332C153.795 133.981 153.595 133.612 153.13 133.335C152.997 133.256 152.893 133.21 152.807 133.172L152.958 131.965L154.071 132.628L154.071 132.936Z" fill="black"/>
<path d="M156.066 135.14C156.066 136.059 155.773 136.391 155.258 136.083C154.804 135.813 154.495 135.134 154.488 134.237C154.488 133.332 154.825 133.033 155.297 133.315C155.787 133.607 156.066 134.281 156.066 135.14ZM154.804 134.43C154.804 135.131 154.989 135.641 155.276 135.812C155.598 136.004 155.752 135.66 155.752 134.969C155.752 134.305 155.605 133.781 155.28 133.587C155.003 133.422 154.804 133.694 154.804 134.43Z" fill="black"/>
<path d="M158.172 135.835C158.172 136.404 157.915 136.534 157.614 136.354C157.324 136.182 157.074 135.762 157.07 135.215C157.07 134.675 157.324 134.524 157.632 134.707C157.957 134.901 158.172 135.32 158.172 135.835ZM157.321 135.353C157.313 135.693 157.425 136.021 157.621 136.138C157.829 136.262 157.922 136.06 157.922 135.703C157.922 135.374 157.84 135.051 157.621 134.921C157.425 134.804 157.321 135.012 157.321 135.353ZM157.593 137.475L158.96 135.499L159.159 135.618L157.793 137.595L157.593 137.475ZM159.686 137.855C159.686 138.425 159.429 138.553 159.131 138.376C158.841 138.203 158.591 137.784 158.587 137.241C158.587 136.698 158.841 136.545 159.149 136.729C159.475 136.923 159.686 137.34 159.686 137.855ZM158.834 137.372C158.831 137.715 158.945 138.045 159.138 138.16C159.346 138.284 159.439 138.081 159.439 137.725C159.439 137.396 159.356 137.073 159.138 136.943C158.942 136.825 158.834 137.032 158.834 137.372Z" fill="black"/>
<path d="M178.002 147.356L177.594 147.113L177.553 147.407C177.577 147.417 177.601 147.428 177.64 147.451C177.722 147.5 177.804 147.57 177.87 147.655C177.954 147.76 178.023 147.909 178.023 148.064C178.023 148.307 177.857 148.389 177.625 148.251C177.508 148.181 177.41 148.084 177.359 148.016L177.395 147.91C177.44 147.966 177.527 148.057 177.624 148.114C177.76 148.195 177.876 148.162 177.876 147.996C177.875 147.835 177.783 147.666 177.57 147.539C177.509 147.503 177.461 147.482 177.422 147.464L177.49 146.91L178.002 147.215V147.356H178.002Z" fill="black"/>
<path d="M178.916 148.367C178.916 148.789 178.781 148.941 178.545 148.8C178.337 148.676 178.195 148.365 178.191 147.953C178.191 147.536 178.346 147.4 178.563 147.53C178.787 147.663 178.916 147.972 178.916 148.367ZM178.336 148.041C178.336 148.363 178.422 148.597 178.553 148.675C178.7 148.763 178.771 148.605 178.771 148.288C178.771 147.983 178.704 147.743 178.554 147.654C178.428 147.578 178.336 147.703 178.336 148.041Z" fill="black"/>
<path d="M179.885 148.683C179.885 148.944 179.766 149.003 179.628 148.92C179.495 148.841 179.38 148.649 179.379 148.398C179.379 148.151 179.495 148.08 179.637 148.165C179.786 148.254 179.885 148.447 179.885 148.683ZM179.493 148.461C179.49 148.618 179.541 148.767 179.631 148.821C179.727 148.878 179.769 148.786 179.769 148.622C179.769 148.471 179.732 148.323 179.631 148.263C179.541 148.209 179.493 148.304 179.493 148.461ZM179.619 149.436L180.245 148.528L180.338 148.583L179.711 149.49L179.619 149.436ZM180.579 149.609C180.579 149.87 180.461 149.93 180.325 149.849C180.191 149.769 180.077 149.577 180.075 149.328C180.075 149.078 180.191 149.008 180.332 149.092C180.482 149.182 180.579 149.373 180.579 149.609ZM180.188 149.388C180.187 149.545 180.239 149.697 180.328 149.75C180.423 149.806 180.466 149.714 180.466 149.55C180.466 149.399 180.428 149.251 180.328 149.191C180.238 149.137 180.188 149.231 180.188 149.388Z" fill="black"/>
<path d="M146.577 172.587L75.8872 130.437C74.9204 129.861 74.1367 128.612 74.1367 127.649V98.679C74.1367 97.7155 74.9204 97.4017 75.8872 97.9781L146.577 140.128C147.544 140.705 148.327 141.953 148.327 142.917V171.887C148.327 172.85 147.544 173.164 146.577 172.587Z" fill="white" stroke="#BDE5F6" stroke-width="2.284" stroke-miterlimit="10"/>
<path d="M82.8037 105.424L77.2885 102.135C77.0375 101.985 76.832 101.658 76.832 101.408V101.336C76.832 101.085 77.0374 101.003 77.2885 101.153L82.8037 104.441C83.0548 104.591 83.2603 104.918 83.2603 105.169V105.241C83.2603 105.491 83.0549 105.573 82.8037 105.424Z" fill="white"/>
<path d="M77.6389 105.267L76.4538 104.561C76.3267 104.485 76.2227 104.319 76.2227 104.193V103.671C76.2227 103.545 76.3266 103.503 76.4538 103.579L77.6389 104.286C77.7659 104.361 77.87 104.527 77.87 104.654V105.175C77.87 105.302 77.766 105.343 77.6389 105.267Z" fill="white"/>
<path d="M77.6389 109.656L76.4538 108.95C76.3267 108.874 76.2227 108.708 76.2227 108.581V108.06C76.2227 107.933 76.3266 107.892 76.4538 107.968L77.6389 108.674C77.7659 108.75 77.87 108.916 77.87 109.042V109.564C77.87 109.69 77.766 109.732 77.6389 109.656Z" fill="white"/>
<path d="M77.6389 114.045L76.4538 113.338C76.3267 113.262 76.2227 113.097 76.2227 112.97V112.449C76.2227 112.322 76.3266 112.28 76.4538 112.356L77.6389 113.063C77.7659 113.139 77.87 113.304 77.87 113.431V113.952C77.87 114.079 77.766 114.121 77.6389 114.045Z" fill="white"/>
<path d="M77.6389 118.435L76.4538 117.729C76.3267 117.653 76.2227 117.487 76.2227 117.361V116.839C76.2227 116.713 76.3266 116.671 76.4538 116.747L77.6389 117.453C77.7659 117.529 77.87 117.695 77.87 117.822V118.343C77.87 118.47 77.766 118.511 77.6389 118.435Z" fill="white"/>
<path d="M77.6389 122.822L76.4538 122.116C76.3267 122.04 76.2227 121.874 76.2227 121.747V121.226C76.2227 121.099 76.3266 121.058 76.4538 121.134L77.6389 121.84C77.7659 121.916 77.87 122.082 77.87 122.208V122.73C77.87 122.856 77.766 122.898 77.6389 122.822Z" fill="white"/>
<path d="M77.6389 127.211L76.4538 126.504C76.3267 126.428 76.2227 126.263 76.2227 126.136V125.615C76.2227 125.488 76.3266 125.446 76.4538 125.522L77.6389 126.229C77.7659 126.305 77.87 126.47 77.87 126.597V127.118C77.87 127.245 77.766 127.287 77.6389 127.211Z" fill="white"/>
<path d="M85.1662 133.101L83.9811 132.395C83.8541 132.319 83.75 132.153 83.75 132.027V131.505C83.75 131.379 83.8539 131.337 83.9811 131.413L85.1662 132.119C85.2933 132.195 85.3973 132.361 85.3973 132.488V133.009C85.3973 133.136 85.2933 133.177 85.1662 133.101Z" fill="white"/>
<path d="M90.7639 136.437L89.5788 135.731C89.4517 135.655 89.3477 135.489 89.3477 135.363V134.841C89.3477 134.715 89.4516 134.673 89.5788 134.749L90.7639 135.455C90.8909 135.531 90.995 135.697 90.995 135.823V136.345C90.9949 136.471 90.8909 136.513 90.7639 136.437Z" fill="white"/>
<path d="M96.3615 139.775L95.1764 139.069C95.0494 138.993 94.9453 138.827 94.9453 138.701V138.179C94.9453 138.053 95.0493 138.011 95.1764 138.087L96.3615 138.793C96.4886 138.869 96.5926 139.035 96.5926 139.161V139.683C96.5926 139.809 96.4887 139.851 96.3615 139.775Z" fill="white"/>
<path d="M101.959 143.111L100.774 142.405C100.647 142.329 100.543 142.163 100.543 142.037V141.515C100.543 141.388 100.647 141.347 100.774 141.423L101.959 142.129C102.086 142.205 102.19 142.371 102.19 142.497V143.019C102.19 143.145 102.086 143.187 101.959 143.111Z" fill="white"/>
<path d="M107.549 146.449L106.364 145.743C106.237 145.667 106.133 145.501 106.133 145.374V144.853C106.133 144.726 106.237 144.685 106.364 144.761L107.549 145.467C107.676 145.543 107.78 145.709 107.78 145.835V146.357C107.78 146.483 107.676 146.525 107.549 146.449Z" fill="white"/>
<path d="M113.147 149.783L111.962 149.077C111.835 149.001 111.73 148.835 111.73 148.709V148.187C111.73 148.06 111.835 148.019 111.962 148.094L113.147 148.801C113.274 148.877 113.378 149.043 113.378 149.169V149.691C113.378 149.817 113.274 149.859 113.147 149.783Z" fill="white"/>
<path d="M118.74 153.119L117.555 152.412C117.428 152.337 117.324 152.171 117.324 152.044V151.523C117.324 151.396 117.428 151.355 117.555 151.43L118.74 152.137C118.867 152.213 118.972 152.379 118.972 152.505V153.027C118.972 153.153 118.867 153.195 118.74 153.119Z" fill="white"/>
<path d="M124.338 156.457L123.153 155.75C123.026 155.675 122.922 155.509 122.922 155.382V154.861C122.922 154.734 123.026 154.693 123.153 154.768L124.338 155.475C124.465 155.551 124.569 155.716 124.569 155.843V156.364C124.569 156.491 124.465 156.533 124.338 156.457Z" fill="white"/>
<path d="M129.928 159.793L128.743 159.086C128.616 159.01 128.512 158.845 128.512 158.718V158.197C128.512 158.07 128.616 158.028 128.743 158.104L129.928 158.811C130.055 158.887 130.159 159.052 130.159 159.179V159.7C130.159 159.827 130.055 159.869 129.928 159.793Z" fill="white"/>
<path d="M135.526 163.129L134.34 162.422C134.213 162.346 134.109 162.181 134.109 162.054V161.533C134.109 161.406 134.213 161.364 134.34 161.44L135.526 162.147C135.653 162.223 135.757 162.388 135.757 162.515V163.036C135.757 163.163 135.653 163.205 135.526 163.129Z" fill="white"/>
<path d="M141.123 166.465L139.938 165.758C139.811 165.682 139.707 165.517 139.707 165.39V164.869C139.707 164.742 139.811 164.7 139.938 164.776L141.123 165.483C141.25 165.559 141.354 165.724 141.354 165.851V166.372C141.354 166.499 141.25 166.541 141.123 166.465Z" fill="white"/>
<path d="M146.721 169.803L145.536 169.096C145.409 169.02 145.305 168.855 145.305 168.728V168.207C145.305 168.08 145.409 168.038 145.536 168.114L146.721 168.821C146.848 168.896 146.952 169.062 146.952 169.189V169.71C146.952 169.837 146.848 169.878 146.721 169.803Z" fill="white"/>
<path opacity="0.49" d="M78.6289 120.273L86.2641 120.39L91.6335 125.053L96.3808 125.217L102.377 132.198L113.073 130.29L120.906 131.67L125.951 142.848L131.83 150.349L142.207 147.662L145.45 150.79V167.344L78.6289 127.501V120.273Z" fill="url(#paint21_linear_324_4900)"/>
<path d="M145.442 167.344L78.6211 127.5V105.363L145.442 145.207V167.344Z" stroke="#BDE5F6" stroke-width="1.5227" stroke-miterlimit="10"/>
<path d="M78.6211 109.752L145.442 149.596" stroke="#BDE5F6" stroke-width="1.5227" stroke-miterlimit="10"/>
<path d="M78.6211 114.141L145.442 153.984" stroke="#BDE5F6" stroke-width="1.5227" stroke-miterlimit="10"/>
<path d="M78.6211 118.529L145.442 158.373" stroke="#BDE5F6" stroke-width="1.5227" stroke-miterlimit="10"/>
<path d="M78.6211 122.918L145.442 162.762" stroke="#BDE5F6" stroke-width="1.5227" stroke-miterlimit="10"/>
<path d="M84.5703 108.912V131.049" stroke="#BDE5F6" stroke-width="1.5227" stroke-miterlimit="10"/>
<path d="M90.168 112.248V134.385" stroke="#BDE5F6" stroke-width="1.5227" stroke-miterlimit="10"/>
<path d="M95.7617 115.584V137.721" stroke="#BDE5F6" stroke-width="1.5227" stroke-miterlimit="10"/>
<path d="M101.359 118.922V141.059" stroke="#BDE5F6" stroke-width="1.5227" stroke-miterlimit="10"/>
<path d="M106.949 122.258V144.395" stroke="#BDE5F6" stroke-width="1.5227" stroke-miterlimit="10"/>
<path d="M112.547 125.594V147.731" stroke="#BDE5F6" stroke-width="1.5227" stroke-miterlimit="10"/>
<path d="M118.145 128.93V151.067" stroke="#BDE5F6" stroke-width="1.5227" stroke-miterlimit="10"/>
<path d="M123.742 132.266V154.403" stroke="#BDE5F6" stroke-width="1.5227" stroke-miterlimit="10"/>
<path d="M129.332 135.604V157.741" stroke="#BDE5F6" stroke-width="1.5227" stroke-miterlimit="10"/>
<path d="M134.93 138.939V161.076" stroke="#BDE5F6" stroke-width="1.5227" stroke-miterlimit="10"/>
<path d="M140.527 142.275V164.412" stroke="#BDE5F6" stroke-width="1.5227" stroke-miterlimit="10"/>
<path opacity="0.35" d="M78.6172 124.223C78.9661 124.431 84.5681 127.771 84.5681 127.771L90.1635 125.415L95.759 129.242L101.354 129.396L106.95 133.327L118.141 133.32L123.736 137.924L129.332 144.872L134.927 146.448L140.523 153.345L145.439 152.475V167.345L78.6172 127.502V124.223Z" fill="#29ABE2"/>
<path d="M78.3125 124.039C78.6614 124.247 84.2634 127.587 84.2634 127.587L89.8588 125.231L95.4543 129.059L101.05 129.213L106.645 133.144L117.836 133.136L123.431 137.741L129.027 144.688L134.622 146.265L140.218 153.162L145.134 152.291" stroke="#29ABE2" stroke-width="3.8067" stroke-miterlimit="10"/>
<path d="M102.746 152.102L97.7121 149.1C97.5117 148.981 97.3477 148.72 97.3477 148.52V148.188C97.3477 147.988 97.5116 147.923 97.7121 148.042L102.746 151.044C102.947 151.163 103.111 151.425 103.111 151.624V151.956C103.111 152.156 102.947 152.222 102.746 152.102Z" fill="white"/>
<path d="M96.4976 147.887C96.4976 148.36 96.2112 148.574 95.8582 148.363C95.5051 148.152 95.2188 147.598 95.2188 147.124C95.2188 146.65 95.5051 146.437 95.8582 146.648C96.2112 146.858 96.4976 147.413 96.4976 147.887Z" fill="#29ABE2"/>
<path d="M111.543 157.348L106.509 154.347C106.308 154.227 106.145 153.966 106.145 153.766V153.434C106.145 153.234 106.308 153.169 106.509 153.288L111.543 156.29C111.744 156.409 111.908 156.671 111.908 156.87V157.202C111.908 157.402 111.744 157.468 111.543 157.348Z" fill="white"/>
<path d="M105.298 153.131C105.298 153.604 105.012 153.818 104.659 153.607C104.306 153.397 104.02 152.842 104.02 152.368C104.02 151.894 104.306 151.681 104.659 151.892C105.012 152.102 105.298 152.657 105.298 153.131Z" fill="#2A2B6D"/>
<path d="M80.5375 138.86L76.5578 136.487C76.3326 136.353 76.1484 136.059 76.1484 135.835V135.592C76.1484 135.368 76.3326 135.294 76.5578 135.428L80.5375 137.801C80.7627 137.936 80.9469 138.229 80.9469 138.454V138.696C80.947 138.92 80.7627 138.994 80.5375 138.86Z" fill="white"/>
<path d="M76.7256 139.733L75.9104 139.247C75.7965 139.179 75.7031 139.03 75.7031 138.916V138.271C75.7031 138.158 75.7964 138.12 75.9104 138.188L76.7256 138.674C76.8395 138.742 76.9329 138.891 76.9329 139.005V139.65C76.9328 139.763 76.8395 139.801 76.7256 139.733Z" fill="white"/>
<path d="M76.7256 144.461L75.9104 143.975C75.7965 143.907 75.7031 143.759 75.7031 143.645V143C75.7031 142.886 75.7964 142.849 75.9104 142.917L76.7256 143.403C76.8395 143.471 76.9329 143.619 76.9329 143.733V144.378C76.9328 144.492 76.8395 144.529 76.7256 144.461Z" fill="white"/>
<path d="M76.7256 149.192L75.9104 148.706C75.7965 148.638 75.7031 148.489 75.7031 148.375V147.73C75.7031 147.617 75.7964 147.579 75.9104 147.647L76.7256 148.133C76.8395 148.201 76.9329 148.35 76.9329 148.463V149.109C76.9328 149.222 76.8395 149.26 76.7256 149.192Z" fill="white"/>
<path d="M76.7256 153.92L75.9104 153.434C75.7965 153.366 75.7031 153.218 75.7031 153.104V152.459C75.7031 152.345 75.7964 152.308 75.9104 152.376L76.7256 152.862C76.8395 152.93 76.9329 153.078 76.9329 153.192V153.837C76.9328 153.951 76.8395 153.988 76.7256 153.92Z" fill="white"/>
<path d="M76.7256 158.649L75.9104 158.163C75.7965 158.095 75.7031 157.946 75.7031 157.832V157.187C75.7031 157.074 75.7964 157.036 75.9104 157.104L76.7256 157.59C76.8395 157.658 76.9329 157.807 76.9329 157.921V158.566C76.9328 158.679 76.8395 158.717 76.7256 158.649Z" fill="white"/>
<path d="M76.7256 163.377L75.9104 162.891C75.7965 162.823 75.7031 162.675 75.7031 162.561V161.916C75.7031 161.802 75.7964 161.765 75.9104 161.833L76.7256 162.319C76.8395 162.387 76.9329 162.535 76.9329 162.649V163.294C76.9328 163.408 76.8395 163.445 76.7256 163.377Z" fill="white"/>
<path d="M82.3426 168.24L81.5275 167.754C81.4136 167.686 81.3203 167.538 81.3203 167.424V166.779C81.3203 166.665 81.4136 166.628 81.5275 166.696L82.3426 167.182C82.4566 167.25 82.55 167.399 82.55 167.512V168.158C82.55 168.271 82.4566 168.309 82.3426 168.24Z" fill="white"/>
<path d="M86.5146 170.733L85.6995 170.247C85.5855 170.179 85.4922 170.03 85.4922 169.916V169.271C85.4922 169.158 85.5854 169.12 85.6995 169.188L86.5146 169.674C86.6286 169.742 86.7219 169.891 86.7219 170.004V170.65C86.7218 170.763 86.6286 170.801 86.5146 170.733Z" fill="white"/>
<path d="M90.6942 173.223L89.8791 172.737C89.7651 172.669 89.6719 172.52 89.6719 172.407V171.761C89.6719 171.648 89.7651 171.611 89.8791 171.678L90.6942 172.165C90.8082 172.233 90.9014 172.381 90.9014 172.495V173.14C90.9015 173.254 90.8083 173.291 90.6942 173.223Z" fill="white"/>
<path d="M94.8701 175.713L94.055 175.227C93.941 175.159 93.8477 175.011 93.8477 174.897V174.252C93.8477 174.138 93.9409 174.101 94.055 174.169L94.8701 174.655C94.9841 174.723 95.0774 174.871 95.0774 174.985V175.63C95.0774 175.744 94.9841 175.781 94.8701 175.713Z" fill="white"/>
<path d="M99.042 178.203L98.2268 177.717C98.1129 177.649 98.0195 177.501 98.0195 177.387V176.742C98.0195 176.628 98.1128 176.591 98.2268 176.659L99.042 177.145C99.1559 177.213 99.2493 177.362 99.2493 177.475V178.12C99.2492 178.234 99.1559 178.271 99.042 178.203Z" fill="white"/>
<path d="M103.222 180.692L102.407 180.206C102.293 180.138 102.199 179.989 102.199 179.875V179.23C102.199 179.117 102.292 179.079 102.407 179.147L103.222 179.633C103.336 179.701 103.429 179.85 103.429 179.963V180.609C103.429 180.722 103.336 180.76 103.222 180.692Z" fill="white"/>
<path d="M107.401 183.184L106.586 182.698C106.472 182.63 106.379 182.481 106.379 182.368V181.722C106.379 181.609 106.472 181.571 106.586 181.639L107.401 182.125C107.515 182.193 107.609 182.342 107.609 182.456V183.101C107.609 183.214 107.515 183.252 107.401 183.184Z" fill="white"/>
<path d="M111.573 185.676L110.758 185.19C110.644 185.122 110.551 184.973 110.551 184.86V184.215C110.551 184.101 110.644 184.064 110.758 184.132L111.573 184.618C111.687 184.686 111.781 184.834 111.781 184.948V185.593C111.78 185.707 111.687 185.744 111.573 185.676Z" fill="white"/>
<path d="M115.753 188.166L114.938 187.68C114.824 187.612 114.73 187.464 114.73 187.35V186.705C114.73 186.591 114.824 186.554 114.938 186.622L115.753 187.108C115.867 187.176 115.96 187.324 115.96 187.438V188.083C115.96 188.197 115.867 188.234 115.753 188.166Z" fill="white"/>
<path d="M119.933 190.657L119.117 190.17C119.003 190.102 118.91 189.954 118.91 189.84V189.195C118.91 189.081 119.003 189.044 119.117 189.112L119.933 189.598C120.047 189.666 120.14 189.815 120.14 189.928V190.574C120.14 190.687 120.047 190.724 119.933 190.657Z" fill="white"/>
<path d="M124.112 193.147L123.297 192.661C123.183 192.593 123.09 192.444 123.09 192.33V191.685C123.09 191.572 123.183 191.534 123.297 191.602L124.112 192.088C124.226 192.156 124.32 192.305 124.32 192.419V193.064C124.319 193.177 124.226 193.215 124.112 193.147Z" fill="white"/>
<path d="M128.284 195.637L127.469 195.151C127.355 195.083 127.262 194.934 127.262 194.821V194.175C127.262 194.062 127.355 194.025 127.469 194.093L128.284 194.579C128.398 194.647 128.491 194.795 128.491 194.909V195.554C128.491 195.668 128.398 195.705 128.284 195.637Z" fill="white"/>
<path d="M127.374 193.261L77.4922 163.518V139.662L127.374 169.405V193.261Z" stroke="#BDE5F6" stroke-width="1.3657" stroke-miterlimit="10"/>
<path d="M77.4922 144.391L127.374 174.133" stroke="#BDE5F6" stroke-width="1.3657" stroke-miterlimit="10"/>
<path d="M77.4922 149.121L127.374 178.864" stroke="#BDE5F6" stroke-width="1.3657" stroke-miterlimit="10"/>
<path d="M77.4922 153.85L127.374 183.592" stroke="#BDE5F6" stroke-width="1.3657" stroke-miterlimit="10"/>
<path d="M77.4922 158.578L127.374 188.321" stroke="#BDE5F6" stroke-width="1.3657" stroke-miterlimit="10"/>
<path d="M81.9336 142.311V166.166" stroke="#BDE5F6" stroke-width="1.3657" stroke-miterlimit="10"/>
<path d="M86.1094 144.801V168.656" stroke="#BDE5F6" stroke-width="1.3657" stroke-miterlimit="10"/>
<path d="M90.2891 147.291V171.147" stroke="#BDE5F6" stroke-width="1.3657" stroke-miterlimit="10"/>
<path d="M94.4609 149.783V173.639" stroke="#BDE5F6" stroke-width="1.3657" stroke-miterlimit="10"/>
<path d="M98.6406 152.273V176.129" stroke="#BDE5F6" stroke-width="1.3657" stroke-miterlimit="10"/>
<path d="M102.82 154.764V178.619" stroke="#BDE5F6" stroke-width="1.3657" stroke-miterlimit="10"/>
<path d="M107 157.256V181.111" stroke="#BDE5F6" stroke-width="1.3657" stroke-miterlimit="10"/>
<path d="M111.172 159.746V183.602" stroke="#BDE5F6" stroke-width="1.3657" stroke-miterlimit="10"/>
<path d="M115.352 162.234V186.09" stroke="#BDE5F6" stroke-width="1.3657" stroke-miterlimit="10"/>
<path d="M119.527 164.725V188.58" stroke="#BDE5F6" stroke-width="1.3657" stroke-miterlimit="10"/>
<path d="M123.703 167.215V191.07" stroke="#BDE5F6" stroke-width="1.3657" stroke-miterlimit="10"/>
<path d="M158.378 150.7L152.926 147.45C152.726 147.331 152.562 147.07 152.562 146.871V146.613C152.562 146.414 152.726 146.349 152.926 146.468L158.378 149.718C158.577 149.838 158.741 150.098 158.741 150.297V150.555C158.741 150.754 158.577 150.82 158.378 150.7Z" fill="white"/>
<path d="M167.977 167.41L172.152 179.466C170.9 179.465 169.486 179.032 167.977 178.132C162.885 175.097 158.758 167.843 158.758 161.913C158.758 156.002 162.885 153.671 167.977 156.706C170.482 158.2 172.763 160.716 174.417 163.567L167.977 167.41Z" fill="url(#paint22_linear_324_4900)"/>
<path d="M177.211 172.916C177.211 173.885 177.099 174.75 176.874 175.512L167.977 167.409L174.417 163.566C176.135 166.549 177.211 169.913 177.211 172.916Z" fill="#29ABE2"/>
<path d="M176.874 175.513C176.2 178.075 174.465 179.484 172.152 179.466L167.977 167.41L176.874 175.513Z" fill="#2A2B6D"/>
<path d="M77.4922 156.598L80.5327 158.861L86.1115 161.158L90.2883 162.009L94.4653 164.5L98.6422 164.202L102.819 165.454L106.996 164.726L111.173 166.379L115.35 167.775L119.527 171.232L123.748 172.783L127.374 172.305" stroke="#29ABE2" stroke-width="3.4143" stroke-miterlimit="10"/>
<path d="M77.4922 159.999L81.9345 161.756L84.5799 161.8L87.7379 158.912L90.2883 159.624L94.4653 159.925L102.433 162.176L106.962 161.433L112.557 164.769L116.359 166.195L119.527 172.53L123.704 174.859L127.374 174.663" stroke="#2A2B6D" stroke-width="3.4143" stroke-miterlimit="10"/>
<path d="M159.746 186.091L154.712 183.089C154.512 182.969 154.348 182.708 154.348 182.508V182.176C154.348 181.977 154.512 181.911 154.712 182.03L159.746 185.032C159.947 185.152 160.111 185.413 160.111 185.613V185.945C160.111 186.144 159.947 186.21 159.746 186.091Z" fill="white"/>
<path d="M153.498 181.877C153.498 182.35 153.211 182.564 152.858 182.353C152.505 182.143 152.219 181.588 152.219 181.114C152.219 180.641 152.505 180.427 152.858 180.638C153.211 180.848 153.498 181.403 153.498 181.877Z" fill="#29ABE2"/>
<path d="M168.539 191.337L163.505 188.335C163.305 188.215 163.141 187.954 163.141 187.754V187.422C163.141 187.223 163.305 187.157 163.505 187.276L168.539 190.278C168.74 190.398 168.904 190.659 168.904 190.859V191.191C168.904 191.391 168.74 191.456 168.539 191.337Z" fill="white"/>
<path d="M162.298 187.123C162.298 187.597 162.012 187.81 161.659 187.599C161.306 187.389 161.02 186.834 161.02 186.36C161.02 185.887 161.306 185.673 161.659 185.884C162.012 186.094 162.298 186.649 162.298 187.123Z" fill="#2A2B6D"/>
<path d="M167.164 181.991L162.13 178.989C161.93 178.87 161.766 178.608 161.766 178.409V178.077C161.766 177.877 161.93 177.811 162.13 177.931L167.164 180.933C167.365 181.052 167.529 181.313 167.529 181.513V181.845C167.529 182.045 167.365 182.11 167.164 181.991Z" fill="white"/>
<path d="M160.919 177.777C160.919 178.251 160.633 178.464 160.28 178.254C159.927 178.043 159.641 177.488 159.641 177.015C159.641 176.541 159.927 176.328 160.28 176.538C160.633 176.749 160.919 177.303 160.919 177.777Z" fill="#29ABE2"/>
<path d="M175.965 187.235L170.931 184.233C170.73 184.114 170.566 183.853 170.566 183.653V183.321C170.566 183.121 170.73 183.055 170.931 183.175L175.965 186.177C176.166 186.296 176.33 186.557 176.33 186.757V187.089C176.33 187.289 176.166 187.355 175.965 187.235Z" fill="white"/>
<path d="M169.716 183.021C169.716 183.495 169.43 183.708 169.077 183.498C168.724 183.287 168.438 182.732 168.438 182.259C168.438 181.785 168.724 181.572 169.077 181.782C169.43 181.993 169.716 182.548 169.716 183.021Z" fill="#2A2B6D"/>
<path d="M137.541 172.85L133.562 170.477C133.337 170.343 133.152 170.049 133.152 169.825V169.583C133.152 169.358 133.337 169.284 133.562 169.419L137.541 171.792C137.767 171.926 137.951 172.219 137.951 172.444V172.686C137.951 172.91 137.767 172.984 137.541 172.85Z" fill="white"/>
<path d="M133.722 173.721L132.907 173.235C132.793 173.167 132.699 173.018 132.699 172.905V172.259C132.699 172.146 132.792 172.109 132.907 172.177L133.722 172.663C133.836 172.731 133.929 172.879 133.929 172.993V173.638C133.929 173.752 133.836 173.789 133.722 173.721Z" fill="white"/>
<path d="M133.722 178.451L132.907 177.965C132.793 177.897 132.699 177.749 132.699 177.635V176.99C132.699 176.876 132.792 176.839 132.907 176.907L133.722 177.393C133.836 177.461 133.929 177.61 133.929 177.723V178.368C133.929 178.482 133.836 178.519 133.722 178.451Z" fill="white"/>
<path d="M133.722 183.18L132.907 182.694C132.793 182.626 132.699 182.477 132.699 182.364V181.719C132.699 181.605 132.792 181.567 132.907 181.636L133.722 182.122C133.836 182.19 133.929 182.338 133.929 182.452V183.097C133.929 183.211 133.836 183.248 133.722 183.18Z" fill="white"/>
<path d="M133.722 187.908L132.907 187.422C132.793 187.354 132.699 187.206 132.699 187.092V186.447C132.699 186.333 132.792 186.296 132.907 186.364L133.722 186.85C133.836 186.918 133.929 187.067 133.929 187.18V187.826C133.929 187.939 133.836 187.976 133.722 187.908Z" fill="white"/>
<path d="M133.722 192.639L132.907 192.153C132.793 192.085 132.699 191.936 132.699 191.823V191.177C132.699 191.064 132.792 191.027 132.907 191.094L133.722 191.581C133.836 191.649 133.929 191.797 133.929 191.911V192.556C133.929 192.67 133.836 192.707 133.722 192.639Z" fill="white"/>
<path d="M133.722 197.369L132.907 196.883C132.793 196.815 132.699 196.667 132.699 196.553V195.908C132.699 195.794 132.792 195.757 132.907 195.825L133.722 196.311C133.836 196.379 133.929 196.528 133.929 196.641V197.286C133.929 197.4 133.836 197.437 133.722 197.369Z" fill="white"/>
<path d="M139.339 202.229L138.524 201.743C138.41 201.675 138.316 201.526 138.316 201.413V200.767C138.316 200.654 138.41 200.616 138.524 200.684L139.339 201.17C139.453 201.238 139.546 201.387 139.546 201.501V202.146C139.546 202.259 139.453 202.297 139.339 202.229Z" fill="white"/>
<path d="M143.519 204.719L142.703 204.233C142.589 204.165 142.496 204.016 142.496 203.903V203.258C142.496 203.144 142.589 203.107 142.703 203.175L143.519 203.661C143.632 203.729 143.726 203.877 143.726 203.991V204.636C143.726 204.75 143.632 204.787 143.519 204.719Z" fill="white"/>
<path d="M147.698 207.211L146.883 206.725C146.769 206.657 146.676 206.509 146.676 206.395V205.75C146.676 205.636 146.769 205.599 146.883 205.667L147.698 206.153C147.812 206.221 147.906 206.369 147.906 206.483V207.128C147.905 207.242 147.812 207.279 147.698 207.211Z" fill="white"/>
<path d="M151.878 209.701L151.063 209.215C150.949 209.147 150.855 208.999 150.855 208.885V208.24C150.855 208.126 150.949 208.089 151.063 208.157L151.878 208.643C151.992 208.711 152.085 208.86 152.085 208.973V209.618C152.085 209.732 151.992 209.769 151.878 209.701Z" fill="white"/>
<path d="M156.05 212.192L155.235 211.706C155.121 211.638 155.027 211.489 155.027 211.375V210.73C155.027 210.617 155.121 210.579 155.235 210.647L156.05 211.133C156.164 211.201 156.257 211.35 156.257 211.463V212.109C156.257 212.222 156.164 212.26 156.05 212.192Z" fill="white"/>
<path d="M160.229 214.684L159.414 214.198C159.3 214.13 159.207 213.981 159.207 213.868V213.222C159.207 213.109 159.3 213.071 159.414 213.139L160.229 213.625C160.343 213.693 160.437 213.842 160.437 213.956V214.601C160.437 214.714 160.343 214.752 160.229 214.684Z" fill="white"/>
<path d="M164.401 217.174L163.586 216.688C163.472 216.62 163.379 216.472 163.379 216.358V215.713C163.379 215.599 163.472 215.562 163.586 215.63L164.401 216.116C164.515 216.184 164.609 216.332 164.609 216.446V217.091C164.609 217.205 164.515 217.242 164.401 217.174Z" fill="white"/>
<path d="M168.577 219.662L167.762 219.176C167.648 219.108 167.555 218.96 167.555 218.846V218.201C167.555 218.087 167.648 218.05 167.762 218.118L168.577 218.604C168.691 218.672 168.784 218.821 168.784 218.934V219.579C168.784 219.693 168.691 219.73 168.577 219.662Z" fill="white"/>
<path d="M172.757 222.155L171.942 221.668C171.828 221.601 171.734 221.452 171.734 221.338V220.693C171.734 220.579 171.828 220.542 171.942 220.61L172.757 221.096C172.871 221.164 172.964 221.313 172.964 221.426V222.072C172.964 222.185 172.871 222.222 172.757 222.155Z" fill="white"/>
<path d="M176.936 224.647L176.121 224.161C176.007 224.093 175.914 223.944 175.914 223.83V223.185C175.914 223.072 176.007 223.034 176.121 223.102L176.936 223.588C177.05 223.656 177.144 223.805 177.144 223.919V224.564C177.144 224.677 177.051 224.715 176.936 224.647Z" fill="white"/>
<path d="M181.116 227.135L180.301 226.649C180.187 226.581 180.094 226.432 180.094 226.319V225.674C180.094 225.56 180.187 225.523 180.301 225.591L181.116 226.077C181.23 226.145 181.323 226.293 181.323 226.407V227.052C181.323 227.166 181.23 227.203 181.116 227.135Z" fill="white"/>
<path d="M185.288 229.625L184.473 229.139C184.359 229.071 184.266 228.923 184.266 228.809V228.164C184.266 228.05 184.359 228.013 184.473 228.081L185.288 228.567C185.402 228.635 185.495 228.783 185.495 228.897V229.542C185.495 229.656 185.402 229.693 185.288 229.625Z" fill="white"/>
<path d="M184.366 227.249L134.484 197.506V173.65L184.366 203.393V227.249Z" stroke="#BDE5F6" stroke-width="1.3657" stroke-miterlimit="10"/>
<path d="M134.484 178.379L184.366 208.122" stroke="#BDE5F6" stroke-width="1.3657" stroke-miterlimit="10"/>
<path d="M134.484 183.109L184.366 212.852" stroke="#BDE5F6" stroke-width="1.3657" stroke-miterlimit="10"/>
<path d="M134.484 187.838L184.366 217.581" stroke="#BDE5F6" stroke-width="1.3657" stroke-miterlimit="10"/>
<path d="M134.484 192.566L184.366 222.309" stroke="#BDE5F6" stroke-width="1.3657" stroke-miterlimit="10"/>
<path d="M138.926 176.301V200.156" stroke="#BDE5F6" stroke-width="1.3657" stroke-miterlimit="10"/>
<path d="M143.105 178.791V202.647" stroke="#BDE5F6" stroke-width="1.3657" stroke-miterlimit="10"/>
<path d="M147.285 181.281V205.137" stroke="#BDE5F6" stroke-width="1.3657" stroke-miterlimit="10"/>
<path d="M151.457 183.771V207.627" stroke="#BDE5F6" stroke-width="1.3657" stroke-miterlimit="10"/>
<path d="M155.637 186.262V210.117" stroke="#BDE5F6" stroke-width="1.3657" stroke-miterlimit="10"/>
<path d="M159.812 188.752V212.608" stroke="#BDE5F6" stroke-width="1.3657" stroke-miterlimit="10"/>
<path d="M163.988 191.242V215.098" stroke="#BDE5F6" stroke-width="1.3657" stroke-miterlimit="10"/>
<path d="M168.164 193.734V217.59" stroke="#BDE5F6" stroke-width="1.3657" stroke-miterlimit="10"/>
<path d="M172.344 196.225V220.08" stroke="#BDE5F6" stroke-width="1.3657" stroke-miterlimit="10"/>
<path d="M176.523 198.715V222.57" stroke="#BDE5F6" stroke-width="1.3657" stroke-miterlimit="10"/>
<path d="M180.695 201.205V225.061" stroke="#BDE5F6" stroke-width="1.3657" stroke-miterlimit="10"/>
<path d="M140.238 199.213L138.934 198.435V187.848L140.238 188.626V199.213Z" fill="#2A2B6D"/>
<path d="M137.953 197.848L136.648 197.07V189.193L137.953 189.971V197.848Z" fill="#29ABE2"/>
<path d="M148.472 204.12L147.168 203.342V190.666L148.472 191.444V204.12Z" fill="#2A2B6D"/>
<path d="M146.187 202.755L144.883 201.977V192.547L146.187 193.325V202.755Z" fill="#29ABE2"/>
<path d="M156.691 209.028L155.387 208.251V201.096L156.691 201.873V209.028Z" fill="#2A2B6D"/>
<path d="M154.406 207.663L153.102 206.885V201.562L154.406 202.34V207.663Z" fill="#29ABE2"/>
<path d="M164.933 213.936L163.629 213.158V193.924L164.933 194.702V213.936Z" fill="#2A2B6D"/>
<path d="M162.648 212.572L161.344 211.794V197.484L162.648 198.262V212.572Z" fill="#29ABE2"/>
<path d="M173.152 218.844L171.848 218.066V196.461L173.152 197.239V218.844Z" fill="#2A2B6D"/>
<path d="M170.867 217.478L169.562 216.7V200.627L170.867 201.405V217.478Z" fill="#29ABE2"/>
<path d="M181.394 223.752L180.09 222.974V206.371L181.394 207.149V223.752Z" fill="#2A2B6D"/>
<path d="M179.101 222.387L177.797 221.61V209.258L179.101 210.036V222.387Z" fill="#29ABE2"/>
<path d="M69.0834 74.0377L67.0625 72.8328V70.4863L69.0834 71.6914V74.0377Z" fill="white" stroke="#BDE5F6" stroke-width="2.284" stroke-miterlimit="10"/>
<path d="M69.0834 80.5066L67.0625 79.3015V76.9551L69.0834 78.1601V80.5066Z" fill="white" stroke="#BDE5F6" stroke-width="2.284" stroke-miterlimit="10"/>
<path d="M69.0834 86.9733L67.0625 85.7683V83.4219L69.0834 84.6269V86.9733Z" fill="white" stroke="#BDE5F6" stroke-width="2.284" stroke-miterlimit="10"/>
<path d="M69.0834 93.4422L67.0625 92.2371V89.8906L69.0834 91.0957V93.4422Z" fill="white" stroke="#BDE5F6" stroke-width="2.284" stroke-miterlimit="10"/>
<path d="M69.0834 99.9088L67.0625 98.7039V96.3574L69.0834 97.5624V99.9088Z" fill="white" stroke="#BDE5F6" stroke-width="2.284" stroke-miterlimit="10"/>
<path d="M69.0834 106.376L67.0625 105.171V102.824L69.0834 104.029V106.376Z" fill="white" stroke="#BDE5F6" stroke-width="2.284" stroke-miterlimit="10"/>
<path d="M149.466 110.721C149.466 112.052 148.542 112.594 147.396 111.91L76.2145 69.4668C75.0683 68.7834 74.1445 67.1402 74.1445 65.8094C74.1445 64.4785 75.0683 63.9568 76.2145 64.6402L147.396 107.084C148.542 107.767 149.466 109.391 149.466 110.721Z" fill="white" stroke="#BDE5F6" stroke-width="2.284" stroke-miterlimit="10"/>
<path d="M149.464 110.721C149.464 112.052 148.54 112.594 147.394 111.91L135.949 105.086V100.26L147.394 107.084C148.54 107.767 149.464 109.391 149.464 110.721Z" fill="#2A2B6D"/>
<path d="M70.5831 63.0805C70.5831 64.4485 69.6279 64.9878 68.4497 64.2854C67.2716 63.5829 66.3164 61.9045 66.3164 60.5365C66.3164 59.1685 67.2716 58.6291 68.4497 59.3315C69.628 60.0341 70.5831 61.7125 70.5831 63.0805Z" fill="#2A2B6D"/>
</g>
<defs>
<linearGradient id="paint0_linear_324_4900" x1="127.139" y1="132.948" x2="117.34" y2="112.606" gradientUnits="userSpaceOnUse">
<stop stop-color="#CBCBD6"/>
<stop offset="1" stop-color="#F9FAF9"/>
</linearGradient>
<linearGradient id="paint1_linear_324_4900" x1="206.132" y1="139.225" x2="147.654" y2="119.809" gradientUnits="userSpaceOnUse">
<stop stop-color="#656C83"/>
<stop offset="0.2674" stop-color="#CBCBD6"/>
<stop offset="0.8396" stop-color="#F9FAF9"/>
</linearGradient>
<linearGradient id="paint2_linear_324_4900" x1="173.953" y1="120.115" x2="190.333" y2="84.256" gradientUnits="userSpaceOnUse">
<stop stop-color="#656C83"/>
<stop offset="0.2674" stop-color="#CBCBD6"/>
<stop offset="0.8396" stop-color="#F9FAF9"/>
</linearGradient>
<linearGradient id="paint3_linear_324_4900" x1="198.988" y1="147.098" x2="140.173" y2="141.749" gradientUnits="userSpaceOnUse">
<stop stop-color="#71778D"/>
<stop offset="0.8128" stop-color="#CCCCD7"/>
<stop offset="1" stop-color="#B2B3BE"/>
</linearGradient>
<linearGradient id="paint4_linear_324_4900" x1="200.66" y1="96.4871" x2="160.22" y2="96.577" gradientUnits="userSpaceOnUse">
<stop stop-color="#262C3D"/>
<stop offset="1" stop-color="#7D859E"/>
</linearGradient>
<linearGradient id="paint5_linear_324_4900" x1="124.858" y1="48.2714" x2="158.074" y2="45.0524" gradientUnits="userSpaceOnUse">
<stop stop-color="#CBCBD6"/>
<stop offset="1" stop-color="#A4A6B0"/>
</linearGradient>
<linearGradient id="paint6_linear_324_4900" x1="132.888" y1="50.2732" x2="162.689" y2="47.3851" gradientUnits="userSpaceOnUse">
<stop stop-color="#CBCBD6"/>
<stop offset="1" stop-color="#F9FAF9"/>
</linearGradient>
<linearGradient id="paint7_linear_324_4900" x1="219.968" y1="81.7259" x2="132.879" y2="36.4483" gradientUnits="userSpaceOnUse">
<stop stop-color="#656C83"/>
<stop offset="0.4332" stop-color="#CBCBD6"/>
<stop offset="0.8396" stop-color="#F9FAF9"/>
</linearGradient>
<linearGradient id="paint8_linear_324_4900" x1="203.198" y1="110.889" x2="140.884" y2="78.2671" gradientUnits="userSpaceOnUse">
<stop stop-color="#71778D"/>
<stop offset="0.8128" stop-color="#CCCCD7"/>
<stop offset="1" stop-color="#B2B3BE"/>
</linearGradient>
<linearGradient id="paint9_linear_324_4900" x1="199.078" y1="50.1297" x2="148.231" y2="57.9088" gradientUnits="userSpaceOnUse">
<stop stop-color="#C2C3CF"/>
<stop offset="1" stop-color="#7C8195"/>
</linearGradient>
<linearGradient id="paint10_linear_324_4900" x1="133.666" y1="57.7176" x2="206.07" y2="53.676" gradientUnits="userSpaceOnUse">
<stop stop-color="#CBCBD6"/>
<stop offset="1" stop-color="#F9FAF9"/>
</linearGradient>
<linearGradient id="paint11_linear_324_4900" x1="160.384" y1="65.203" x2="170.962" y2="46.2711" gradientUnits="userSpaceOnUse">
<stop stop-color="#171717"/>
<stop offset="1" stop-color="#0D76FF"/>
</linearGradient>
<linearGradient id="paint12_linear_324_4900" x1="206.389" y1="80.6641" x2="239.605" y2="77.4452" gradientUnits="userSpaceOnUse">
<stop stop-color="#CBCBD6"/>
<stop offset="1" stop-color="#A4A6B0"/>
</linearGradient>
<linearGradient id="paint13_linear_324_4900" x1="214.423" y1="82.6676" x2="244.224" y2="79.7796" gradientUnits="userSpaceOnUse">
<stop stop-color="#CBCBD6"/>
<stop offset="1" stop-color="#F9FAF9"/>
</linearGradient>
<linearGradient id="paint14_linear_324_4900" x1="221.605" y1="81.3697" x2="239.597" y2="81.3697" gradientUnits="userSpaceOnUse">
<stop stop-color="#CBCBD6"/>
<stop offset="1" stop-color="#A4A6B0"/>
</linearGradient>
<linearGradient id="paint15_linear_324_4900" x1="233.778" y1="67.9309" x2="223.392" y2="92.7123" gradientUnits="userSpaceOnUse">
<stop stop-color="#CBCBD6"/>
<stop offset="1" stop-color="#F9FAF9"/>
</linearGradient>
<linearGradient id="paint16_linear_324_4900" x1="166.535" y1="31.378" x2="221.216" y2="31.378" gradientUnits="userSpaceOnUse">
<stop stop-color="#CBCBD6"/>
<stop offset="1" stop-color="#A4A6B0"/>
</linearGradient>
<linearGradient id="paint17_linear_324_4900" x1="227.09" y1="154.061" x2="200.855" y2="156.541" gradientUnits="userSpaceOnUse">
<stop stop-color="#CBCBD6"/>
<stop offset="1" stop-color="#F9FAF9"/>
</linearGradient>
<linearGradient id="paint18_linear_324_4900" x1="71.3555" y1="113.699" x2="190.976" y2="113.699" gradientUnits="userSpaceOnUse">
<stop stop-color="#CBCBD6"/>
<stop offset="1" stop-color="#F9FAF9"/>
</linearGradient>
<linearGradient id="paint19_linear_324_4900" x1="104.609" y1="117.974" x2="105.98" y2="117.974" gradientUnits="userSpaceOnUse">
<stop stop-color="#5B677C"/>
<stop offset="1" stop-color="#39A9A5"/>
</linearGradient>
<linearGradient id="paint20_linear_324_4900" x1="115.414" y1="123.636" x2="114.043" y2="123.636" gradientUnits="userSpaceOnUse">
<stop stop-color="#29ABE2"/>
<stop offset="1" stop-color="#2A2B6D"/>
</linearGradient>
<linearGradient id="paint21_linear_324_4900" x1="78.6289" y1="116.981" x2="145.45" y2="116.981" gradientUnits="userSpaceOnUse">
<stop stop-color="#08C6FB"/>
<stop offset="1" stop-color="#08C6FB"/>
</linearGradient>
<linearGradient id="paint22_linear_324_4900" x1="174.417" y1="162.436" x2="158.758" y2="162.436" gradientUnits="userSpaceOnUse">
<stop stop-color="#29ABE2"/>
<stop offset="1" stop-color="#2A2B6D"/>
</linearGradient>
<clipPath id="clip0_324_4900">
<rect width="307" height="256" fill="white"/>
</clipPath>
</defs>
</svg>
