<svg width="320" height="271" viewBox="0 0 320 271" fill="none" xmlns="http://www.w3.org/2000/svg">
<g clip-path="url(#clip0_324_5181)">
<path d="M111.345 217.4L208.206 217.307C213.24 217.302 217.317 213.324 217.312 208.421L217.136 24.531C217.131 19.4983 212.938 15.4229 207.771 15.4277L111.392 15.5202C106.224 15.5251 102.039 19.6089 102.044 24.6414L102.221 208.531C102.226 213.434 106.311 217.405 111.345 217.4Z" fill="url(#paint0_linear_324_5181)"/>
<path d="M115.922 215.596L207.458 215.508C212.228 215.504 216.09 211.635 216.086 206.868L215.914 27.6469C215.909 22.7532 211.937 18.7904 207.041 18.7949L115.961 18.8824C111.066 18.8871 107.101 22.8578 107.106 27.7516L107.278 206.973C107.283 211.74 111.153 215.601 115.922 215.596Z" fill="url(#paint1_linear_324_5181)"/>
<path d="M115.323 37.7891H207.32V193.169H115.323V37.7891Z" fill="url(#paint2_radial_324_5181)"/>
<path d="M142.513 28.4844H179.219V31.1664H142.513V28.4844Z" fill="#7F9CE5"/>
<path d="M151.56 209.847L173.251 209.826C174.157 209.825 174.891 209.09 174.891 208.184L174.888 205.422C174.887 204.516 174.151 203.782 173.245 203.783L151.554 203.804C150.648 203.805 149.914 204.54 149.915 205.446L149.917 208.208C149.918 209.114 150.653 209.848 151.56 209.847Z" fill="#2A2B6D"/>
<path opacity="0.06" d="M115.263 48.1289L207.373 173.275L207.391 193.119L115.394 193.214L115.263 48.1289Z" fill="white"/>
<path d="M74.3987 204.033C75.3362 204.033 76.7422 203.635 76.7422 202.686L75.8408 134.003C75.8408 133.054 75.3358 132.543 74.3983 132.543C73.4606 132.543 72.9592 133.051 72.9592 134L72.0548 202.686C72.0549 203.635 73.461 204.033 74.3987 204.033Z" fill="url(#paint3_linear_324_5181)"/>
<path d="M70.5697 202.5H78.0785C79.8863 202.5 81.3516 203.962 81.3516 205.765V210.218H67.2965V205.765C67.2965 203.962 68.7619 202.5 70.5697 202.5Z" fill="url(#paint4_linear_324_5181)"/>
<path d="M54.0115 214.568H94.6585C95.3217 214.568 95.8594 215.105 95.8594 215.766V217.4H52.8107V215.766C52.8107 215.105 53.3482 214.568 54.0115 214.568Z" fill="url(#paint5_linear_324_5181)"/>
<path d="M58.514 207.996H90.1502C91.6896 207.996 92.9375 209.241 92.9375 210.776V214.568H55.7267V210.776C55.7267 209.241 56.9746 207.996 58.514 207.996Z" fill="url(#paint6_linear_324_5181)"/>
<path d="M71.7269 202.5H77.0704C77.2301 202.5 77.3594 202.371 77.3594 202.211V201.425C77.3594 201.266 77.2301 201.137 77.0704 201.137H71.7269C71.5673 201.137 71.438 201.266 71.438 201.425V202.211C71.438 202.371 71.5673 202.5 71.7269 202.5Z" fill="#FBAF32"/>
<path d="M72.0646 136.315H76.741C76.9099 136.315 77.0469 136.179 77.0469 136.01V135.178C77.0469 135.01 76.9101 134.873 76.7412 134.873H72.0647C71.8959 134.873 71.759 135.01 71.759 135.178V136.01C71.7589 136.179 71.8957 136.315 72.0646 136.315Z" fill="#FBAF32"/>
<path d="M130.023 163.765L112.006 133.974L111.684 133.441L111.377 133.977L94.2111 163.987L95.626 164.269L112.008 134.103L111.379 134.106L128.628 164.058L130.023 163.765Z" fill="url(#paint7_linear_324_5181)"/>
<path d="M131.191 162.66H93.4211C93.0083 162.66 92.8031 163.159 93.0991 163.446C96.8763 167.114 113.945 181.609 131.45 163.257C131.664 163.033 131.501 162.66 131.191 162.66Z" fill="url(#paint8_linear_324_5181)"/>
<path opacity="0.1" d="M93.4193 162.66H95.2101C99.9111 166.955 115.348 178.551 131.453 163.25C131.451 163.252 131.45 163.255 131.448 163.257C113.944 181.609 96.8743 167.115 93.0972 163.447C92.8013 163.159 93.0062 162.66 93.4193 162.66Z" fill="black"/>
<path d="M55.2422 163.765L37.2246 133.974L36.9025 133.441L36.5959 133.977L19.4299 163.987L20.8448 164.269L37.2265 134.103L36.5978 134.106L53.8466 164.058L55.2422 163.765Z" fill="url(#paint9_linear_324_5181)"/>
<path d="M56.2297 163H18.4602C18.0473 163 17.8424 163.499 18.1381 163.786C21.9154 167.454 38.9845 181.949 56.4886 163.597C56.7027 163.373 56.5401 163 56.2297 163Z" fill="url(#paint10_linear_324_5181)"/>
<path opacity="0.1" d="M18.4662 163H20.257C24.958 167.295 40.3949 178.89 56.5 163.589C56.4977 163.592 56.4969 163.595 56.4944 163.597C38.9905 181.949 21.9212 167.454 18.1441 163.786C17.8481 163.499 18.0533 163 18.4662 163Z" fill="black"/>
<path d="M54.3289 130.236C62.8404 127.126 72.2295 132.802 72.2295 132.802L74.4301 119.35L76.6309 132.802C76.6309 132.802 86.02 127.126 94.5316 130.236C103.043 133.347 111.555 133.658 111.555 133.658V134.902H74.4303H37.3059V133.658C37.3059 133.658 45.8173 133.347 54.3289 130.236Z" fill="url(#paint11_linear_324_5181)"/>
<path d="M111.752 135.436C110.89 135.436 110.191 134.739 110.191 133.879C110.191 133.019 110.89 132.322 111.752 132.322C112.614 132.322 113.312 133.019 113.312 133.879C113.312 134.739 112.614 135.436 111.752 135.436Z" fill="url(#paint12_linear_324_5181)"/>
<path d="M36.9939 135.436C36.1319 135.436 35.4331 134.739 35.4331 133.879C35.4331 133.019 36.1319 132.322 36.9939 132.322C37.8559 132.322 38.5547 133.019 38.5547 133.879C38.5547 134.739 37.8559 135.436 36.9939 135.436Z" fill="url(#paint13_linear_324_5181)"/>
<path d="M72.8081 120.387C72.8081 121.247 73.5069 121.944 74.3689 121.944C75.2308 121.944 75.9297 121.247 75.9297 120.387C75.9297 119.527 75.231 118.83 74.3689 118.83C73.5069 118.83 72.8081 119.527 72.8081 120.387Z" fill="url(#paint14_linear_324_5181)"/>
<path d="M72.8697 153.304H75.9206C76.5383 153.304 77.0391 152.804 77.0391 152.188V149.145C77.0391 148.529 76.5383 148.029 75.9206 148.029H72.8697C72.252 148.029 71.7512 148.529 71.7512 149.145V152.188C71.7512 152.804 72.252 153.304 72.8697 153.304Z" fill="#FBAF32"/>
<path d="M80.5984 82.6875H57.5886V84.2979H79.8877L90.4055 95.7681H111.797V94.1577H91.1163L80.5984 82.6875Z" fill="#BDBDDB"/>
<path d="M54.2202 86.2739C52.7233 84.7808 52.7233 82.3599 54.2202 80.8667C55.7171 79.3735 58.1442 79.3735 59.6411 80.8667C61.1381 82.3599 61.1381 84.7808 59.6411 86.2739C58.1442 87.7671 55.7171 87.7671 54.2202 86.2739Z" fill="#BDBDDB"/>
<path d="M58.9297 83.5694C58.9297 84.6692 58.0359 85.5607 56.9334 85.5607C55.8308 85.5607 54.937 84.6692 54.937 83.5694C54.937 82.4696 55.8308 81.5781 56.9334 81.5781C58.0359 81.5781 58.9297 82.4695 58.9297 83.5694Z" fill="#D2D2EA"/>
<path d="M96.6133 108.401H72.894V106.646H95.8805L106.723 94.1445H128.773V95.8997H107.455L96.6133 108.401Z" fill="#BDBDDB"/>
<path d="M69.224 110.382C67.5925 108.755 67.5925 106.116 69.224 104.489C70.8554 102.862 73.5005 102.862 75.132 104.489C76.7634 106.116 76.7634 108.755 75.1319 110.382C73.5005 112.009 70.8554 112.009 69.224 110.382Z" fill="#BDBDDB"/>
<path d="M74.3516 107.434C74.3516 106.235 73.3774 105.264 72.1757 105.264C70.974 105.264 69.9998 106.235 69.9998 107.434C69.9998 108.633 70.974 109.604 72.1757 109.604C73.3774 109.604 74.3516 108.633 74.3516 107.434Z" fill="#D2D2EA"/>
<path d="M80.0469 99.7766C80.0469 100.775 79.2354 101.585 78.2344 101.585C77.2335 101.585 76.422 100.775 76.422 99.7766C76.422 98.7782 77.2335 97.9688 78.2344 97.9688C79.2354 97.9688 80.0469 98.7782 80.0469 99.7766Z" fill="#BDBDDB"/>
<path d="M85.7422 99.7766C85.7422 100.775 84.9307 101.585 83.9297 101.585C82.9288 101.585 82.1173 100.775 82.1173 99.7766C82.1173 98.7782 82.9288 97.9688 83.9297 97.9688C84.9309 97.9688 85.7422 98.7782 85.7422 99.7766Z" fill="#BDBDDB"/>
<path d="M91.4375 99.7766C91.4375 100.775 90.626 101.585 89.625 101.585C88.6241 101.585 87.8126 100.775 87.8126 99.7766C87.8126 98.7782 88.6241 97.9688 89.625 97.9688C90.626 97.9688 91.4375 98.7782 91.4375 99.7766Z" fill="#BDBDDB"/>
<path d="M250.526 70.4753L250.531 68.513L216.946 68.1816L216.941 70.1439L250.526 70.4753Z" fill="#BDBDDB"/>
<path d="M249.453 73.8006C247.07 72.8159 245.938 70.0904 246.925 67.7131C247.913 65.3358 250.645 64.2069 253.028 65.1916C255.412 66.1763 256.543 68.9018 255.556 71.2791C254.569 73.6564 251.837 74.7853 249.453 73.8006Z" fill="#BDBDDB"/>
<path d="M248.806 69.495C248.806 70.8352 249.895 71.9216 251.239 71.9216C252.583 71.9216 253.672 70.8352 253.672 69.495C253.672 68.1548 252.583 67.0684 251.239 67.0684C249.895 67.0684 248.806 68.1548 248.806 69.495Z" fill="#D2D2EA"/>
<path d="M235.214 85.8353H260.07V83.6686H235.982L224.621 68.2344H201.513V70.4013H223.853L235.214 85.8353Z" fill="#BDBDDB"/>
<path d="M259.766 89.6401C256.994 88.9872 255.277 86.2162 255.932 83.451C256.586 80.6857 259.364 78.9734 262.137 79.6263C264.909 80.2793 266.626 83.0503 265.971 85.8155C265.316 88.5808 262.538 90.2931 259.766 89.6401Z" fill="#BDBDDB"/>
<path d="M258.469 85.671C257.901 84.3037 258.552 82.7362 259.923 82.1699C261.294 81.6035 262.865 82.2528 263.433 83.62C264.001 84.9873 263.35 86.5548 261.979 87.1212C260.608 87.6875 259.037 87.0383 258.469 85.671Z" fill="#D2D2EA"/>
<path d="M189.121 70.2943C188.782 70.2943 188.507 70.0202 188.507 69.682V59.9814C188.507 59.6433 188.782 59.3691 189.121 59.3691C189.46 59.3691 189.734 59.6433 189.734 59.9814V69.682C189.734 70.0202 189.46 70.2943 189.121 70.2943Z" fill="#DCDCEF"/>
<path d="M190.375 59.3691C190.375 60.0595 189.814 60.6191 189.122 60.6191C188.43 60.6191 187.869 60.0595 187.869 59.3691C187.869 58.6788 188.43 58.1191 189.122 58.1191C189.814 58.1191 190.375 58.6788 190.375 59.3691Z" fill="#003340"/>
<path d="M130.246 70.2943C129.907 70.2943 129.632 70.0202 129.632 69.682V59.9814C129.632 59.6433 129.907 59.3691 130.246 59.3691C130.585 59.3691 130.859 59.6433 130.859 59.9814V69.682C130.859 70.0202 130.585 70.2943 130.246 70.2943Z" fill="#DCDCEF"/>
<path d="M131.5 59.3691C131.5 60.0595 130.939 60.6191 130.247 60.6191C129.555 60.6191 128.994 60.0595 128.994 59.3691C128.994 58.6788 129.555 58.1191 130.247 58.1191C130.939 58.1191 131.5 58.6788 131.5 59.3691Z" fill="#003340"/>
<path d="M131.178 80.2979C128.472 80.2979 126.279 77.409 126.279 73.8453C126.279 70.2815 128.472 67.3926 131.178 67.3926C133.884 67.3926 136.078 70.2815 136.078 73.8453C136.078 77.409 133.884 80.2979 131.178 80.2979Z" fill="#003340"/>
<path d="M188.194 80.2979C185.488 80.2979 183.294 77.409 183.294 73.8453C183.294 70.2815 185.488 67.3926 188.194 67.3926C190.9 67.3926 193.094 70.2815 193.094 73.8453C193.094 77.409 190.9 80.2979 188.194 80.2979Z" fill="#003340"/>
<path d="M159.687 95.6725C143.429 95.6725 130.25 86.3224 130.25 74.7884C130.25 63.2544 143.429 53.9043 159.687 53.9043C175.945 53.9043 189.125 63.2544 189.125 74.7884C189.125 86.3224 175.945 95.6725 159.687 95.6725Z" fill="#DCDCEF"/>
<path d="M180.376 59.9355C184.148 63.446 186.391 67.827 186.391 72.5817C186.391 84.1161 173.212 93.4662 156.954 93.4662C148.888 93.4662 141.582 91.1628 136.265 87.4351C141.643 92.4403 150.131 95.673 159.687 95.673C175.945 95.673 189.125 86.3229 189.125 74.7886C189.125 68.9769 185.776 63.722 180.376 59.9355Z" fill="#BDBDDB"/>
<path d="M159.683 90.3834C147.542 90.3834 137.701 84.7103 137.701 77.7122C137.701 70.7141 147.542 65.041 159.683 65.041C171.823 65.041 181.664 70.7141 181.664 77.7122C181.664 84.7103 171.823 90.3834 159.683 90.3834Z" fill="#1C3766"/>
<path d="M163.836 54.5858C163.836 55.2605 161.977 55.8076 159.683 55.8076C157.389 55.8076 155.53 55.2607 155.53 54.5858C155.53 53.911 157.392 53.7363 159.686 53.7363C161.98 53.7362 163.836 53.9109 163.836 54.5858Z" fill="#2A354F"/>
<path d="M149.26 78.6565C147.864 78.6565 146.732 76.9251 146.732 74.7892C146.732 72.6533 147.864 70.9219 149.26 70.9219C150.657 70.9219 151.789 72.6533 151.789 74.7892C151.789 76.9251 150.657 78.6565 149.26 78.6565Z" fill="#59FFFF"/>
<path d="M170.495 78.6565C169.098 78.6565 167.966 76.9251 167.966 74.7892C167.966 72.6533 169.098 70.9219 170.495 70.9219C171.891 70.9219 173.023 72.6533 173.023 74.7892C173.023 76.9251 171.891 78.6565 170.495 78.6565Z" fill="#59FFFF"/>
<path d="M163.349 86.044H156.02C155.764 86.044 155.557 85.8371 155.557 85.5816C155.557 85.326 155.764 85.1191 156.02 85.1191H163.349C163.605 85.1191 163.812 85.326 163.812 85.5816C163.812 85.8373 163.605 86.044 163.349 86.044Z" fill="#59FFFF"/>
<path d="M131.9 122.139C131.9 140.317 144.342 157.677 159.689 157.677C175.035 157.677 187.477 140.317 187.477 122.139C187.477 103.962 175.035 97.0898 159.689 97.0898C144.342 97.0898 131.9 103.962 131.9 122.139Z" fill="#DCDCEF"/>
<path d="M159.122 157.658C144.035 157.239 131.895 140.093 131.895 122.139C131.895 103.962 144.337 97.0898 159.683 97.0898C166.662 97.0898 173.034 98.517 177.914 101.775C176.572 106.442 171.97 115.569 156.664 113.575C137.328 111.057 124.792 127.803 159.122 157.658Z" fill="#BDBDDB"/>
<path d="M162.675 135.242H156.703C153.313 135.242 150.565 132.501 150.565 129.119V120.77H168.812V129.119C168.812 132.501 166.065 135.242 162.675 135.242Z" fill="#003340"/>
<path d="M165.565 127.297H153.81C153.552 127.297 153.344 127.089 153.344 126.833V125.565C153.344 125.308 153.552 125.1 153.81 125.1H165.565C165.823 125.1 166.031 125.308 166.031 125.565V126.833C166.031 127.089 165.823 127.297 165.565 127.297Z" fill="#59FFFF"/>
<path d="M129.289 212.205C126.437 212.205 124.125 205.91 124.125 198.145C124.125 190.379 126.437 184.084 129.289 184.084C132.141 184.084 134.453 190.379 134.453 198.145C134.453 205.91 132.141 212.205 129.289 212.205Z" fill="url(#paint15_linear_324_5181)"/>
<path d="M129.289 212.205H122.125V184.084H129.289V212.205Z" fill="url(#paint16_linear_324_5181)"/>
<path d="M122.125 212.205C119.273 212.205 116.961 205.91 116.961 198.145C116.961 190.379 119.273 184.084 122.125 184.084C124.977 184.084 127.289 190.379 127.289 198.145C127.289 205.91 124.977 212.205 122.125 212.205Z" fill="url(#paint17_linear_324_5181)"/>
<path d="M121.149 186.869H96.6783V209.422H121.149C123.461 209.422 125.336 204.373 125.336 198.146C125.336 191.918 123.461 186.869 121.149 186.869Z" fill="url(#paint18_linear_324_5181)"/>
<path d="M96.6821 201.635V209.421H121.153C123.012 209.421 124.587 206.153 125.133 201.635H96.6821Z" fill="url(#paint19_linear_324_5181)"/>
<path d="M97.1876 212.205C94.3357 212.205 92.0237 205.91 92.0237 198.144C92.0237 190.379 94.3357 184.084 97.1876 184.084C100.04 184.084 102.352 190.379 102.352 198.144C102.352 205.91 100.04 212.205 97.1876 212.205Z" fill="url(#paint20_linear_324_5181)"/>
<path d="M97.1801 212.205H90.0156V184.084H97.1801V212.205Z" fill="url(#paint21_linear_324_5181)"/>
<path d="M90.0236 212.205C87.1716 212.205 84.8596 205.91 84.8596 198.144C84.8596 190.379 87.1716 184.084 90.0236 184.084C92.8755 184.084 95.1875 190.379 95.1875 198.144C95.1875 205.91 92.8755 212.205 90.0236 212.205Z" fill="url(#paint22_linear_324_5181)"/>
<path d="M89.0396 209.422C86.7271 209.422 84.8525 204.373 84.8525 198.145C84.8525 191.918 86.7271 186.869 89.0396 186.869C91.352 186.869 93.2266 191.918 93.2266 198.145C93.2266 204.373 91.352 209.422 89.0396 209.422Z" fill="url(#paint23_linear_324_5181)"/>
<path d="M140.266 217.403H80.2519V215.496C80.2519 214.724 80.8795 214.098 81.6535 214.098H138.864C139.638 214.098 140.265 214.724 140.265 215.496L140.266 217.403Z" fill="url(#paint24_linear_324_5181)"/>
<path d="M135.077 212.217H85.4515C85.011 212.217 84.6539 212.573 84.6539 213.012V214.097H135.875V213.012C135.875 212.573 135.518 212.217 135.077 212.217Z" fill="url(#paint25_linear_324_5181)"/>
<path d="M210.629 195.991C211.353 198.03 219.73 203.392 223.235 198.892C229.298 188.304 235.981 173.576 241.983 163.089C243.236 160.901 241.118 152.336 240.741 151.358C240.242 150.064 231.315 151.472 229.759 153.785C221.674 165.805 216.12 177.803 214.007 183.064C211.977 188.121 209.904 193.951 210.629 195.991Z" fill="#37A6FF"/>
<path d="M249.582 145.243C248.462 147.448 246.615 149.084 250.014 150.99C252.322 152.284 254.846 152.475 257.167 151.615C260.009 150.562 262.635 148.927 264.815 146.824C265.434 146.227 265.624 145.552 265.919 144.745C266.629 142.802 265.049 141.654 264.892 139.842C264.424 134.437 263.761 128.77 264.148 123.295C264.188 122.707 264.213 122.059 264.437 121.506C264.341 121.348 264.208 121.207 263.993 121.11C263.31 120.799 262.416 120.931 261.716 121.098C260.889 121.295 260.097 121.611 259.286 121.862C257.351 122.461 255.437 123.222 253.662 124.201C251.928 125.159 250.464 126.432 248.948 127.687C248.445 128.103 247.883 128.455 247.444 128.946C247.282 129.127 247.08 129.365 247.078 129.622C247.077 129.971 247.468 130.18 247.652 130.43C248.879 132.094 249.372 134.662 249.736 136.722C250.142 139.014 250.468 141.365 250.099 143.685C250.006 144.272 249.819 144.778 249.582 145.243Z" fill="#FCC2B4"/>
<path d="M249.597 145.225C258.703 148.394 263.294 143.077 264.734 138.036C264.45 134.9 264.154 131.697 264.067 128.508L262.881 128.393L247.107 129.494C247.096 129.538 247.083 129.581 247.082 129.626C247.081 129.975 247.472 130.184 247.656 130.434C248.883 132.098 249.377 134.666 249.741 136.726C250.146 139.018 250.472 141.369 250.103 143.689C250.011 144.268 249.828 144.765 249.597 145.225Z" fill="#FBA896"/>
<path d="M234.84 195.877C234.84 195.877 236.032 193.072 234.748 192.887C234.239 186.168 232.246 164.275 236.039 153.652C240.219 151.523 246.365 148.189 246.365 148.189L249.477 145.085C249.477 145.085 258.33 158.076 266.108 143.076L269.959 146.12C269.959 146.12 279.58 149.199 290.729 159.285C290.729 159.285 293.635 189.242 284.82 199.069C284.82 199.069 281.978 201.293 277.926 201.034C277.926 201.034 277.824 212.962 279.78 217.4H231.142C232.28 212.252 233.83 207.303 235.825 205.209L234.84 195.877Z" fill="#F1F0F7"/>
<path opacity="0.05" d="M291.187 170.759C291.155 180.303 290.054 193.234 284.82 199.069C284.82 199.069 283.71 199.938 281.888 200.526C280.795 200.879 279.446 201.131 277.926 201.034C277.926 201.034 277.824 212.962 279.779 217.401H257.657C260.479 200.234 259.228 177.845 259.228 177.845C264.103 168.887 260.873 154.038 259.825 149.889C259.88 149.867 259.935 149.836 259.99 149.812C260.138 149.751 260.287 149.682 260.436 149.607C260.54 149.555 260.643 149.5 260.747 149.441C260.895 149.358 261.043 149.266 261.191 149.169C261.297 149.099 261.403 149.028 261.51 148.951C261.657 148.845 261.806 148.728 261.954 148.607C262.062 148.518 262.169 148.431 262.277 148.335C262.425 148.203 262.573 148.058 262.722 147.911C262.83 147.804 262.938 147.7 263.047 147.584C263.196 147.424 263.346 147.248 263.495 147.072C263.602 146.946 263.709 146.825 263.817 146.69C263.97 146.497 264.123 146.284 264.276 146.072C264.379 145.93 264.483 145.796 264.586 145.645C264.753 145.399 264.92 145.129 265.087 144.86C265.175 144.72 265.262 144.591 265.349 144.444C265.6 144.022 265.849 143.575 266.097 143.097C266.101 143.09 266.105 143.084 266.108 143.076L268.034 144.598L269.959 146.12C269.959 146.12 272.364 146.889 276.163 148.92C279.012 150.443 282.645 152.675 286.636 155.823C287.966 156.873 289.335 158.024 290.729 159.285C290.729 159.285 291.208 164.229 291.187 170.759Z" fill="#231F20"/>
<path d="M232.792 197.395C232.792 197.395 229.601 161.603 235.259 151.268C238.863 150.017 243.579 148.849 245.5 148.393C247.899 158.525 244.626 196.7 242.593 217.4H230.265C231.319 212.241 231.753 207.151 232.218 204.302L232.792 197.395Z" fill="#37A6FF"/>
<path d="M279.719 203.015C279.719 203.015 279.556 213.877 282.148 216.98C282.244 217.095 282.333 217.255 282.424 217.4H264.195C261.16 187.37 269.963 146.119 269.963 146.119C269.963 146.119 278.448 147.658 287.934 154.552C290.866 156.682 292.604 160.074 292.583 163.692C292.527 173.441 296.343 192.831 289.762 200.168C289.762 200.168 283.771 203.273 279.719 203.015Z" fill="#37A6FF"/>
<path d="M277.975 204.3C276.863 194.134 278.069 176.285 278.069 176.285L281.099 203.024C280.667 203.045 280.209 203.045 279.717 203.014C279.717 203.014 279.554 213.875 282.147 216.979C282.243 217.094 282.331 217.254 282.422 217.398H276.085C277.299 214.712 278.625 210.252 277.975 204.3Z" fill="#0372CE"/>
<path d="M251.942 144.455C242.214 142.152 241.47 135.97 242.207 130.246C242.663 126.707 241.454 122.197 241.38 118.378C241.516 114.96 242.581 112.105 246.456 111.196C254.459 109.318 271.421 108.397 267.602 124.011C267.602 124.011 272.145 122.33 272.233 127.992C272.321 133.655 268.287 134.298 267.124 134.696C267.124 134.696 261.671 146.757 251.942 144.455Z" fill="#FCC2B4"/>
<path d="M241.671 121.908C241.671 121.908 243.087 117.221 249.66 118.105C256.233 118.99 256.57 122.801 263.76 119.834C263.76 119.834 264.26 124.44 266.68 126.297C269.1 128.153 273.597 115.246 270.176 113.875C266.754 112.505 241.342 110.791 241.671 121.908Z" fill="#FBA896"/>
<path d="M249.126 137.215C249.09 137.317 249.435 137.565 250.089 137.736C250.414 137.823 250.815 137.875 251.262 137.881C251.709 137.879 252.202 137.826 252.704 137.698C253.204 137.564 253.66 137.368 254.05 137.152C254.437 136.927 254.761 136.686 255.001 136.45C255.5 135.97 255.658 135.603 255.585 135.525C255.501 135.434 255.153 135.682 254.64 135.976C254.379 136.132 254.059 136.296 253.699 136.46C253.335 136.615 252.929 136.764 252.489 136.883C252.049 136.995 251.621 137.063 251.228 137.106C250.834 137.14 250.474 137.154 250.17 137.146C249.562 137.137 249.165 137.098 249.126 137.215Z" fill="#FBA896"/>
<path d="M250.955 135.143C250.949 135.024 250.532 134.97 250.251 134.476C250.107 134.231 250.024 133.936 250.053 133.554C250.074 133.176 250.202 132.744 250.356 132.256C250.968 130.286 251.284 128.631 251.062 128.563C250.839 128.494 250.161 130.036 249.549 132.007C249.395 132.501 249.256 133.028 249.275 133.549C249.284 133.812 249.329 134.05 249.422 134.288C249.516 134.514 249.643 134.697 249.783 134.844C250.062 135.139 250.395 135.266 250.621 135.268C250.85 135.273 250.959 135.196 250.955 135.143Z" fill="#FBA896"/>
<path d="M253.222 124.716C253.305 124.806 253.635 124.622 254.162 124.404C254.69 124.184 255.42 123.949 256.277 123.918C257.097 123.889 257.869 124.071 258.404 124.254C258.676 124.348 258.898 124.424 259.056 124.478C259.22 124.53 259.329 124.546 259.363 124.498C259.396 124.452 259.36 124.351 259.247 124.211C259.129 124.067 258.937 123.894 258.666 123.718C258.126 123.367 257.258 123.04 256.229 123.077C255.237 123.112 254.367 123.5 253.863 123.889C253.346 124.279 253.147 124.637 253.222 124.716Z" fill="#3B4159"/>
<path d="M248.441 125.132C248.51 125.048 248.287 124.705 247.744 124.352C247.214 124 246.319 123.675 245.327 123.71C244.297 123.745 243.454 124.133 242.942 124.522C242.683 124.716 242.504 124.902 242.397 125.054C242.294 125.202 242.265 125.305 242.301 125.349C242.339 125.395 242.447 125.371 242.606 125.307C242.76 125.242 242.976 125.15 243.24 125.037C243.761 124.817 244.518 124.581 245.338 124.552C246.195 124.522 246.94 124.705 247.483 124.887C248.023 125.067 248.365 125.228 248.441 125.132Z" fill="#3B4159"/>
<path d="M254.806 127.847C254.716 128.758 255.215 129.58 255.919 129.683C256.623 129.786 257.267 129.13 257.357 128.219C257.446 127.308 256.948 126.486 256.244 126.384C255.539 126.281 254.896 126.936 254.806 127.847Z" fill="#3B4159"/>
<path d="M244.745 129.081C244.684 129.994 245.154 130.803 245.795 130.888C246.436 130.973 247.004 130.301 247.065 129.388C247.126 128.475 246.655 127.666 246.014 127.581C245.374 127.497 244.805 128.168 244.745 129.081Z" fill="#3B4159"/>
<path d="M266.796 117.506C266.796 117.506 261.838 118.573 256.938 117.81C252.038 117.048 242.695 113.999 241.588 122.414C241.588 122.414 232.997 119.552 232.917 109.042C232.917 109.042 236.052 110.093 237.447 112.18C237.447 112.18 231.485 103.201 235.847 96.584C235.847 96.584 239.567 102.438 248.919 100.334C258.271 98.2302 270.885 98.4588 270.745 106.511C270.745 106.511 283.161 107.296 272.17 126.486C272.17 126.486 266.978 130.781 266.133 127.614C265.288 124.448 265.2 119.181 266.796 117.506Z" fill="#3F3C51"/>
<path d="M256.649 110.745C251.911 110.985 246.917 108.879 246.917 108.879C246.749 110.546 250.903 113.226 250.903 113.226C250.903 113.226 248.289 111.847 241.904 115.195C238.436 117.013 236.17 116.96 234.817 116.535C237.369 121.003 241.594 122.416 241.594 122.416C242.7 114.001 252.044 117.05 256.944 117.813C261.843 118.575 266.801 117.508 266.801 117.508C265.206 119.184 265.293 124.45 266.139 127.617C266.984 130.783 272.176 126.488 272.176 126.488C273.888 123.499 275.031 120.958 275.742 118.795C272.808 111.8 261.003 110.523 256.649 110.745Z" fill="#312F3D"/>
<path d="M272.233 127.992C272.178 124.453 270.383 123.783 269.044 123.777C268.202 123.774 267.789 125.074 267.611 125.894C266.468 131.145 267.124 134.696 267.124 134.696C268.287 134.298 272.321 133.655 272.233 127.992Z" fill="#FCC2B4"/>
<path d="M270.469 126.586C270.99 127.912 270.739 129.401 270.477 130.761C270.399 131.166 270.31 131.593 270.058 131.864C269.806 132.135 269.334 132.153 269.128 131.79C268.93 131.44 269.084 131.001 269.201 130.629C269.318 130.256 269.336 129.716 269.022 129.528C268.876 129.44 268.705 129.469 268.554 129.396C268.226 129.238 268.153 128.717 268.172 128.306C268.198 127.737 268.29 127.179 268.445 126.653C268.597 126.136 268.876 125.593 269.338 125.55C269.822 125.504 270.253 126.038 270.469 126.586Z" fill="url(#paint26_linear_324_5181)"/>
<path d="M251.322 101.874C264.499 98.4817 269.062 103.837 270.749 106.511C270.89 98.4588 258.275 98.2304 248.923 100.334C239.571 102.438 235.851 96.584 235.851 96.584C235.851 96.584 238.145 105.266 251.322 101.874Z" fill="#585075"/>
<path d="M192.561 162.629C192.952 163.465 198.15 162.985 198.981 161.868C199.37 161.346 199.909 160.333 200.448 159.207C211.978 177.481 218.447 184.213 222.494 190.308C228.027 201.307 213.758 206.337 207.282 193.887C205.798 191.034 194.057 166.227 191.088 159.95C191.779 161.195 192.38 162.243 192.561 162.629Z" fill="#FCC2B4"/>
<path d="M199.757 152.79C199.757 152.79 194.024 139.435 193.307 137.683C192.591 135.93 190.466 136.249 191.157 138.181C191.847 140.113 195.597 152.423 196.044 154C196.492 155.577 200.272 154.775 199.757 152.79Z" fill="#FCC2B4"/>
<path d="M198.985 161.866C199.816 160.75 201.342 157.378 202.082 155.459C202.821 153.54 201.102 149.818 197.35 150.37C193.597 150.921 187.846 153.157 188.827 155.504C189.809 157.851 192.173 161.791 192.565 162.627C192.956 163.463 198.154 162.983 198.985 161.866Z" fill="#FCC2B4"/>
<path d="M202.001 155.735C202.001 155.735 202.529 154.126 202.968 152.941C203.182 152.365 202.952 152.019 202.356 149.995C201.76 147.971 201.22 146.68 201.22 146.68C201.22 146.68 195.839 147.296 194.92 147.429C194 147.563 194.476 150.155 197.273 150.208L198.769 150.405C198.769 150.405 197.595 152.604 198.032 154.741C198.47 156.879 201.303 157.49 202.001 155.735Z" fill="#FCC2B4"/>
<path d="M190.827 145.814C191.498 145.029 192.549 144.949 193.341 145.21C194.05 145.445 195.309 151.363 195.798 153.113C196.263 154.543 193.966 155.902 193.183 153.664C192.399 151.425 190.395 146.317 190.827 145.814Z" fill="#FBA896"/>
<path d="M188.363 147.744C188.451 146.868 190.288 146.591 190.877 147.14C191.377 147.607 193.227 153.856 193.743 155.28C193.991 156.047 192.109 157.552 191.326 155.313C190.543 153.075 188.303 148.344 188.363 147.744Z" fill="#FBA896"/>
<path d="M186.547 150.129C186.687 149.168 187.99 148.819 188.659 149.362C189.133 149.748 190.981 154.41 191.313 155.793C191.655 156.561 190.527 157.871 189.453 155.932C188.378 153.992 186.471 150.655 186.547 150.129Z" fill="#FBA896"/>
<path d="M196.48 150.126C196.491 150.054 196.562 150.004 196.638 150.013L198.969 150.297L198.894 150.455C197.238 153.97 198.575 155.648 198.588 155.665C198.635 155.721 198.624 155.803 198.563 155.848C198.545 155.862 198.524 155.871 198.503 155.875C198.454 155.884 198.401 155.868 198.368 155.829C198.309 155.758 196.95 154.076 198.567 150.513L196.596 150.272C196.52 150.263 196.468 150.197 196.48 150.126Z" fill="#BA6549"/>
<path d="M260.148 196.79L233.827 192.949L209.537 158.643L235.503 162.027L260.148 196.79Z" fill="#E8E7F2"/>
<path d="M256.148 189.368L254.666 188.523C254.666 188.523 243.549 189.896 235.291 179.758C235.291 179.758 237.655 180.11 243.302 183.419L243.02 182.785C243.02 182.785 235.538 179.265 233.561 177.012C233.561 177.012 236.173 176.871 236.949 177.364C237.585 177.767 242.479 180.012 244.232 180.812C244.62 180.989 244.855 181.095 244.855 181.095C244.855 181.095 244.92 180.943 244.441 180.702C242.482 179.718 237.079 177.169 236.455 176.66C235.679 176.026 234.62 174.759 234.62 174.759C234.62 174.759 235.044 174.266 238.855 175.815C242.667 177.364 247.396 178.49 248.384 178.068C248.384 178.068 247.255 176.73 246.266 176.308C245.278 175.885 244.22 173.914 244.22 173.914C244.22 173.914 250.925 175.252 252.548 176.871C254.172 178.49 258.336 182.996 258.336 182.996L256.148 189.368Z" fill="#FCC2B4"/>
<path d="M281.032 203.155C266.268 195.956 256.934 191.985 252.314 187.331C250.333 185.332 253.794 181.37 256.367 182.398C256.367 182.398 272.351 185.851 284.963 192.299C285.328 193.373 282.218 202.585 281.032 203.155Z" fill="#FCC2B4"/>
<path d="M285.164 192.409C282.162 191.107 278.869 192.484 277.807 195.471C276.747 198.466 278.322 201.94 281.321 203.239C284.325 204.538 287.619 203.172 288.676 200.179C289.738 197.192 288.166 193.71 285.164 192.409Z" fill="#FCC2B4"/>
<path d="M41.8441 224.223H297.492C299.442 224.223 301.023 222.646 301.023 220.701C301.023 218.755 299.442 217.178 297.492 217.178H41.8441C39.8936 217.178 38.3124 218.755 38.3124 220.701C38.3126 222.646 39.8938 224.223 41.8441 224.223Z" fill="url(#paint27_linear_324_5181)"/>
</g>
<defs>
<linearGradient id="paint0_linear_324_5181" x1="102.044" y1="74.6264" x2="217.313" y2="74.6264" gradientUnits="userSpaceOnUse">
<stop stop-color="#6DD3F4"/>
<stop offset="1" stop-color="#46A6EA"/>
</linearGradient>
<linearGradient id="paint1_linear_324_5181" x1="110.614" y1="239.078" x2="244.976" y2="185.358" gradientUnits="userSpaceOnUse">
<stop stop-color="#348AE8"/>
<stop offset="1" stop-color="#89E8F7"/>
</linearGradient>
<radialGradient id="paint2_radial_324_5181" cx="0" cy="0" r="1" gradientUnits="userSpaceOnUse" gradientTransform="translate(161.322 97.3067) rotate(90) scale(142.442 84.3367)">
<stop offset="0.110596" stop-color="#57D0F3"/>
<stop offset="1" stop-color="#1748E9"/>
</radialGradient>
<linearGradient id="paint3_linear_324_5181" x1="72.0548" y1="153.497" x2="76.7422" y2="153.497" gradientUnits="userSpaceOnUse">
<stop stop-color="#6CD1F4"/>
<stop offset="1" stop-color="#62A4FF"/>
</linearGradient>
<linearGradient id="paint4_linear_324_5181" x1="67.2965" y1="204.762" x2="81.3516" y2="204.762" gradientUnits="userSpaceOnUse">
<stop stop-color="#6CD1F4"/>
<stop offset="1" stop-color="#62A4FF"/>
</linearGradient>
<linearGradient id="paint5_linear_324_5181" x1="52.8107" y1="215.398" x2="95.8594" y2="215.398" gradientUnits="userSpaceOnUse">
<stop stop-color="#6CD1F4"/>
<stop offset="1" stop-color="#62A4FF"/>
</linearGradient>
<linearGradient id="paint6_linear_324_5181" x1="55.7267" y1="209.922" x2="92.9375" y2="209.922" gradientUnits="userSpaceOnUse">
<stop stop-color="#6CD1F4"/>
<stop offset="1" stop-color="#62A4FF"/>
</linearGradient>
<linearGradient id="paint7_linear_324_5181" x1="94.2111" y1="142.477" x2="130.023" y2="142.477" gradientUnits="userSpaceOnUse">
<stop stop-color="#6CD1F4"/>
<stop offset="1" stop-color="#62A4FF"/>
</linearGradient>
<linearGradient id="paint8_linear_324_5181" x1="92.9592" y1="165.5" x2="131.547" y2="165.5" gradientUnits="userSpaceOnUse">
<stop stop-color="#6CD1F4"/>
<stop offset="1" stop-color="#62A4FF"/>
</linearGradient>
<linearGradient id="paint9_linear_324_5181" x1="19.4299" y1="142.477" x2="55.2422" y2="142.477" gradientUnits="userSpaceOnUse">
<stop stop-color="#6CD1F4"/>
<stop offset="1" stop-color="#62A4FF"/>
</linearGradient>
<linearGradient id="paint10_linear_324_5181" x1="17.9984" y1="165.84" x2="56.5859" y2="165.84" gradientUnits="userSpaceOnUse">
<stop stop-color="#6CD1F4"/>
<stop offset="1" stop-color="#62A4FF"/>
</linearGradient>
<linearGradient id="paint11_linear_324_5181" x1="37.3059" y1="123.908" x2="111.555" y2="123.908" gradientUnits="userSpaceOnUse">
<stop stop-color="#6CD1F4"/>
<stop offset="1" stop-color="#62A4FF"/>
</linearGradient>
<linearGradient id="paint12_linear_324_5181" x1="110.191" y1="133.235" x2="113.313" y2="133.235" gradientUnits="userSpaceOnUse">
<stop stop-color="#6CD1F4"/>
<stop offset="1" stop-color="#62A4FF"/>
</linearGradient>
<linearGradient id="paint13_linear_324_5181" x1="35.4331" y1="133.235" x2="38.5547" y2="133.235" gradientUnits="userSpaceOnUse">
<stop stop-color="#6CD1F4"/>
<stop offset="1" stop-color="#62A4FF"/>
</linearGradient>
<linearGradient id="paint14_linear_324_5181" x1="72.8081" y1="119.743" x2="75.9297" y2="119.743" gradientUnits="userSpaceOnUse">
<stop stop-color="#6CD1F4"/>
<stop offset="1" stop-color="#62A4FF"/>
</linearGradient>
<linearGradient id="paint15_linear_324_5181" x1="124.125" y1="192.326" x2="134.453" y2="192.326" gradientUnits="userSpaceOnUse">
<stop stop-color="#6CD1F4"/>
<stop offset="1" stop-color="#62A4FF"/>
</linearGradient>
<linearGradient id="paint16_linear_324_5181" x1="129.289" y1="203.963" x2="122.125" y2="203.963" gradientUnits="userSpaceOnUse">
<stop stop-color="#6CD1F4"/>
<stop offset="1" stop-color="#62A4FF"/>
</linearGradient>
<linearGradient id="paint17_linear_324_5181" x1="116.961" y1="192.326" x2="127.289" y2="192.326" gradientUnits="userSpaceOnUse">
<stop stop-color="#6CD1F4"/>
<stop offset="1" stop-color="#62A4FF"/>
</linearGradient>
<linearGradient id="paint18_linear_324_5181" x1="97.6008" y1="212.113" x2="119.852" y2="191.699" gradientUnits="userSpaceOnUse">
<stop stop-color="#64AAFE"/>
<stop offset="1" stop-color="#6AC8F6"/>
</linearGradient>
<linearGradient id="paint19_linear_324_5181" x1="96.6821" y1="203.917" x2="125.133" y2="203.917" gradientUnits="userSpaceOnUse">
<stop stop-color="#6CD1F4"/>
<stop offset="1" stop-color="#62A4FF"/>
</linearGradient>
<linearGradient id="paint20_linear_324_5181" x1="92.0237" y1="192.326" x2="102.352" y2="192.326" gradientUnits="userSpaceOnUse">
<stop stop-color="#6CD1F4"/>
<stop offset="1" stop-color="#62A4FF"/>
</linearGradient>
<linearGradient id="paint21_linear_324_5181" x1="97.1801" y1="203.962" x2="90.0156" y2="203.962" gradientUnits="userSpaceOnUse">
<stop stop-color="#6CD1F4"/>
<stop offset="1" stop-color="#62A4FF"/>
</linearGradient>
<linearGradient id="paint22_linear_324_5181" x1="84.8596" y1="192.326" x2="95.1875" y2="192.326" gradientUnits="userSpaceOnUse">
<stop stop-color="#6CD1F4"/>
<stop offset="1" stop-color="#62A4FF"/>
</linearGradient>
<linearGradient id="paint23_linear_324_5181" x1="85.1221" y1="212.113" x2="96.2939" y2="209.118" gradientUnits="userSpaceOnUse">
<stop stop-color="#64AAFE"/>
<stop offset="1" stop-color="#6AC8F6"/>
</linearGradient>
<linearGradient id="paint24_linear_324_5181" x1="80.2519" y1="215.066" x2="140.266" y2="215.066" gradientUnits="userSpaceOnUse">
<stop stop-color="#6CD1F4"/>
<stop offset="1" stop-color="#62A4FF"/>
</linearGradient>
<linearGradient id="paint25_linear_324_5181" x1="86.3027" y1="214.322" x2="86.4916" y2="210.607" gradientUnits="userSpaceOnUse">
<stop stop-color="#64AAFE"/>
<stop offset="1" stop-color="#6AC8F6"/>
</linearGradient>
<linearGradient id="paint26_linear_324_5181" x1="268.633" y1="129.567" x2="270.501" y2="128.373" gradientUnits="userSpaceOnUse">
<stop stop-color="#F69D7D"/>
<stop offset="1" stop-color="#F69D7D"/>
</linearGradient>
<linearGradient id="paint27_linear_324_5181" x1="38.3124" y1="219.243" x2="301.023" y2="219.243" gradientUnits="userSpaceOnUse">
<stop stop-color="#6CD1F4"/>
<stop offset="1" stop-color="#62A4FF"/>
</linearGradient>
<clipPath id="clip0_324_5181">
<rect width="320" height="271" fill="white" transform="matrix(-1 0 0 1 320 0)"/>
</clipPath>
</defs>
</svg>
