<svg width="49" height="49" viewBox="0 0 49 49" fill="none" xmlns="http://www.w3.org/2000/svg">
<rect width="49" height="49" rx="24.5" fill="white"/>
<path d="M29.6042 39.813H19.3958M29.6042 39.813C29.6042 38.3563 29.6042 37.6278 29.682 37.1446C29.9327 35.586 29.9766 35.4878 30.9705 34.2611C31.2785 33.881 32.4227 32.8565 34.7108 30.8076C37.8421 28.0038 39.8125 23.9301 39.8125 19.3964C39.8125 10.9395 32.9568 4.08386 24.5 4.08386C16.0431 4.08386 9.1875 10.9395 9.1875 19.3964C9.1875 23.9301 11.1579 28.0038 14.2891 30.8076C16.5772 32.8565 17.7214 33.881 18.0296 34.2611C19.0235 35.4878 19.0673 35.586 19.3181 37.1446C19.3958 37.6278 19.3958 38.3563 19.3958 39.813M29.6042 39.813C29.6042 41.7212 29.6042 42.6752 29.1938 43.3859C28.9251 43.8514 28.5384 44.2381 28.0729 44.5068C27.3622 44.9172 26.4081 44.9172 24.5 44.9172C22.5919 44.9172 21.6378 44.9172 20.9271 44.5068C20.4616 44.2381 20.0749 43.8514 19.8061 43.3859C19.3958 42.6752 19.3958 41.7212 19.3958 39.813" stroke="#29ABE2" stroke-width="4"/>
<path d="M26.1054 17.3536L21.7305 23.4786H27.8555L23.4804 29.6036" stroke="#29ABE2" stroke-width="4" stroke-linecap="round" stroke-linejoin="round"/>
</svg>
