<svg width="49" height="49" viewBox="0 0 49 49" fill="none" xmlns="http://www.w3.org/2000/svg">
<rect width="49" height="49" fill="white"/>
<path d="M33.9965 7.05461L35.3214 5.72994C37.5162 3.53517 41.0746 3.53517 43.2694 5.72994C45.464 7.92473 45.464 11.4832 43.2694 13.6779L41.9445 15.0026M33.9965 7.05461C33.9965 7.05461 34.1621 9.86952 36.646 12.3533C39.1297 14.837 41.9445 15.0026 41.9445 15.0026M33.9965 7.05461L21.8184 19.2329C20.9936 20.0577 20.5812 20.4701 20.2264 20.925C19.808 21.4613 19.4492 22.0418 19.1566 22.6559C18.9084 23.1765 18.724 23.7298 18.3551 24.8366L17.1741 28.3797M41.9445 15.0026L29.7664 27.1808C28.9416 28.0057 28.5292 28.4181 28.0743 28.7729C27.5379 29.1913 26.9575 29.55 26.3433 29.8428C25.8227 30.0908 25.2694 30.2752 24.1626 30.6441L20.6195 31.8252M17.1741 28.3797L16.4098 30.6723C16.2283 31.217 16.3701 31.8173 16.776 32.2233C17.1819 32.6292 17.7823 32.7709 18.3269 32.5894L20.6195 31.8252M17.1741 28.3797L20.6195 31.8252" stroke="#29ABE2" stroke-width="4"/>
<path d="M44.9154 24.5005C44.9154 35.7762 35.7744 44.9172 24.4987 44.9172C13.2229 44.9172 4.08203 35.7762 4.08203 24.5005C4.08203 13.2247 13.2229 4.08386 24.4987 4.08386" stroke="#29ABE2" stroke-width="4" stroke-linecap="round"/>
</svg>
