<svg width="49" height="49" viewBox="0 0 49 49" fill="none" xmlns="http://www.w3.org/2000/svg">
<rect width="49" height="49" rx="24.5" fill="white"/>
<path d="M24.4987 44.9172C35.7745 44.9172 44.9154 35.7763 44.9154 24.5005C44.9154 13.2247 35.7745 4.08386 24.4987 4.08386C13.2229 4.08386 4.08203 13.2247 4.08203 24.5005C4.08203 35.7763 13.2229 44.9172 24.4987 44.9172Z" stroke="#29ABE2" stroke-width="4"/>
<path d="M20.6719 18.1193C20.6719 16.0051 22.3859 14.2911 24.5 14.2911C26.6141 14.2911 28.3281 16.0051 28.3281 18.1193C28.3281 19.5228 27.5727 20.7499 26.4465 21.4163C25.4759 21.9905 24.5 22.8614 24.5 23.9891V26.5411" stroke="#29ABE2" stroke-width="3" stroke-linecap="round"/>
<path d="M24.4987 34.7083C25.6263 34.7083 26.5404 33.7942 26.5404 32.6667C26.5404 31.5391 25.6263 30.625 24.4987 30.625C23.3711 30.625 22.457 31.5391 22.457 32.6667C22.457 33.7942 23.3711 34.7083 24.4987 34.7083Z" fill="#29ABE2"/>
</svg>
