<svg width="49" height="49" viewBox="0 0 49 49" fill="none" xmlns="http://www.w3.org/2000/svg">
<rect width="49" height="49" rx="24.5" fill="white"/>
<path d="M26.5404 44.4062C27.386 44.4062 28.0716 43.7207 28.0716 42.875C28.0716 42.0293 27.386 41.3438 26.5404 41.3438V44.4062ZM43.3841 26.5417C43.3841 27.3873 44.0697 28.0729 44.9154 28.0729C45.761 28.0729 46.4466 27.3873 46.4466 26.5417H43.3841ZM20.4154 7.65625H28.582V4.59375H20.4154V7.65625ZM5.61328 26.5417V24.5H2.55078V26.5417H5.61328ZM5.61328 24.5V22.4583H2.55078V24.5H5.61328ZM26.5404 41.3438H20.4154V44.4062H26.5404V41.3438ZM43.3841 22.4583V24.5H46.4466V22.4583H43.3841ZM2.55078 26.5417C2.55078 30.3482 2.54754 33.3572 2.86342 35.7067C3.18525 38.1004 3.86333 40.0379 5.39123 41.5659L7.55675 39.4003C6.69269 38.5363 6.17478 37.3527 5.89863 35.2988C5.61653 33.2006 5.61328 30.4347 5.61328 26.5417H2.55078ZM20.4154 41.3438C16.5223 41.3438 13.7565 41.3405 11.6583 41.0583C9.60425 40.7823 8.4208 40.2643 7.55675 39.4003L5.39123 41.5659C6.91915 43.0937 8.85657 43.7717 11.2503 44.0937C13.5999 44.4095 16.6088 44.4062 20.4154 44.4062V41.3438ZM28.582 7.65625C32.4751 7.65625 35.2409 7.6595 37.3391 7.94159C39.3931 8.21775 40.5766 8.73566 41.4406 9.59971L43.6062 7.4342C42.0783 5.9063 40.1407 5.22822 37.7471 4.90639C35.3975 4.59051 32.3885 4.59375 28.582 4.59375V7.65625ZM46.4466 22.4583C46.4466 18.6518 46.4499 15.6429 46.134 13.2933C45.8121 10.8995 45.134 8.96212 43.6062 7.4342L41.4406 9.59971C42.3047 10.4638 42.8227 11.6472 43.0987 13.7013C43.3808 15.7995 43.3841 18.5652 43.3841 22.4583H46.4466ZM20.4154 4.59375C16.6088 4.59375 13.5999 4.59051 11.2503 4.90639C8.85659 5.22822 6.91915 5.9063 5.39123 7.4342L7.55675 9.59971C8.4208 8.73566 9.60425 8.21775 11.6583 7.94159C13.7565 7.6595 16.5223 7.65625 20.4154 7.65625V4.59375ZM5.61328 22.4583C5.61328 18.5652 5.61653 15.7995 5.89863 13.7013C6.17478 11.6472 6.69269 10.4638 7.55675 9.59971L5.39123 7.4342C3.86333 8.96212 3.18525 10.8995 2.86342 13.2933C2.54754 15.6429 2.55078 18.6518 2.55078 22.4583H5.61328ZM4.08203 26.0313H44.9154V22.9688H4.08203V26.0313ZM43.3841 24.5V26.5417H46.4466V24.5H43.3841Z" fill="#29ABE2"/>
<path d="M27.5625 15.3125H36.75" stroke="#29ABE2" stroke-width="4" stroke-linecap="round"/>
<path d="M12.25 35.7297V31.6464" stroke="#29ABE2" stroke-width="4" stroke-linecap="round"/>
<path d="M12.25 17.3547V13.2714" stroke="#29ABE2" stroke-width="4" stroke-linecap="round"/>
<path d="M18.375 35.7297V31.6464" stroke="#29ABE2" stroke-width="4" stroke-linecap="round"/>
<path d="M18.375 17.3547V13.2714" stroke="#29ABE2" stroke-width="4" stroke-linecap="round"/>
<path d="M31.8176 36.75L30.8218 37.9133C31.3951 38.404 32.2402 38.404 32.8133 37.9133L31.8176 36.75ZM34.006 36.8925C34.6483 36.3425 34.7235 35.376 34.1734 34.7334C33.6236 34.0909 32.6569 34.016 32.0146 34.5658L34.006 36.8925ZM31.6207 34.5658C30.9782 34.016 30.0117 34.0909 29.4617 34.7334C28.9119 35.376 28.9868 36.3425 29.6293 36.8925L31.6207 34.5658ZM41.628 33.9635C42.1188 34.6524 43.0749 34.8129 43.7636 34.3221C44.4524 33.8312 44.6129 32.8751 44.1221 32.1865L41.628 33.9635ZM37.7807 29.0938C33.8737 29.0938 30.2863 31.8498 30.2863 35.7292H33.3488C33.3488 33.9707 35.101 32.1562 37.7807 32.1562V29.0938ZM30.2863 35.7292V36.75H33.3488V35.7292H30.2863ZM32.8133 37.9133L34.006 36.8925L32.0146 34.5658L30.8218 35.5867L32.8133 37.9133ZM32.8133 35.5867L31.6207 34.5658L29.6293 36.8925L30.8218 37.9133L32.8133 35.5867ZM44.1221 32.1865C42.7627 30.2787 40.3883 29.0938 37.7807 29.0938V32.1562C39.4881 32.1562 40.8936 32.9329 41.628 33.9635L44.1221 32.1865Z" fill="#29ABE2"/>
<path d="M43.7256 36.75L44.7213 35.5867C44.148 35.0961 43.303 35.0961 42.7299 35.5867L43.7256 36.75ZM41.5371 36.6075C40.8948 37.1576 40.8197 38.1241 41.3697 38.7666C41.9195 39.4091 42.8863 39.484 43.5286 38.9342L41.5371 36.6075ZM43.9224 38.9342C44.5649 39.484 45.5314 39.4091 46.0815 38.7666C46.6313 38.1241 46.5564 37.1576 45.9139 36.6075L43.9224 38.9342ZM33.9152 39.5365C33.4244 38.8477 32.4683 38.6872 31.7796 39.178C31.0907 39.6688 30.9303 40.6249 31.4211 41.3136L33.9152 39.5365ZM37.7625 44.4063C41.6694 44.4063 45.2568 41.6503 45.2568 37.7709H42.1943C42.1943 39.5294 40.4422 41.3438 37.7625 41.3438V44.4063ZM45.2568 37.7709V36.75H42.1943V37.7709H45.2568ZM42.7299 35.5867L41.5371 36.6075L43.5286 38.9342L44.7213 37.9134L42.7299 35.5867ZM42.7299 37.9134L43.9224 38.9342L45.9139 36.6075L44.7213 35.5867L42.7299 37.9134ZM31.4211 41.3136C32.7804 43.2213 35.1549 44.4063 37.7625 44.4063V41.3438C36.0551 41.3438 34.6496 40.5671 33.9152 39.5365L31.4211 41.3136Z" fill="#29ABE2"/>
</svg>
