<svg width="49" height="49" viewBox="0 0 49 49" fill="none" xmlns="http://www.w3.org/2000/svg">
<rect width="49" height="49" rx="24.5" fill="white"/>
<path d="M16.013 7.76317C20.1549 5.31029 22.226 4.08386 24.5 4.08386C26.774 4.08386 28.8451 5.31029 32.987 7.76317L34.388 8.5928C38.5299 11.0457 40.601 12.2721 41.738 14.2922C42.875 16.3123 42.875 18.7652 42.875 23.671V25.3301C42.875 30.236 42.875 32.6888 41.738 34.7089C40.601 36.7289 38.5299 37.9553 34.388 40.4082L32.987 41.2379C28.8451 43.6908 26.774 44.9172 24.5 44.9172C22.226 44.9172 20.1549 43.6908 16.013 41.2379L14.612 40.4082C10.4701 37.9553 8.39909 36.7289 7.26205 34.7089C6.125 32.6888 6.125 30.236 6.125 25.3301V23.671C6.125 18.7652 6.125 16.3123 7.26205 14.2922C8.39909 12.2721 10.4701 11.0457 14.612 8.5928L16.013 7.76317Z" stroke="#29ABE2" stroke-width="4"/>
<path d="M24.5 30.625C27.8827 30.625 30.625 27.8827 30.625 24.5C30.625 21.1173 27.8827 18.375 24.5 18.375C21.1173 18.375 18.375 21.1173 18.375 24.5C18.375 27.8827 21.1173 30.625 24.5 30.625Z" stroke="#29ABE2" stroke-width="4"/>
</svg>
