<svg width="171" height="40" viewBox="0 0 171 40" fill="none" xmlns="http://www.w3.org/2000/svg">
<path d="M23.4515 20.1207L14.8461 28.7318L24.5884 40H40.3689L23.4515 20.1207Z" fill="#2A2B6D"/>
<path d="M24.5884 0L12.3649 12.1631V12.1601L6.21545 18.6444L12.3649 8.75857V0H0V40L40.3689 0H24.5884Z" fill="#2A2B6D"/>
<path d="M49.0666 8.03754H54.7029V17.2907L63.545 8.03754H70.3962L59.1915 19.8575L70.3962 31.6774H63.545L54.7029 22.4243V31.6774H49.0666V8.03754Z" fill="#2A2B6D"/>
<path d="M72.4208 8.03754H78.0572V31.6774H72.4208V8.03754Z" fill="#2A2B6D"/>
<path d="M88.8569 13.1031H80.8585V8.03754H102.457V13.1031H94.459V31.6774H88.8569V13.1031Z" fill="#2A2B6D"/>
<path d="M116.868 27.8613H106.98L105.428 31.6774H99.6229L109.039 8.03754H114.81L124.226 31.6774H118.421L116.868 27.8613ZM115.046 23.2347L111.907 15.501L108.802 23.2347H115.046Z" fill="#2A2B6D"/>
<path d="M126.015 8.03754H144.678V13.1031H131.651V17.5608H144.003V22.1536H131.651V26.6114H144.678V31.6769H126.015V8.03754Z" fill="#2A2B6D"/>
<path d="M146.129 8.03754H151.934L158.448 24.2139L164.928 8.03754H170.733L161.316 31.6774H155.546L146.129 8.03754Z" fill="#2A2B6D"/>
</svg>
