<svg width="17" height="18" viewBox="0 0 17 18" fill="none" xmlns="http://www.w3.org/2000/svg">
<path d="M8.6665 0.875C13.1538 0.875 16.7915 4.51269 16.7915 9C16.7915 13.4873 13.1538 17.125 8.6665 17.125C4.17919 17.125 0.541504 13.4873 0.541504 9C0.541504 4.51269 4.17919 0.875 8.6665 0.875ZM11.6089 6.89062C11.3648 6.64676 10.9682 6.64676 10.7241 6.89062L7.83252 9.78223L6.60889 8.55762L6.1665 9L5.72412 9.44141L7.39111 11.1084C7.63514 11.3524 8.03081 11.3523 8.2749 11.1084L11.6089 7.77539C11.8528 7.5313 11.8529 7.13465 11.6089 6.89062ZM6.60889 8.55762C6.36485 8.31376 5.96816 8.31376 5.72412 8.55762C5.48037 8.80155 5.48059 9.19734 5.72412 9.44141L6.60889 8.55762Z" fill="#283C7E"/>
</svg>
