<svg width="30" height="36" viewBox="0 0 30 36" fill="none" xmlns="http://www.w3.org/2000/svg">
<path d="M29.0906 6.07127C29.0906 6.07127 27.3531 6.61204 25.1932 6.61204C21.3553 6.61204 18.5944 5.05512 16.9759 1.94128C16.375 0.800337 15.5955 0.206094 15.4765 0.14667C15.179 -0.0910274 14.697 -0.0316031 14.459 0.265519L13.1976 1.76301C10.0797 5.53646 6.30127 6.31491 3.71888 6.31491C2.10042 6.31491 0.957984 6.01779 0.957984 6.01779C0.476017 5.89894 0 6.25549 0 6.73683V22.4962C0 27.2323 3.42137 30.6432 7.49726 32.9786C11.0971 35.0169 14.6375 35.9142 14.816 35.9736C14.935 35.9736 15.054 36.033 15.179 35.9736C15.298 35.9142 18.8979 35.0763 22.4977 32.9786C26.5796 30.6432 29.995 27.2263 29.995 22.4962V6.79031C30.0545 6.24955 29.5725 5.893 29.0965 6.07127H29.0906ZM28.5491 22.4902C28.5491 26.026 26.2702 29.0804 21.8313 31.6594C18.8324 33.3352 15.8335 34.2384 15.054 34.4761C14.2746 34.2978 11.2756 33.4005 8.27674 31.6594C3.83788 29.0804 1.55895 26.026 1.55895 22.4902V7.68762C2.10042 7.80646 2.8799 7.86589 3.77838 7.86589C6.71779 7.86589 10.9186 6.96858 14.3995 2.77322L15.1195 1.87592C15.298 2.05419 15.4824 2.29783 15.6014 2.59495C17.9399 7.14685 22.0812 8.10953 25.1396 8.10953C26.5201 8.10953 27.722 7.93126 28.561 7.75298V22.4902H28.5491Z" fill="#259CCE"/>
<path d="M16.6725 7.44992C16.1905 6.61204 15.53 6.1307 15.4705 6.07127C15.173 5.893 14.7506 5.95243 14.5126 6.19012L13.5546 7.33107C11.2161 9.96951 8.45525 10.5638 6.47383 10.5638C5.27189 10.5638 4.43291 10.3261 4.43291 10.3261C3.95094 10.2072 3.47492 10.5638 3.47492 11.0451V22.306C3.47492 25.301 5.45634 27.9988 9.29423 30.0371C12.0551 31.5346 14.7506 32.1348 14.8755 32.1942H15.2385C15.3575 32.1942 18.0589 31.5346 20.8198 30.0371C24.5982 27.9988 26.6391 25.3069 26.6391 22.306V11.0451C26.6391 10.5638 26.1571 10.2072 25.6811 10.3261C25.6811 10.3261 24.4197 10.6826 22.7417 10.6826C19.8618 10.742 17.8209 9.60702 16.6844 7.44992H16.6725ZM25.0682 12.0018V22.3654C25.0682 27.88 16.369 30.3936 15.0481 30.7502C13.7271 30.3877 5.02793 27.9335 5.02793 22.3654V11.9424C5.45039 12.0018 5.92641 12.0612 6.52738 12.0612C12.2872 12.0612 14.8636 7.98474 15.1076 7.86589C15.1671 7.98474 15.2861 8.10359 15.3456 8.22243C17.1426 11.5799 20.3259 12.2395 22.7238 12.2395C23.6223 12.2395 24.4613 12.1207 25.0623 12.0018H25.0682Z" fill="#259CCE"/>
<path d="M8.33029 20.2737C8.33029 23.9877 11.3292 27.0421 15.1076 27.0421C18.886 27.0421 21.8849 24.0471 21.8849 20.2737C21.8849 16.5002 18.767 13.5053 15.0481 13.5053C11.3292 13.5053 8.33029 16.5002 8.33029 20.2737ZM20.3319 20.2737C20.3319 23.1498 17.9934 25.5446 15.054 25.5446C12.1146 25.5446 9.77619 23.2092 9.77619 20.2737C9.77619 17.3381 12.1146 15.0027 15.054 15.0027C17.9934 15.0027 20.3319 17.3381 20.3319 20.2737Z" fill="#259CCE"/>
<path d="M13.3106 20.452C13.0131 20.1548 12.5311 20.1548 12.2336 20.452C11.9361 20.7491 11.9361 21.2304 12.2336 21.5275L13.7331 23.025C14.0901 23.3816 14.6316 23.3222 14.8755 22.9062L17.8744 18.4137C18.1124 18.0512 17.9934 17.5758 17.6959 17.3976C17.3389 17.1599 16.8569 17.2787 16.6784 17.5758L14.221 21.2898L13.3225 20.452H13.3106Z" fill="#259CCE"/>
</svg>
