<svg width="37" height="36" viewBox="0 0 37 36" fill="none" xmlns="http://www.w3.org/2000/svg">
<path d="M35.5561 14.2326H32.0876C31.7886 13.0963 31.3102 11.9601 30.7122 10.9435L33.1641 8.4917C33.4631 8.19269 33.4631 7.71429 33.1641 7.41528L28.9182 3.16943C28.6192 2.87043 28.1408 2.87043 27.8418 3.16943L25.39 5.62126C24.3734 5.02326 23.2372 4.54485 22.1009 4.24585V0.777408C22.1009 0.358804 21.7421 0 21.3235 0H15.3435C14.9249 0 14.5661 0.358804 14.5661 0.777408V4.24585C13.4298 4.54485 12.2936 5.02326 11.277 5.62126L8.82519 3.16943C8.52619 2.87043 8.04778 2.87043 7.74878 3.16943L3.50293 7.41528C3.20393 7.71429 3.20393 8.19269 3.50293 8.4917L5.95476 10.9435C5.35675 11.9601 4.87835 13.0963 4.57934 14.2326H1.11091C0.692301 14.2326 0.333496 14.5914 0.333496 15.01V20.99C0.333496 21.4086 0.692301 21.7674 1.11091 21.7674H4.57934C4.87835 22.9037 5.35675 24.0399 5.95476 25.0565L3.50293 27.5083C3.20393 27.8073 3.20393 28.2857 3.50293 28.5847L7.74878 32.8306C8.04778 33.1296 8.52619 33.1296 8.82519 32.8306L11.277 30.3787C12.2936 30.9767 13.4298 31.4552 14.5661 31.7542V35.2226C14.5661 35.6412 14.9249 36 15.3435 36H21.3235C21.7421 36 22.1009 35.6412 22.1009 35.2226V31.7542C23.2372 31.4552 24.3734 30.9767 25.39 30.3787L27.8418 32.8306C28.1408 33.1296 28.6192 33.1296 28.9182 32.8306L33.1641 28.5847C33.4631 28.2857 33.4631 27.8073 33.1641 27.5083L30.7122 25.0565C31.3102 24.0399 31.7886 22.9037 32.0876 21.7674H35.5561C35.9747 21.7674 36.3335 21.4086 36.3335 20.99V15.01C36.2737 14.5316 35.9149 14.2326 35.5561 14.2326ZM34.7787 20.2126H31.4298C31.071 20.2126 30.772 20.4518 30.7122 20.8106C30.4132 22.186 29.875 23.5615 29.0976 24.7575C28.9182 25.0565 28.978 25.4153 29.2172 25.7143L31.5494 28.0465L28.38 31.2159L26.0478 28.8837C25.8086 28.6445 25.39 28.5847 25.091 28.7641C23.895 29.5415 22.5195 30.0797 21.1441 30.3787C20.7853 30.4385 20.5461 30.7375 20.5461 31.0963V34.3854H16.0611V31.0365C16.0611 30.6777 15.8219 30.3787 15.4631 30.3189C14.0877 30.0199 12.7122 29.4817 11.5162 28.7043C11.2172 28.5249 10.8584 28.5847 10.5594 28.8239L8.22718 31.1561L5.05775 27.9867L7.38998 25.6545C7.62918 25.4153 7.68898 24.9967 7.50958 24.6977C6.73217 23.5017 6.19396 22.1262 5.89496 20.7508C5.83516 20.392 5.53615 20.1528 5.17735 20.1528H1.88831V15.6678H5.23715C5.59596 15.6678 5.89496 15.4286 5.95476 15.0698C6.25376 13.6944 6.79197 12.3189 7.56938 11.1229C7.74878 10.8239 7.68898 10.4651 7.44978 10.1661L5.11755 7.83389L8.28699 4.66445L10.6192 6.99668C10.8584 7.23588 11.277 7.29568 11.576 7.11628C12.772 6.33887 14.1474 5.80066 15.5229 5.50166C15.8817 5.44186 16.1209 5.14286 16.1209 4.78405V1.49502H20.6059V4.84385C20.6059 5.20266 20.8451 5.50166 21.2039 5.56146C22.5793 5.86047 23.9548 6.39867 25.1508 7.17608C25.4498 7.35548 25.8086 7.29568 26.1076 7.05648L28.4398 4.72425L31.6092 7.89369L29.277 10.2259C29.0378 10.4651 28.978 10.8837 29.1574 11.1827C29.9348 12.3787 30.473 13.7542 30.772 15.1296C30.8318 15.4884 31.1308 15.7276 31.4896 15.7276H34.7787V20.2126Z" fill="#259CCE"/>
<path d="M18.3339 8.25293C12.9519 8.25293 8.58643 12.6184 8.58643 18.0004C8.58643 23.3825 12.9519 27.7479 18.3339 27.7479C23.716 27.7479 28.0814 23.3825 28.0814 18.0004C28.0814 12.6184 23.716 8.25293 18.3339 8.25293ZM18.3339 26.1931C13.7891 26.1931 10.0814 22.4855 10.0814 17.9406C10.0814 13.3958 13.7891 9.68815 18.3339 9.68815C22.8788 9.68815 26.5864 13.3958 26.5864 17.9406C26.5864 22.4855 22.8788 26.1931 18.3339 26.1931Z" fill="#259CCE"/>
<path d="M18.3338 11.96C16.3006 11.96 14.5664 13.6344 14.5664 15.7274C14.5664 17.5214 15.882 19.0164 17.5564 19.3752V23.9201C17.5564 24.3387 17.9152 24.6975 18.3338 24.6975C18.7525 24.6975 19.1113 24.3387 19.1113 23.9201V19.3752C20.7857 19.0164 22.1013 17.5214 22.1013 15.7274C22.1013 13.6344 20.3671 11.96 18.3338 11.96ZM18.3338 17.94C17.078 17.94 16.0614 16.9234 16.0614 15.6676C16.0614 14.4118 17.078 13.3952 18.3338 13.3952C19.5897 13.3952 20.6063 14.4118 20.6063 15.6676C20.6063 16.9234 19.5897 17.94 18.3338 17.94Z" fill="#259CCE"/>
</svg>
