<svg width="1076" height="696" viewBox="0 0 1076 696" fill="none" xmlns="http://www.w3.org/2000/svg">
<g style="mix-blend-mode:color-dodge">
<path d="M900.044 289.044H1075.2V287.442H900.658L855.842 246.367H747.34L723.291 268.066H648.047V269.64H723.905L747.954 247.942H855.228L900.044 289.044Z" fill="url(#paint0_linear_324_5969)"/>
<path d="M898.869 299.963H1075.2V298.362H899.51L849.303 250.961L749.689 251.041L725.64 272.766H648.047V274.341H726.227L750.303 252.642L848.689 252.562L898.869 299.963Z" fill="url(#paint1_linear_324_5969)"/>
<path d="M890.942 321.021H1075.2L1068.7 320.234L1075.2 319.446H891.583L827.549 256.165L752.011 255.738L727.962 277.464H648.047V279.038H728.576L752.625 257.34L826.882 257.74L890.942 321.021Z" fill="url(#paint2_linear_324_5969)"/>
<path d="M887.499 325.587H1075.2V323.985H888.166L824.132 260.731L754.36 260.438L730.311 282.163H648.047V283.737H730.898L754.947 262.012L823.465 262.306L887.499 325.587Z" fill="url(#paint3_linear_324_5969)"/>
<path d="M884.082 330.126H1075.2V328.551H884.723L820.689 265.27H820.369L756.682 265.137L732.633 286.862H648.047V288.437H733.247L757.296 266.711L820.049 266.872L884.082 330.126Z" fill="url(#paint4_linear_324_5969)"/>
<path d="M880.666 334.68H1075.2V333.105H881.306L817.273 269.824H759.031L734.982 291.523H648.047V293.124H735.569L759.618 271.399H816.632L880.666 334.68Z" fill="url(#paint5_linear_324_5969)"/>
<path d="M877.97 339.484H1075.2V337.91H878.61L814.577 274.629H761.514L737.464 296.354H648.047V297.929H738.052L762.101 276.23H813.936L877.97 339.484Z" fill="url(#paint6_linear_324_5969)"/>
<path d="M773.632 370.268H797.574L822.771 345.634H1075.2V342.484H821.49L796.266 367.119H775.02L763.809 354.788H648.047V357.938H762.421L773.632 370.268Z" fill="url(#paint7_linear_324_5969)"/>
<path d="M771.87 375.494H799.683L824.907 350.86H1075.2V349.285H824.266L799.042 373.92H772.564L760.312 360.655H648.047V362.23H759.618L771.87 375.494Z" fill="url(#paint8_linear_324_5969)"/>
<path d="M769.601 380.509H802.138L827.362 355.875H1075.2V354.273H826.722L801.498 378.908H770.295L758.044 365.67H648.047V367.245H757.35L769.601 380.509Z" fill="url(#paint9_linear_324_5969)"/>
<path d="M767.146 385.686H804.487L829.711 361.051H1075.2V359.477H829.044L803.847 384.111H767.84L755.588 370.846H648.047V372.448H754.894L767.146 385.686Z" fill="url(#paint10_linear_324_5969)"/>
<path d="M765.064 390.787H806.596L831.793 366.153H1075.2V364.578H831.152L805.929 389.213H765.731L753.479 375.948H648.047V377.523H752.785L765.064 390.787Z" fill="url(#paint11_linear_324_5969)"/>
<path d="M731.752 408.908H815.111L850.477 372.13H1075.2V369.781H849.49L814.096 406.533H731.752V408.908Z" fill="url(#paint12_linear_324_5969)"/>
<path d="M718.54 438.618H830.352L870.283 397.81H953.241L958.899 391.938H1075.2V389.562H957.885L952.226 395.461H869.268L829.337 436.269H719.794L714.696 428.956H648.047V431.332H713.468L718.54 438.618Z" fill="url(#paint13_linear_324_5969)"/>
<path d="M724.064 411.816C731.137 411.816 736.902 406.051 736.902 398.978C736.902 391.906 731.137 386.141 724.064 386.141C716.99 386.141 711.225 391.906 711.225 398.978C711.225 406.051 716.99 411.816 724.064 411.816ZM724.064 388.516C729.829 388.516 734.527 393.213 734.527 398.978C734.527 404.743 729.829 409.441 724.064 409.441C718.298 409.441 713.6 404.743 713.6 398.978C713.6 393.213 718.298 388.516 724.064 388.516Z" fill="url(#paint14_linear_324_5969)"/>
<path d="M724.067 406.372C728.151 406.372 731.461 403.062 731.461 398.979C731.461 394.895 728.151 391.586 724.067 391.586C719.983 391.586 716.674 394.895 716.674 398.979C716.674 403.062 719.983 406.372 724.067 406.372ZM724.067 393.961C726.843 393.961 729.085 396.203 729.085 398.979C729.085 401.755 726.843 403.997 724.067 403.997C721.291 403.997 719.049 401.755 719.049 398.979C719.049 396.203 721.291 393.961 724.067 393.961Z" fill="url(#paint15_linear_324_5969)"/>
<path d="M648.045 406.535H716.402V408.911H648.045V406.535Z" fill="url(#paint16_linear_324_5969)"/>
<path d="M735.702 403.013H811.881L842.496 371.519L841.375 370.398L811.213 401.438H735.702V403.013Z" fill="url(#paint17_linear_324_5969)"/>
<path d="M735.491 397.43H809.214L834.758 371.114L833.61 370.02L808.546 395.828H735.491V397.43Z" fill="url(#paint18_linear_324_5969)"/>
<path d="M648.045 401.438H712.879V403.012H648.045V401.438Z" fill="url(#paint19_linear_324_5969)"/>
<path d="M648.047 414.382H818.1L853.654 377.524H1075.2V375.949H852.986L817.433 412.807H648.047V414.382Z" fill="url(#paint20_linear_324_5969)"/>
<path d="M648.047 419.506H820.663L856.216 382.648H1075.2V381.047H855.549L819.995 417.905H648.047V419.506Z" fill="url(#paint21_linear_324_5969)"/>
<path d="M648.051 424.577H823.23L858.783 387.719H947.293V386.117H858.116L822.562 423.002H648.051V424.577Z" fill="url(#paint22_linear_324_5969)"/>
<path d="M648.049 395.828H712.43V397.403H648.049V395.828Z" fill="url(#paint23_linear_324_5969)"/>
<path d="M648.05 390.652H715.18V392.227H648.05V390.652Z" fill="url(#paint24_linear_324_5969)"/>
<path d="M648.045 381.312H751.609V382.887H648.045V381.312Z" fill="url(#paint25_linear_324_5969)"/>
<path d="M733.167 390.652H754.414V392.227H733.167V390.652Z" fill="url(#paint26_linear_324_5969)"/>
<path d="M722.676 430.767H826.907L860.539 395.723L859.391 394.629L826.24 429.192H722.676V430.767Z" fill="url(#paint27_linear_324_5969)"/>
<path d="M691.526 339.495H869.773V337.921H692.166L676.045 321.773H648.045V323.375H675.404L691.526 339.495Z" fill="url(#paint28_linear_324_5969)"/>
<path d="M648.045 315.945H848.527V317.52H648.045V315.945Z" fill="url(#paint29_linear_324_5969)"/>
<path d="M648.053 311.918H730.584L763.922 280.985H810.766V279.41H763.308L729.97 310.343H648.053V311.918Z" fill="url(#paint30_linear_324_5969)"/>
<path d="M759.65 313.921L769.927 304.34H836.336V302.738H769.286L758.556 312.774L759.65 313.921Z" fill="url(#paint31_linear_324_5969)"/>
<path d="M748.783 313.926L764.317 299.434H830.727V297.859H763.677L747.688 312.779L748.783 313.926Z" fill="url(#paint32_linear_324_5969)"/>
<path d="M739.36 312.421L758.524 294.512H824.934V292.938H757.911L738.265 311.247L739.36 312.421Z" fill="url(#paint33_linear_324_5969)"/>
<path d="M763.653 287.609H819.812V289.184H763.653V287.609Z" fill="url(#paint34_linear_324_5969)"/>
<path d="M902.927 274.503H1075.2V272.128H903.861L866.039 236.871H802.806L795.706 242.476L797.2 244.344L803.633 239.246H865.104L902.927 274.503Z" fill="url(#paint35_linear_324_5969)"/>
<path d="M554.496 583.054H556.07V546.97L547.876 539.604V457.934H546.301V540.324L554.496 547.664V583.054Z" fill="url(#paint36_linear_324_5969)"/>
<path d="M546.3 583.054H547.875V554.149L539.707 546.783V457.934H538.132V547.504L546.3 554.843V583.054Z" fill="url(#paint37_linear_324_5969)"/>
<path d="M515.601 611.986H517.175V540.698L526.277 533.332V457.934H524.702V532.584L515.601 539.95V611.986Z" fill="url(#paint38_linear_324_5969)"/>
<path d="M534.878 695.635H536.453V684.986L545.555 677.646V631.02H543.98V676.872L534.878 684.238V695.635Z" fill="url(#paint39_linear_324_5969)"/>
<path d="M543.148 695.639H544.75V684.99L553.852 677.65V633.266H552.277V676.876L543.148 684.243V695.639Z" fill="url(#paint40_linear_324_5969)"/>
<path d="M550.702 695.632H552.277V684.983L561.379 677.643V632.324H559.804V676.869L550.702 684.235V695.632Z" fill="url(#paint41_linear_324_5969)"/>
<path d="M557.027 695.638H558.602V689.366L574.457 676.235V623.656H572.882V675.487L557.027 688.619V695.638Z" fill="url(#paint42_linear_324_5969)"/>
<path d="M527.508 695.639H529.082V680.319L538.211 672.98V627.527H536.609V672.232L527.508 679.572V695.639Z" fill="url(#paint43_linear_324_5969)"/>
<path d="M509.761 616.843H511.363V537.548L520.465 530.182V457.934H518.89V529.435L509.761 536.801V616.843Z" fill="url(#paint44_linear_324_5969)"/>
<path d="M503.859 622.341H505.461V534.746L514.562 527.38V457.934H512.988V526.632L503.859 533.999V622.341Z" fill="url(#paint45_linear_324_5969)"/>
<path d="M604.113 695.631H605.688V507.629L590.046 494.071V457.934H588.445V494.792L604.113 508.35V695.631Z" fill="url(#paint46_linear_324_5969)"/>
<path d="M445.17 695.631H447.546V508.457L466.684 488.253V457.934H464.308V487.319L445.17 507.496V695.631Z" fill="url(#paint47_linear_324_5969)"/>
<path d="M455.12 695.631H456.695V525.218L475.859 505.041V457.934H474.285V504.4L455.12 524.604V695.631Z" fill="url(#paint48_linear_324_5969)"/>
<path d="M475.675 695.631H477.249V518.225L496.414 498.021V457.934H494.813V497.381L475.675 517.585V695.631Z" fill="url(#paint49_linear_324_5969)"/>
<path d="M609.609 695.631H611.184V505.521L595.542 491.963V457.934H593.967V492.71L609.609 506.242V695.631Z" fill="url(#paint50_linear_324_5969)"/>
<path d="M615.195 695.631H616.77V503.76L601.128 490.228V457.934H599.553V490.949L615.195 504.48V695.631Z" fill="url(#paint51_linear_324_5969)"/>
<path d="M621.465 695.631H623.066V502.238L607.425 488.707V457.934H605.824V489.427L621.465 502.959V695.631Z" fill="url(#paint52_linear_324_5969)"/>
<path d="M627.683 695.631H629.258V499.783L613.99 486.732V457.934H612.415V487.452L627.683 500.53V695.631Z" fill="url(#paint53_linear_324_5969)"/>
<path d="M562.367 575H563.941V543.48L553.024 533.098L551.93 534.245L562.367 544.174V575Z" fill="url(#paint54_linear_324_5969)"/>
<path d="M588.206 695.631H591.355V577.77L571.283 559.915V537.095L553.56 520.254L551.371 522.549L568.134 538.456V561.356L588.206 579.211V695.631Z" fill="url(#paint55_linear_324_5969)"/>
<path d="M574.456 557.652H576.031V524.21L552.996 502.965L551.929 504.139L574.456 524.904V557.652Z" fill="url(#paint56_linear_324_5969)"/>
<path d="M553.005 512.195L570.336 527.969L569.276 529.133L551.945 513.359L553.005 512.195Z" fill="url(#paint57_linear_324_5969)"/>
<path d="M553.748 634.436C568.429 634.436 580.387 622.479 580.387 607.8C580.387 593.121 568.429 581.164 553.748 581.164C539.068 581.164 527.11 593.121 527.11 607.8C527.11 622.479 539.068 634.436 553.748 634.436ZM553.748 583.539C567.121 583.539 578.011 594.429 578.011 607.8C578.011 621.172 567.121 632.061 553.748 632.061C540.376 632.061 529.486 621.172 529.486 607.8C529.486 594.429 540.376 583.539 553.748 583.539Z" fill="url(#paint58_linear_324_5969)"/>
<path d="M553.744 627.071C564.367 627.071 573.016 618.424 573.016 607.801C573.016 597.179 564.367 588.531 553.744 588.531C543.121 588.531 534.473 597.179 534.473 607.801C534.473 618.424 543.121 627.071 553.744 627.071ZM553.744 590.907C563.06 590.907 570.667 598.486 570.667 607.801C570.667 617.116 563.086 624.722 553.744 624.722C544.402 624.722 536.822 617.142 536.822 607.801C536.822 598.46 544.402 590.907 553.744 590.907Z" fill="url(#paint59_linear_324_5969)"/>
<path d="M566.48 629.367H568.055V674.099H566.48V629.367Z" fill="url(#paint60_linear_324_5969)"/>
<path d="M509.386 695.639H511.735V641.058L524.867 630.276L523.346 628.461L509.386 639.937V695.639Z" fill="url(#paint61_linear_324_5969)"/>
<path d="M495.825 695.631H498.2V635.499L523.531 614.681V555.057L532.633 547.717V457.934H530.284V546.569L521.155 553.936V613.56L495.825 634.351V695.631Z" fill="url(#paint62_linear_324_5969)"/>
<path d="M468.895 497.109L470.027 498.203L452.425 516.417L451.292 515.322L468.895 497.109Z" fill="url(#paint63_linear_324_5969)"/>
<path d="M468.679 520.629H470.254V695.659H468.679V520.629Z" fill="url(#paint64_linear_324_5969)"/>
<path d="M461.902 528.32H463.477V695.637H461.902V528.32Z" fill="url(#paint65_linear_324_5969)"/>
<path d="M104.441 459.939H145.893L146.107 459.698L185.103 421.399H427.145V419.824H184.463L184.223 420.064L145.226 458.364H105.162L95.3657 447.154H0.022693V448.729H94.6451L104.441 459.939Z" fill="url(#paint66_linear_324_5969)"/>
<path d="M107.777 454.337H142.37L142.61 454.123L181.607 415.797H427.145V414.223H180.966L180.726 414.463L141.729 452.762H108.498L98.6755 441.553H0.022693V443.127H97.9815L107.777 454.337Z" fill="url(#paint67_linear_324_5969)"/>
<path d="M110.393 448.36H139.114L139.327 448.12L178.35 409.821H427.145V408.246H177.683L177.47 408.486L138.473 446.786H111.114L101.318 435.576H0.022693V437.151H100.597L110.393 448.36Z" fill="url(#paint68_linear_324_5969)"/>
<path d="M100.304 466.532H150.137L189.347 427.993H427.145V425.617H188.387L149.15 464.157H101.371L91.5755 452.947H0.022693V455.323H90.5078L100.304 466.532Z" fill="url(#paint69_linear_324_5969)"/>
<path d="M200.211 403.892H427.145V402.317H200.878L164.23 362.496H121.07L86.504 395.191H0.022693V396.765H87.1446L121.71 364.097H163.537L200.211 403.892Z" fill="url(#paint70_linear_324_5969)"/>
<path d="M202.934 397.938H427.145V396.364H203.628L166.953 356.543H117.92L83.3544 389.238H0.022693V390.812H83.995L118.561 358.144H166.259L202.934 397.938Z" fill="url(#paint71_linear_324_5969)"/>
<path d="M205.923 391.798H427.145V389.423H206.964L170.29 349.629H115.064L80.5251 382.297H0.022693V384.672H81.4593L116.025 352.004H169.275L205.923 391.798Z" fill="url(#paint72_linear_324_5969)"/>
<path d="M232.775 385.905H427.145V382.729H234.163L197.515 342.935H85.73L73.9055 334.074L0.022693 333.594V336.77L72.8379 337.224L84.6623 346.084H196.127L232.775 385.905Z" fill="url(#paint73_linear_324_5969)"/>
<path d="M236.325 378.643H427.145V377.068H237.046L200.371 335.993H88.239L77.6157 328.04H77.3488L0.022693 327.906V329.481L77.1086 329.614L87.7318 337.568H199.677L236.325 378.643Z" fill="url(#paint74_linear_324_5969)"/>
<path d="M239.902 373.198H427.145V371.624H240.596L203.948 330.548H92.7766L81.6195 321.207H0.022693V322.782H81.0589L92.1894 332.123H203.227L239.902 373.198Z" fill="url(#paint75_linear_324_5969)"/>
<path d="M192.31 404.583L193.484 403.515L161.187 368.445H124.006L89.4398 401.113H0.0223927V402.715H90.0538L124.62 370.02H160.493L192.31 404.583Z" fill="url(#paint76_linear_324_5969)"/>
<path d="M0.0234281 408.246H93.2311L127.797 375.578H157.452L184.357 404.83L185.531 403.762L158.145 373.977H127.183L92.6172 406.671H0.0234281V408.246Z" fill="url(#paint77_linear_324_5969)"/>
<path d="M80.1298 351.612H106.395V350.011H80.637L69.6666 341.684H69.3997L0.0277998 341.977V343.552L69.1328 343.258L80.1298 351.612Z" fill="url(#paint78_linear_324_5969)"/>
<path d="M76.1799 358.147H100.977V356.545H76.7137L65.6633 348.512H0.0282397V350.086H65.1562L76.1799 358.147Z" fill="url(#paint79_linear_324_5969)"/>
<path d="M353.235 283.653H427.145V282.078H353.929L344.747 271.562H113.916V273.137H344.026L353.235 283.653Z" fill="url(#paint80_linear_324_5969)"/>
<path d="M354.89 294.678H427.145V293.103H355.611L341.677 276.983H111.968L88.5059 253.176H0.022693V254.75H87.8386L111.301 278.584H340.957L354.89 294.678Z" fill="url(#paint81_linear_324_5969)"/>
<path d="M355.931 306.34H427.145V304.739H356.678L343.546 288.725H108.285L84.8224 264.918H0.022693V266.493H84.1551L107.644 290.3H342.798L355.931 306.34Z" fill="url(#paint82_linear_324_5969)"/>
<path d="M357.426 318.031H427.145V315.656H358.493L344.4 299.322H103.24L79.7777 275.488H0.022693V277.864H78.7902L102.252 301.697H343.306L357.426 318.031Z" fill="url(#paint83_linear_324_5969)"/>
<path d="M355.904 323.101H427.145V321.526H356.625L347.416 311.037H97.3409L73.8522 287.203H0.022693V288.778H73.2115L96.6736 312.612H346.722L355.904 323.101Z" fill="url(#paint84_linear_324_5969)"/>
<path d="M357.506 287.582H427.145V289.157H357.506V287.582Z" fill="url(#paint85_linear_324_5969)"/>
<path d="M357.506 275.891H427.145V277.465H357.506V275.891Z" fill="url(#paint86_linear_324_5969)"/>
<path d="M377.311 269.297H427.145V270.872H377.311V269.297Z" fill="url(#paint87_linear_324_5969)"/>
<path d="M387.641 262.465H427.145V264.04H387.641V262.465Z" fill="url(#paint88_linear_324_5969)"/>
<path d="M357.506 298.895H427.145V300.469H357.506V298.895Z" fill="url(#paint89_linear_324_5969)"/>
<path d="M359.267 310.344H427.145V311.918H359.267V310.344Z" fill="url(#paint90_linear_324_5969)"/>
<path d="M353.582 328.255H427.145V326.681H354.276L350.859 323.051H93.6041V324.625H350.165L353.582 328.255Z" fill="url(#paint91_linear_324_5969)"/>
<path d="M0.00159454 310.344H82.7461V311.918H0.00159454V310.344Z" fill="url(#paint92_linear_324_5969)"/>
<path d="M0.0253906 300.977H73.9883V302.551H0.0253906V300.977Z" fill="url(#paint93_linear_324_5969)"/>
<path d="M181.425 350.21L212.609 383.719L211.457 384.791L180.272 351.283L181.425 350.21Z" fill="url(#paint94_linear_324_5969)"/>
<path d="M191.241 350.218L222.426 383.727L221.273 384.799L190.089 351.291L191.241 350.218Z" fill="url(#paint95_linear_324_5969)"/>
<path d="M0.0262136 413.768H96.7839L96.9974 413.555L130.522 381.207H154.785V379.605H129.882L129.668 379.846L96.1433 412.193H0.0262136V413.768Z" fill="url(#paint96_linear_324_5969)"/>
<path d="M242.918 366.311H427.145V364.737H243.639L211.635 328.332L210.461 329.373L242.918 366.311Z" fill="url(#paint97_linear_324_5969)"/>
<path d="M245.64 359.612H427.145V358.037H246.334L220.016 328.332L218.815 329.373L245.64 359.612Z" fill="url(#paint98_linear_324_5969)"/>
<path d="M213.397 316.992H345.094V318.567H213.397V316.992Z" fill="url(#paint99_linear_324_5969)"/>
<path d="M154.759 305.598H341.574V307.172H154.759V305.598Z" fill="url(#paint100_linear_324_5969)"/>
<path d="M266.433 294.227H340.77V295.801H266.433V294.227Z" fill="url(#paint101_linear_324_5969)"/>
<path d="M110.045 282.535H339.941V284.11H110.045V282.535Z" fill="url(#paint102_linear_324_5969)"/>
<path d="M282.128 333.671H427.145V332.097H282.902L279.619 327.906H229.278V329.481H278.845L282.128 333.671Z" fill="url(#paint103_linear_324_5969)"/>
<path d="M344.774 352.198H427.145V350.623H345.414L341.09 346.406H243.158L231.681 333.488L230.48 334.529L242.464 348.007H340.45L344.774 352.198Z" fill="url(#paint104_linear_324_5969)"/>
<path d="M276.576 339.517H427.145V337.943H277.35L273.48 333.219H238.087V334.793H272.733L276.576 339.517Z" fill="url(#paint105_linear_324_5969)"/>
<path d="M134.575 427.859C141.649 427.859 147.414 422.094 147.414 415.021C147.414 407.949 141.649 402.184 134.575 402.184C127.502 402.184 121.737 407.949 121.737 415.021C121.737 422.094 127.502 427.859 134.575 427.859ZM134.575 404.559C140.341 404.559 145.038 409.256 145.038 415.021C145.038 420.786 140.341 425.484 134.575 425.484C128.81 425.484 124.112 420.786 124.112 415.021C124.112 409.256 128.81 404.559 134.575 404.559Z" fill="url(#paint106_linear_324_5969)"/>
<path d="M134.571 422.415C138.655 422.415 141.965 419.105 141.965 415.022C141.965 410.938 138.655 407.629 134.571 407.629C130.487 407.629 127.178 410.938 127.178 415.022C127.178 419.105 130.487 422.415 134.571 422.415ZM134.571 410.004C137.347 410.004 139.589 412.246 139.589 415.022C139.589 417.798 137.347 420.04 134.571 420.04C131.795 420.04 129.553 417.798 129.553 415.022C129.553 412.246 131.795 410.004 134.571 410.004Z" fill="url(#paint107_linear_324_5969)"/>
<path d="M466.57 237.056H468.145V220.162L454.318 205.456V188.215L466.036 176.658L465.876 148.554L451.676 131.926V67.6313L451.462 67.4178L426.105 39.6073V0H424.53V40.2211L424.744 40.4613L450.101 68.2451V132.514L464.301 149.141L464.461 176.017L452.717 187.574V206.07L466.57 220.776V237.056Z" fill="url(#paint108_linear_324_5969)"/>
<path d="M473.297 237.054H474.898V212.793L462.7 200.356V188.586L474.178 177.91V149.939L458.136 131.523L456.962 132.538L472.603 150.553V177.216L461.125 187.892V200.996L473.297 213.434V237.054Z" fill="url(#paint109_linear_324_5969)"/>
<path d="M480.077 215.781H481.652V237.053H480.077V215.781Z" fill="url(#paint110_linear_324_5969)"/>
<path d="M486.8 237.053H488.375V214.394L483.731 209.136V153.168L483.544 152.928L463.418 129.628V67.6279L463.205 67.4144L431.335 32.2109L430.16 33.2785L461.843 68.2418V130.215L462.03 130.455L482.156 153.755V209.723L486.8 214.981V237.053Z" fill="url(#paint111_linear_324_5969)"/>
<path d="M492.757 237.056H495.934V150.529L473.966 124.96V62.1332L453.067 38.8066V0H449.89V40.0076L470.79 63.3609V126.135L492.757 151.703V237.056Z" fill="url(#paint112_linear_324_5969)"/>
<path d="M500.308 237.056H501.883V147.673L479.355 121.758V97.0431L494.249 84.6058V76.9192L459.977 37.8191V0H458.375V38.4062L492.647 77.5331V83.8585L477.78 96.2958V122.345L500.308 148.26V237.056Z" fill="url(#paint113_linear_324_5969)"/>
<path d="M507.062 220.457H508.637V237.058H507.062V220.457Z" fill="url(#paint114_linear_324_5969)"/>
<path d="M513.789 237.051H515.39V147.934L528.336 134.269V115.96L528.122 115.747L499.135 82.3047L497.934 83.3456L526.734 116.574V133.629L513.789 147.294V237.051Z" fill="url(#paint115_linear_324_5969)"/>
<path d="M520.54 237.053H522.142V151.407L535.621 135.74V115.216L465.155 33.9727L463.954 35.0135L534.046 115.803V135.153L520.54 150.819V237.053Z" fill="url(#paint116_linear_324_5969)"/>
<path d="M527.296 152.984H528.871V237.056H527.296V152.984Z" fill="url(#paint117_linear_324_5969)"/>
<path d="M534.046 237.056H535.621V146.018L541.707 139.773V88.1288L484.16 20.204V0H482.558V20.7645L482.745 21.0047L540.106 88.716V139.133L534.046 145.378V237.056Z" fill="url(#paint118_linear_324_5969)"/>
<path d="M540.8 237.056H542.375V148.794L548.113 141.962V82.9777L547.926 82.7642L493.368 18.4425V0H491.767V19.0296L491.98 19.2432L546.538 83.5649V141.374L540.8 148.207V237.056Z" fill="url(#paint119_linear_324_5969)"/>
<path d="M546.754 237.056H549.904V151.169L555.562 145.591V78.574L502.686 16.0671V0H499.51V17.2147L552.413 79.7216V144.284L546.754 149.835V237.056Z" fill="url(#paint120_linear_324_5969)"/>
<path d="M554.281 237.056H555.883V153.785L566.906 143.296V63.0407L524.893 10.9961V0H523.292V11.5566L565.331 63.6011V142.602L554.281 153.118V237.056Z" fill="url(#paint121_linear_324_5969)"/>
<path d="M561.038 237.057H562.612V157.255L574.09 146.553V115.086H572.515V145.886L561.038 156.561V237.057Z" fill="url(#paint122_linear_324_5969)"/>
<path d="M567.788 237.057H569.363V172.015L580.707 161.259V38.1133H579.106V160.592L567.788 171.321V237.057Z" fill="url(#paint123_linear_324_5969)"/>
<path d="M575.022 237.056H576.597V192.992L587.914 182.263V136.41H586.339V181.569L575.022 192.325V237.056Z" fill="url(#paint124_linear_324_5969)"/>
<path d="M582.843 237.056H584.444V213.329L595.762 202.6V157.895H594.187V201.906L582.843 212.661V237.056Z" fill="url(#paint125_linear_324_5969)"/>
<path d="M591.007 237.058H592.608V222.672L603.926 211.943V181.25H602.351V211.249L591.007 222.005V237.058Z" fill="url(#paint126_linear_324_5969)"/>
<path d="M600.135 237.057H601.71V222.671L613.027 211.942V195.715H611.452V211.248L600.135 222.004V237.057Z" fill="url(#paint127_linear_324_5969)"/>
<path d="M533.647 94.0005L534.848 92.9863L474.898 22.4726V0H473.296V23.0598L473.51 23.2733L533.647 94.0005Z" fill="url(#paint128_linear_324_5969)"/>
<path d="M534.236 105.691L535.438 104.65L467.4 25.275V0H465.825V25.8622L466.012 26.0757L534.236 105.691Z" fill="url(#paint129_linear_324_5969)"/>
<path d="M553.188 69.3928H554.789V58.4768L516.727 11.9035V0H515.125V12.464L515.312 12.6775L553.188 59.0372V69.3928Z" fill="url(#paint130_linear_324_5969)"/>
<path d="M175.473 695.631H177.048V674.412L211.4 638.942H252.238L252.479 638.728L345.419 549.052H386.284L386.525 548.811L457.738 477.364V457.934H456.163V476.723L385.617 547.477H344.779L344.538 547.69L251.598 637.367H210.733L210.492 637.607L175.473 673.772V695.631Z" fill="url(#paint131_linear_324_5969)"/>
<path d="M160.951 695.631H162.526V674.412L219.673 614.655H266.65L266.891 614.441L359.591 525.004L397.44 524.818L397.653 524.577L449.195 473.04V457.934H447.621V472.399L396.773 523.243L358.95 523.43L358.737 523.643L266.01 613.08H219.005L218.765 613.32L160.951 673.799V695.631Z" fill="url(#paint132_linear_324_5969)"/>
<path d="M0.0265992 612.766H105.566L105.806 612.526L162.072 550.926H289.392L289.606 550.686L395.866 442.594H427.148V440.992H395.198L394.958 441.232L288.725 549.352H161.378L161.138 549.592L104.872 611.191H0.0265992V612.766Z" fill="url(#paint133_linear_324_5969)"/>
<path d="M0.0269493 643.482H168.532L225.492 583.937L276.394 584.631L276.847 584.178L359.912 502.454H384.762L436.117 449.396L433.848 447.207L383.428 499.278H358.631L275.112 581.455L224.158 580.761L167.198 640.306H0.0269493V643.482Z" fill="url(#paint134_linear_324_5969)"/>
<path d="M0.0265992 558.453H135.995L136.235 558.186L159.457 532.35H292.195L389.433 435.067H427.148V433.492H388.766L291.527 530.776H158.763L158.522 531.042L135.274 556.878H0.0265992V558.453Z" fill="url(#paint135_linear_324_5969)"/>
<path d="M254.935 485.484C257.791 485.484 260.113 483.162 260.113 480.307C260.113 477.451 257.791 475.129 254.935 475.129C252.079 475.129 249.757 477.451 249.757 480.307C249.757 483.162 252.079 485.484 254.935 485.484ZM254.935 476.73C256.91 476.73 258.512 478.332 258.512 480.307C258.512 482.282 256.91 483.883 254.935 483.883C252.96 483.883 251.358 482.282 251.358 480.307C251.358 478.332 252.96 476.73 254.935 476.73Z" fill="url(#paint136_linear_324_5969)"/>
<path d="M236.224 485.484C239.08 485.484 241.402 483.162 241.402 480.307C241.402 477.451 239.08 475.129 236.224 475.129C233.368 475.129 231.046 477.451 231.046 480.307C231.046 483.162 233.368 485.484 236.224 485.484ZM236.224 476.73C238.199 476.73 239.801 478.332 239.801 480.307C239.801 482.282 238.199 483.883 236.224 483.883C234.249 483.883 232.647 482.282 232.647 480.307C232.647 478.332 234.249 476.73 236.224 476.73Z" fill="url(#paint137_linear_324_5969)"/>
<path d="M217.509 485.484C220.365 485.484 222.688 483.162 222.688 480.307C222.688 477.451 220.365 475.129 217.509 475.129C214.653 475.129 212.331 477.451 212.331 480.307C212.331 483.162 214.653 485.484 217.509 485.484ZM217.509 476.73C219.485 476.73 221.086 478.332 221.086 480.307C221.086 482.282 219.485 483.883 217.509 483.883C215.534 483.883 213.933 482.282 213.933 480.307C213.933 478.332 215.534 476.73 217.509 476.73Z" fill="url(#paint138_linear_324_5969)"/>
<path d="M322.463 615.599C323.798 615.599 325.105 615.092 326.12 614.078C328.122 612.05 328.122 608.794 326.12 606.765C324.118 604.764 320.835 604.737 318.806 606.765C316.804 608.794 316.804 612.05 318.806 614.078C319.82 615.092 321.128 615.599 322.463 615.599ZM322.463 606.845C323.37 606.845 324.305 607.192 324.999 607.886C326.387 609.274 326.387 611.569 324.999 612.957C323.611 614.345 321.315 614.345 319.927 612.957C318.539 611.569 318.539 609.274 319.927 607.886C320.621 607.192 321.555 606.845 322.463 606.845Z" fill="url(#paint139_linear_324_5969)"/>
<path d="M309.228 628.831C310.616 628.831 311.897 628.297 312.885 627.309C313.872 626.322 314.406 625.041 314.406 623.653C314.406 622.265 313.872 620.984 312.885 619.996C310.936 618.048 307.52 618.048 305.571 619.996C304.584 620.984 304.05 622.265 304.05 623.653C304.05 625.041 304.584 626.322 305.571 627.309C306.559 628.297 307.84 628.831 309.228 628.831ZM309.228 620.076C310.189 620.076 311.096 620.45 311.764 621.117C312.431 621.785 312.805 622.692 312.805 623.653C312.805 624.614 312.431 625.521 311.764 626.188C310.403 627.55 308.054 627.55 306.692 626.188C306.025 625.521 305.651 624.614 305.651 623.653C305.651 622.692 306.025 621.785 306.692 621.117C307.36 620.45 308.267 620.076 309.228 620.076Z" fill="url(#paint140_linear_324_5969)"/>
<path d="M295.986 642.045C297.321 642.045 298.629 641.538 299.643 640.523C301.645 638.495 301.645 635.239 299.643 633.211C297.615 631.182 294.358 631.209 292.33 633.211C290.301 635.239 290.301 638.495 292.33 640.523C293.344 641.538 294.652 642.045 295.986 642.045ZM295.986 633.317C296.894 633.317 297.828 633.664 298.522 634.358C299.91 635.746 299.91 638.041 298.522 639.429C297.107 640.817 294.839 640.817 293.451 639.429C292.063 638.041 292.063 635.746 293.451 634.358C294.145 633.664 295.079 633.317 295.986 633.317Z" fill="url(#paint141_linear_324_5969)"/>
<path d="M174.962 589.12C176.35 589.12 177.632 588.586 178.619 587.598C179.607 586.611 180.141 585.33 180.141 583.942C180.141 582.554 179.607 581.273 178.619 580.285C176.671 578.337 173.281 578.337 171.306 580.285C169.304 582.287 169.304 585.57 171.306 587.598C172.293 588.586 173.574 589.12 174.962 589.12ZM174.962 580.366C175.923 580.366 176.831 580.739 177.498 581.406C178.165 582.074 178.539 582.981 178.539 583.942C178.539 584.903 178.165 585.81 177.498 586.477C176.137 587.839 173.788 587.839 172.427 586.477C171.039 585.09 171.039 582.794 172.427 581.406C173.094 580.739 174.002 580.366 174.962 580.366Z" fill="url(#paint142_linear_324_5969)"/>
<path d="M161.721 602.353C163.109 602.353 164.39 601.82 165.377 600.832C167.379 598.83 167.379 595.548 165.377 593.519C163.349 591.491 160.066 591.517 158.064 593.519C157.076 594.507 156.542 595.788 156.542 597.176C156.542 598.563 157.076 599.845 158.064 600.832C159.051 601.82 160.333 602.353 161.721 602.353ZM161.721 593.599C162.628 593.599 163.562 593.946 164.256 594.64C165.644 596.028 165.644 598.323 164.256 599.711C162.895 601.072 160.546 601.072 159.185 599.711C158.518 599.044 158.144 598.136 158.144 597.176C158.144 596.215 158.518 595.307 159.185 594.64C159.879 593.946 160.813 593.599 161.721 593.599Z" fill="url(#paint143_linear_324_5969)"/>
<path d="M148.486 615.599C149.821 615.599 151.129 615.092 152.143 614.078C154.145 612.05 154.145 608.794 152.143 606.765C150.141 604.764 146.858 604.737 144.83 606.765C142.828 608.794 142.828 612.05 144.83 614.078C145.844 615.092 147.152 615.599 148.486 615.599ZM148.486 606.845C149.394 606.845 150.328 607.192 151.022 607.886C152.41 609.274 152.41 611.569 151.022 612.957C149.634 614.345 147.339 614.345 145.951 612.957C144.563 611.569 144.563 609.274 145.951 607.886C146.645 607.192 147.579 606.845 148.486 606.845Z" fill="url(#paint144_linear_324_5969)"/>
<path d="M63.8173 591.337C67.9012 591.337 71.2109 588.027 71.2109 583.944C71.2109 579.86 67.9012 576.551 63.8173 576.551C59.7335 576.551 56.4238 579.86 56.4238 583.944C56.4238 588.027 59.7335 591.337 63.8173 591.337ZM63.8173 578.926C66.5933 578.926 68.8354 581.168 68.8354 583.944C68.8354 586.719 66.5933 588.961 63.8173 588.961C61.0414 588.961 58.7993 586.719 58.7993 583.944C58.7993 581.168 61.0414 578.926 63.8173 578.926Z" fill="url(#paint145_linear_324_5969)"/>
<path d="M38.3602 591.337C42.4441 591.337 45.7539 588.027 45.7539 583.944C45.7539 579.86 42.4441 576.551 38.3602 576.551C34.2764 576.551 30.9666 579.86 30.9666 583.944C30.9666 588.027 34.2764 591.337 38.3602 591.337ZM38.3602 578.926C41.1362 578.926 43.3783 581.168 43.3783 583.944C43.3783 586.719 41.1362 588.961 38.3602 588.961C35.5843 588.961 33.3422 586.719 33.3422 583.944C33.3422 581.168 35.5843 578.926 38.3602 578.926Z" fill="url(#paint146_linear_324_5969)"/>
<path d="M788.259 536.138H916.459L957.111 498.879H1075.2V496.504H956.177L915.552 533.762H789.38L748.835 485.668H716.965L676.821 436.266H648.047V438.614H675.7L715.844 488.043H747.741L788.259 536.138Z" fill="url(#paint147_linear_324_5969)"/>
<path d="M918.008 695.631H919.609V655.596L866.866 593.463H761.327L700.203 519.693L664.863 519.907L627.014 478.378V457.934H625.439V478.992L625.653 479.205L664.169 521.508L699.456 521.295L760.58 595.038H866.146L918.008 656.183V695.631Z" fill="url(#paint148_linear_324_5969)"/>
<path d="M977.796 695.634H979.371V638.758L979.158 638.518L925.213 579.428H772.884L716.751 511.93H716.377C698.227 512.01 671.054 512.09 668.385 511.956C666.303 510.035 646.685 488.123 633.552 473.363V457.91H631.978V473.977L632.165 474.191C666.891 513.211 667.584 513.398 667.878 513.478C668.625 513.691 698.173 513.584 716.03 513.504L772.136 581.002H924.52L977.796 639.346V695.607V695.634Z" fill="url(#paint149_linear_324_5969)"/>
<path d="M966.106 580.339H1075.2V578.765H966.773L935.891 547.458H935.571L787.244 548.686L740.534 494.479H710.212L670.495 445.664H648.047V447.265H669.747L709.438 496.054H739.813L786.524 550.26L935.25 549.059L966.106 580.339Z" fill="url(#paint150_linear_324_5969)"/>
<path d="M965.225 603.314H1075.2V600.138H966.613L931.166 561.865H780.838L730.151 502L687.097 502.134L644.257 453.719L641.881 455.827L685.682 505.31L728.683 505.149L779.37 565.014H929.805L965.225 603.314Z" fill="url(#paint151_linear_324_5969)"/>
<path d="M886.759 514.177C890.843 514.177 894.152 510.867 894.152 506.784C894.152 502.7 890.843 499.391 886.759 499.391C882.675 499.391 879.365 502.7 879.365 506.784C879.365 510.867 882.675 514.177 886.759 514.177ZM886.759 501.766C889.535 501.766 891.777 504.008 891.777 506.784C891.777 509.559 889.535 511.801 886.759 511.801C883.983 511.801 881.741 509.559 881.741 506.784C881.741 504.008 883.983 501.766 886.759 501.766Z" fill="url(#paint152_linear_324_5969)"/>
<path d="M861.29 514.177C865.374 514.177 868.684 510.867 868.684 506.784C868.684 502.7 865.374 499.391 861.29 499.391C857.206 499.391 853.896 502.7 853.896 506.784C853.896 510.867 857.206 514.177 861.29 514.177ZM861.29 501.766C864.066 501.766 866.308 504.008 866.308 506.784C866.308 509.559 864.066 511.801 861.29 511.801C858.514 511.801 856.272 509.559 856.272 506.784C856.272 504.008 858.514 501.766 861.29 501.766Z" fill="url(#paint153_linear_324_5969)"/>
<path d="M835.72 514.177C839.803 514.177 843.113 510.867 843.113 506.784C843.113 502.7 839.803 499.391 835.72 499.391C831.636 499.391 828.326 502.7 828.326 506.784C828.326 510.867 831.636 514.177 835.72 514.177ZM835.72 501.766C838.496 501.766 840.738 504.008 840.738 506.784C840.738 509.559 838.496 511.801 835.72 511.801C832.944 511.801 830.702 509.559 830.702 506.784C830.702 504.008 832.944 501.766 835.72 501.766Z" fill="url(#paint154_linear_324_5969)"/>
<path d="M829.474 624.453C832.33 624.453 834.652 622.131 834.652 619.275C834.652 616.42 832.33 614.098 829.474 614.098C826.618 614.098 824.296 616.42 824.296 619.275C824.296 622.131 826.618 624.453 829.474 624.453ZM829.474 615.699C831.449 615.699 833.051 617.3 833.051 619.275C833.051 621.25 831.449 622.852 829.474 622.852C827.499 622.852 825.897 621.25 825.897 619.275C825.897 617.3 827.499 615.699 829.474 615.699Z" fill="url(#paint155_linear_324_5969)"/>
<path d="M810.759 624.453C813.615 624.453 815.938 622.131 815.938 619.275C815.938 616.42 813.615 614.098 810.759 614.098C807.903 614.098 805.581 616.42 805.581 619.275C805.581 622.131 807.903 624.453 810.759 624.453ZM810.759 615.699C812.734 615.699 814.336 617.3 814.336 619.275C814.336 621.25 812.734 622.852 810.759 622.852C808.784 622.852 807.183 621.25 807.183 619.275C807.183 617.3 808.784 615.699 810.759 615.699Z" fill="url(#paint156_linear_324_5969)"/>
<path d="M792.048 624.453C794.904 624.453 797.227 622.131 797.227 619.275C797.227 616.42 794.904 614.098 792.048 614.098C789.192 614.098 786.87 616.42 786.87 619.275C786.87 622.131 789.192 624.453 792.048 624.453ZM792.048 615.699C794.024 615.699 795.625 617.3 795.625 619.275C795.625 621.25 794.024 622.852 792.048 622.852C790.073 622.852 788.472 621.25 788.472 619.275C788.472 617.3 790.073 615.699 792.048 615.699Z" fill="url(#paint157_linear_324_5969)"/>
<path d="M1034.39 542.574C1037.24 542.574 1039.57 540.252 1039.57 537.397C1039.57 534.541 1037.24 532.219 1034.39 532.219C1031.53 532.219 1029.21 534.541 1029.21 537.397C1029.21 540.252 1031.53 542.574 1034.39 542.574ZM1034.39 533.82C1036.36 533.82 1037.96 535.422 1037.96 537.397C1037.96 539.372 1036.36 540.973 1034.39 540.973C1032.41 540.973 1030.81 539.372 1030.81 537.397C1030.81 535.422 1032.41 533.82 1034.39 533.82Z" fill="url(#paint158_linear_324_5969)"/>
<path d="M1015.65 542.574C1018.51 542.574 1020.83 540.252 1020.83 537.397C1020.83 534.541 1018.51 532.219 1015.65 532.219C1012.79 532.219 1010.47 534.541 1010.47 537.397C1010.47 540.252 1012.79 542.574 1015.65 542.574ZM1015.65 533.82C1017.63 533.82 1019.23 535.422 1019.23 537.397C1019.23 539.372 1017.63 540.973 1015.65 540.973C1013.67 540.973 1012.07 539.372 1012.07 537.397C1012.07 535.422 1013.67 533.82 1015.65 533.82Z" fill="url(#paint159_linear_324_5969)"/>
<path d="M996.935 542.574C999.791 542.574 1002.11 540.252 1002.11 537.397C1002.11 534.541 999.791 532.219 996.935 532.219C994.079 532.219 991.757 534.541 991.757 537.397C991.757 540.252 994.079 542.574 996.935 542.574ZM996.935 533.82C998.91 533.82 1000.51 535.422 1000.51 537.397C1000.51 539.372 998.91 540.973 996.935 540.973C994.96 540.973 993.358 539.372 993.358 537.397C993.358 535.422 994.96 533.82 996.935 533.82Z" fill="url(#paint160_linear_324_5969)"/>
<path d="M645.164 242.365L719.474 175.455V147.111L694.277 123.971V75.2357L722.41 46.411H754.974L767.599 33.7868H918.915L928.738 23.6448H1075.2V20.4688H927.376L917.58 30.6375H766.291L753.666 43.2349H721.102L691.101 73.9546V125.385L716.324 148.498V174.067L643.055 240.017L645.164 242.365Z" fill="url(#paint161_linear_324_5969)"/>
<path d="M648.581 251.417L729.884 178.368V143.512L729.617 143.272L703.032 119.198L702.792 80.2575L727.135 54.7424L757.99 54.7157L772.35 41.3442H1075.2V39.7695H771.737L757.376 53.1143L726.441 53.1677L701.217 79.6437L701.457 119.918L728.309 144.206V177.674L647.513 250.243L648.581 251.417Z" fill="url(#paint162_linear_324_5969)"/>
<path d="M648.047 264.68H688.645L688.859 264.467L796.747 168.945H935.437L959.593 192.058H1075.2V190.484H960.234L936.051 167.344H796.159L795.919 167.557L688.031 263.079H648.047V264.68Z" fill="url(#paint163_linear_324_5969)"/>
<path d="M634.808 237.642L707.463 170.838L707.703 152.049L682.186 129.309L681.999 70.4056L716.698 35.5491H748.568L760.926 22.8449H911.148L921.664 12.0356H1075.2V10.4609H920.997L910.48 21.2702H760.259L747.901 33.9744H716.031L680.424 69.7651L680.611 130.03L706.101 152.743L705.888 170.118L633.74 236.468L634.808 237.642Z" fill="url(#paint164_linear_324_5969)"/>
<path d="M828.003 124.161H829.578V78.0418L854.935 57.0906H1075.2V55.5159H854.374L828.003 77.2945V124.161Z" fill="url(#paint165_linear_324_5969)"/>
<path d="M833.795 122.397H835.37V81.0283L857.444 63.0395H1075.2V61.4648H856.883L833.795 80.281V122.397Z" fill="url(#paint166_linear_324_5969)"/>
<path d="M839.56 124.158H841.135V84.524L859.819 69.2309H1075.2V67.6562H859.259L839.56 83.7767V124.158Z" fill="url(#paint167_linear_324_5969)"/>
<path d="M834.567 146.871C841.641 146.871 847.406 141.106 847.406 134.033C847.406 126.96 841.641 121.195 834.567 121.195C827.494 121.195 821.729 126.96 821.729 134.033C821.729 141.106 827.494 146.871 834.567 146.871ZM834.567 123.571C840.333 123.571 845.031 128.268 845.031 134.033C845.031 139.798 840.333 144.495 834.567 144.495C828.802 144.495 824.104 139.798 824.104 134.033C824.104 128.268 828.802 123.571 834.567 123.571Z" fill="url(#paint168_linear_324_5969)"/>
<path d="M834.571 141.427C838.655 141.427 841.965 138.117 841.965 134.034C841.965 129.95 838.655 126.641 834.571 126.641C830.487 126.641 827.178 129.95 827.178 134.034C827.178 138.117 830.487 141.427 834.571 141.427ZM834.571 129.016C837.347 129.016 839.589 131.258 839.589 134.034C839.589 136.809 837.347 139.051 834.571 139.051C831.795 139.051 829.553 136.809 829.553 134.034C829.553 131.258 831.795 129.016 834.571 129.016Z" fill="url(#paint169_linear_324_5969)"/>
<path d="M782.361 101.871C785.217 101.871 787.539 99.5492 787.539 96.6934C787.539 93.8376 785.217 91.5156 782.361 91.5156C779.505 91.5156 777.183 93.8376 777.183 96.6934C777.183 99.5492 779.505 101.871 782.361 101.871ZM782.361 93.117C784.336 93.117 785.938 94.7184 785.938 96.6934C785.938 98.6684 784.336 100.27 782.361 100.27C780.386 100.27 778.784 98.6684 778.784 96.6934C778.784 94.7184 780.386 93.117 782.361 93.117Z" fill="url(#paint170_linear_324_5969)"/>
<path d="M763.65 101.871C766.506 101.871 768.828 99.5492 768.828 96.6934C768.828 93.8376 766.506 91.5156 763.65 91.5156C760.794 91.5156 758.472 93.8376 758.472 96.6934C758.472 99.5492 760.794 101.871 763.65 101.871ZM763.65 93.117C765.625 93.117 767.227 94.7184 767.227 96.6934C767.227 98.6684 765.625 100.27 763.65 100.27C761.675 100.27 760.073 98.6684 760.073 96.6934C760.073 94.7184 761.675 93.117 763.65 93.117Z" fill="url(#paint171_linear_324_5969)"/>
<path d="M744.935 101.871C747.791 101.871 750.113 99.5492 750.113 96.6934C750.113 93.8376 747.791 91.5156 744.935 91.5156C742.079 91.5156 739.757 93.8376 739.757 96.6934C739.757 99.5492 742.079 101.871 744.935 101.871ZM744.935 93.117C746.91 93.117 748.512 94.7184 748.512 96.6934C748.512 98.6684 746.91 100.27 744.935 100.27C742.96 100.27 741.358 98.6684 741.358 96.6934C741.358 94.7184 742.96 93.117 744.935 93.117Z" fill="url(#paint172_linear_324_5969)"/>
<path d="M980.681 110.625C983.537 110.625 985.859 108.303 985.859 105.447C985.859 102.592 983.537 100.27 980.681 100.27C977.825 100.27 975.503 102.592 975.503 105.447C975.503 108.303 977.825 110.625 980.681 110.625ZM980.681 101.871C982.656 101.871 984.258 103.472 984.258 105.447C984.258 107.422 982.656 109.024 980.681 109.024C978.706 109.024 977.104 107.422 977.104 105.447C977.104 103.472 978.706 101.871 980.681 101.871Z" fill="url(#paint173_linear_324_5969)"/>
<path d="M961.943 110.625C964.799 110.625 967.121 108.303 967.121 105.447C967.121 102.592 964.799 100.27 961.943 100.27C959.087 100.27 956.765 102.592 956.765 105.447C956.765 108.303 959.087 110.625 961.943 110.625ZM961.943 101.871C963.918 101.871 965.52 103.472 965.52 105.447C965.52 107.422 963.918 109.024 961.943 109.024C959.968 109.024 958.366 107.422 958.366 105.447C958.366 103.472 959.968 101.871 961.943 101.871Z" fill="url(#paint174_linear_324_5969)"/>
<path d="M943.232 110.625C946.088 110.625 948.41 108.303 948.41 105.447C948.41 102.592 946.088 100.27 943.232 100.27C940.376 100.27 938.054 102.592 938.054 105.447C938.054 108.303 940.376 110.625 943.232 110.625ZM943.232 101.871C945.207 101.871 946.809 103.472 946.809 105.447C946.809 107.422 945.207 109.024 943.232 109.024C941.257 109.024 939.655 107.422 939.655 105.447C939.655 103.472 941.257 101.871 943.232 101.871Z" fill="url(#paint175_linear_324_5969)"/>
<path d="M644.126 82.9501C648.21 82.9501 651.52 79.6406 651.52 75.5571C651.52 71.4736 648.21 68.1641 644.126 68.1641C640.042 68.1641 636.732 71.4736 636.732 75.5571C636.732 79.6406 640.042 82.9501 644.126 82.9501ZM644.126 70.5394C646.902 70.5394 649.144 72.7813 649.144 75.5571C649.144 78.3328 646.902 80.5747 644.126 80.5747C641.35 80.5747 639.108 78.3328 639.108 75.5571C639.108 72.7813 641.35 70.5394 644.126 70.5394Z" fill="url(#paint176_linear_324_5969)"/>
<path d="M644.126 108.415C648.21 108.415 651.52 105.105 651.52 101.022C651.52 96.9384 648.21 93.6289 644.126 93.6289C640.042 93.6289 636.732 96.9384 636.732 101.022C636.732 105.105 640.042 108.415 644.126 108.415ZM644.126 96.0043C646.902 96.0043 649.144 98.2462 649.144 101.022C649.144 103.798 646.902 106.04 644.126 106.04C641.35 106.04 639.108 103.798 639.108 101.022C639.108 98.2462 641.35 96.0043 644.126 96.0043Z" fill="url(#paint177_linear_324_5969)"/>
<path d="M644.126 133.981C648.21 133.981 651.52 130.672 651.52 126.588C651.52 122.505 648.21 119.195 644.126 119.195C640.042 119.195 636.732 122.505 636.732 126.588C636.732 130.672 640.042 133.981 644.126 133.981ZM644.126 121.571C646.902 121.571 649.144 123.813 649.144 126.588C649.144 129.364 646.902 131.606 644.126 131.606C641.35 131.606 639.108 129.364 639.108 126.588C639.108 123.813 641.35 121.571 644.126 121.571Z" fill="url(#paint178_linear_324_5969)"/>
<path d="M435.102 238.656L436.223 237.562L402.564 203.079H231.39L176.218 152.636V92.6911L175.951 92.4509L111.277 36.6965H45.802L20.8186 13.7969H0.0256688V15.3982H20.2046L45.1881 38.2712H110.69L174.643 93.4117V153.33L230.776 204.654H401.897L435.102 238.656Z" fill="url(#paint179_linear_324_5969)"/>
<path d="M429.637 243.25L431.879 241.035L399.609 207.966H222.055L167.363 157.977V98.0055L101.942 41.5839H42.4192L17.4357 18.7109H0.0326912V21.8603H16.2079L41.1914 44.7332H100.767L164.214 99.4468V159.365L220.827 211.142H398.274L429.637 243.25Z" fill="url(#paint180_linear_324_5969)"/>
<path d="M427.126 248.826L428.273 247.705L396.217 214.877H212.631L157.459 164.433L156.738 104.515L92.9714 48.494H39.054L14.0705 25.6211H0.0305877V27.1958H13.4565L38.44 50.0687H92.3841L155.163 105.236L155.884 165.154L212.017 216.478H395.549L427.126 248.826Z" fill="url(#paint181_linear_324_5969)"/>
<path d="M291.875 78.1203H351.051V76.5189H292.542L263.235 46.6533V0H261.633V47.2938L291.875 78.1203Z" fill="url(#paint182_linear_324_5969)"/>
<path d="M288.751 83.6183H349.875V82.0436H289.418L257.308 49.5891V0H255.733V50.2297L288.751 83.6183Z" fill="url(#paint183_linear_324_5969)"/>
<path d="M285.923 89.5967H351.051V88.0221H286.59L250.983 51.7777V0H249.408V52.4182L249.622 52.6584L285.923 89.5967Z" fill="url(#paint184_linear_324_5969)"/>
<path d="M361.517 95.6519C368.59 95.6519 374.355 89.887 374.355 82.8142C374.355 75.7415 368.59 69.9766 361.517 69.9766C354.443 69.9766 348.678 75.7415 348.678 82.8142C348.678 89.887 354.443 95.6519 361.517 95.6519ZM361.517 72.3519C367.282 72.3519 371.98 77.0493 371.98 82.8142C371.98 88.5792 367.282 93.2765 361.517 93.2765C355.751 93.2765 351.054 88.5792 351.054 82.8142C351.054 77.0493 355.751 72.3519 361.517 72.3519Z" fill="url(#paint185_linear_324_5969)"/>
<path d="M361.513 90.2118C365.596 90.2118 368.906 86.9023 368.906 82.8188C368.906 78.7353 365.596 75.4258 361.513 75.4258C357.429 75.4258 354.119 78.7353 354.119 82.8188C354.119 86.9023 357.429 90.2118 361.513 90.2118ZM361.513 77.8011C364.289 77.8011 366.531 80.0431 366.531 82.8188C366.531 85.5945 364.289 87.8364 361.513 87.8364C358.737 87.8364 356.495 85.5945 356.495 82.8188C356.495 80.0431 358.737 77.8011 361.513 77.8011Z" fill="url(#paint186_linear_324_5969)"/>
<path d="M319.876 145.645C323.96 145.645 327.27 142.336 327.27 138.252C327.27 134.169 323.96 130.859 319.876 130.859C315.792 130.859 312.482 134.169 312.482 138.252C312.482 142.336 315.792 145.645 319.876 145.645ZM319.876 133.208C322.652 133.208 324.894 135.45 324.894 138.226C324.894 141.001 322.652 143.243 319.876 143.243C317.1 143.243 314.858 141.001 314.858 138.226C314.858 135.45 317.1 133.208 319.876 133.208Z" fill="url(#paint187_linear_324_5969)"/>
<path d="M294.411 145.645C298.495 145.645 301.805 142.336 301.805 138.252C301.805 134.169 298.495 130.859 294.411 130.859C290.327 130.859 287.017 134.169 287.017 138.252C287.017 142.336 290.327 145.645 294.411 145.645ZM294.411 133.208C297.187 133.208 299.429 135.45 299.429 138.226C299.429 141.001 297.187 143.243 294.411 143.243C291.635 143.243 289.393 141.001 289.393 138.226C289.393 135.45 291.635 133.208 294.411 133.208Z" fill="url(#paint188_linear_324_5969)"/>
<path d="M442.203 237.056H443.777V222.751L403.9 182.823H269.4L199.121 116.206L198.747 86.4474L198.507 86.2072L157.081 48.2547V0H155.506V48.9486L197.172 87.1413L197.546 116.9L197.786 117.114L268.759 184.398H403.259L442.203 223.418V237.056Z" fill="url(#paint189_linear_324_5969)"/>
<path d="M406.783 254.75H427.148V253.175H407.45L386.043 231.423H200.402L124.17 160.669V127.734L123.903 127.494L90.058 98.2422H0.0265992V99.8169H89.4708L122.595 128.455V161.363L199.761 232.998H385.402L406.783 254.75Z" fill="url(#paint190_linear_324_5969)"/>
</g>
<defs>
<linearGradient id="paint0_linear_324_5969" x1="645.137" y1="267.692" x2="1068.31" y2="267.692" gradientUnits="userSpaceOnUse">
<stop stop-color="#04C1DE"/>
<stop offset="0.8" stop-color="#000205"/>
<stop offset="1" stop-color="#000408"/>
</linearGradient>
<linearGradient id="paint1_linear_324_5969" x1="1075.2" y1="275.462" x2="1072.53" y2="275.462" gradientUnits="userSpaceOnUse">
<stop stop-color="#04C1DE"/>
<stop offset="0.8" stop-color="#000205"/>
<stop offset="1" stop-color="#000408"/>
</linearGradient>
<linearGradient id="paint2_linear_324_5969" x1="1075.2" y1="288.38" x2="1072.53" y2="288.38" gradientUnits="userSpaceOnUse">
<stop stop-color="#04C1DE"/>
<stop offset="0.8" stop-color="#000205"/>
<stop offset="1" stop-color="#000408"/>
</linearGradient>
<linearGradient id="paint3_linear_324_5969" x1="1075.2" y1="292.999" x2="1072.53" y2="292.999" gradientUnits="userSpaceOnUse">
<stop stop-color="#04C1DE"/>
<stop offset="0.8" stop-color="#000205"/>
<stop offset="1" stop-color="#000408"/>
</linearGradient>
<linearGradient id="paint4_linear_324_5969" x1="1075.2" y1="297.645" x2="1072.53" y2="297.645" gradientUnits="userSpaceOnUse">
<stop stop-color="#04C1DE"/>
<stop offset="0.8" stop-color="#000205"/>
<stop offset="1" stop-color="#000408"/>
</linearGradient>
<linearGradient id="paint5_linear_324_5969" x1="1075.2" y1="302.252" x2="1072.53" y2="302.252" gradientUnits="userSpaceOnUse">
<stop stop-color="#04C1DE"/>
<stop offset="0.8" stop-color="#000205"/>
<stop offset="1" stop-color="#000408"/>
</linearGradient>
<linearGradient id="paint6_linear_324_5969" x1="1075.2" y1="307.057" x2="1072.53" y2="307.057" gradientUnits="userSpaceOnUse">
<stop stop-color="#04C1DE"/>
<stop offset="0.8" stop-color="#000205"/>
<stop offset="1" stop-color="#000408"/>
</linearGradient>
<linearGradient id="paint7_linear_324_5969" x1="1075.2" y1="356.363" x2="1072.53" y2="356.363" gradientUnits="userSpaceOnUse">
<stop stop-color="#04C1DE"/>
<stop offset="0.8" stop-color="#000205"/>
<stop offset="1" stop-color="#000408"/>
</linearGradient>
<linearGradient id="paint8_linear_324_5969" x1="1075.2" y1="362.39" x2="1072.53" y2="362.39" gradientUnits="userSpaceOnUse">
<stop stop-color="#04C1DE"/>
<stop offset="0.8" stop-color="#000205"/>
<stop offset="1" stop-color="#000408"/>
</linearGradient>
<linearGradient id="paint9_linear_324_5969" x1="1075.2" y1="367.378" x2="1072.53" y2="367.378" gradientUnits="userSpaceOnUse">
<stop stop-color="#04C1DE"/>
<stop offset="0.8" stop-color="#000205"/>
<stop offset="1" stop-color="#000408"/>
</linearGradient>
<linearGradient id="paint10_linear_324_5969" x1="1075.2" y1="372.581" x2="1072.53" y2="372.581" gradientUnits="userSpaceOnUse">
<stop stop-color="#04C1DE"/>
<stop offset="0.8" stop-color="#000205"/>
<stop offset="1" stop-color="#000408"/>
</linearGradient>
<linearGradient id="paint11_linear_324_5969" x1="1075.2" y1="377.683" x2="1072.53" y2="377.683" gradientUnits="userSpaceOnUse">
<stop stop-color="#04C1DE"/>
<stop offset="0.8" stop-color="#000205"/>
<stop offset="1" stop-color="#000408"/>
</linearGradient>
<linearGradient id="paint12_linear_324_5969" x1="645.137" y1="389.345" x2="1068.31" y2="389.345" gradientUnits="userSpaceOnUse">
<stop stop-color="#04C1DE"/>
<stop offset="0.8" stop-color="#000205"/>
<stop offset="1" stop-color="#000408"/>
</linearGradient>
<linearGradient id="paint13_linear_324_5969" x1="1075.2" y1="414.09" x2="1072.53" y2="414.09" gradientUnits="userSpaceOnUse">
<stop stop-color="#04C1DE"/>
<stop offset="0.8" stop-color="#000205"/>
<stop offset="1" stop-color="#000408"/>
</linearGradient>
<linearGradient id="paint14_linear_324_5969" x1="645.136" y1="398.978" x2="1068.31" y2="398.978" gradientUnits="userSpaceOnUse">
<stop stop-color="#04C1DE"/>
<stop offset="0.8" stop-color="#000205"/>
<stop offset="1" stop-color="#000408"/>
</linearGradient>
<linearGradient id="paint15_linear_324_5969" x1="645.14" y1="398.979" x2="1068.31" y2="398.979" gradientUnits="userSpaceOnUse">
<stop stop-color="#04C1DE"/>
<stop offset="0.8" stop-color="#000205"/>
<stop offset="1" stop-color="#000408"/>
</linearGradient>
<linearGradient id="paint16_linear_324_5969" x1="645.135" y1="407.736" x2="1068.31" y2="407.736" gradientUnits="userSpaceOnUse">
<stop stop-color="#04C1DE"/>
<stop offset="0.8" stop-color="#000205"/>
<stop offset="1" stop-color="#000408"/>
</linearGradient>
<linearGradient id="paint17_linear_324_5969" x1="645.137" y1="386.706" x2="1068.31" y2="386.706" gradientUnits="userSpaceOnUse">
<stop stop-color="#04C1DE"/>
<stop offset="0.8" stop-color="#000205"/>
<stop offset="1" stop-color="#000408"/>
</linearGradient>
<linearGradient id="paint18_linear_324_5969" x1="645.139" y1="383.711" x2="1068.31" y2="383.711" gradientUnits="userSpaceOnUse">
<stop stop-color="#04C1DE"/>
<stop offset="0.8" stop-color="#000205"/>
<stop offset="1" stop-color="#000408"/>
</linearGradient>
<linearGradient id="paint19_linear_324_5969" x1="645.135" y1="402.238" x2="1068.31" y2="402.238" gradientUnits="userSpaceOnUse">
<stop stop-color="#04C1DE"/>
<stop offset="0.8" stop-color="#000205"/>
<stop offset="1" stop-color="#000408"/>
</linearGradient>
<linearGradient id="paint20_linear_324_5969" x1="1075.2" y1="395.166" x2="1072.53" y2="395.166" gradientUnits="userSpaceOnUse">
<stop stop-color="#04C1DE"/>
<stop offset="0.8" stop-color="#000205"/>
<stop offset="1" stop-color="#000408"/>
</linearGradient>
<linearGradient id="paint21_linear_324_5969" x1="1075.2" y1="400.263" x2="1072.53" y2="400.263" gradientUnits="userSpaceOnUse">
<stop stop-color="#04C1DE"/>
<stop offset="0.8" stop-color="#000205"/>
<stop offset="1" stop-color="#000408"/>
</linearGradient>
<linearGradient id="paint22_linear_324_5969" x1="645.142" y1="405.36" x2="1068.31" y2="405.36" gradientUnits="userSpaceOnUse">
<stop stop-color="#04C1DE"/>
<stop offset="0.8" stop-color="#000205"/>
<stop offset="1" stop-color="#000408"/>
</linearGradient>
<linearGradient id="paint23_linear_324_5969" x1="645.14" y1="396.629" x2="1068.31" y2="396.629" gradientUnits="userSpaceOnUse">
<stop stop-color="#04C1DE"/>
<stop offset="0.8" stop-color="#000205"/>
<stop offset="1" stop-color="#000408"/>
</linearGradient>
<linearGradient id="paint24_linear_324_5969" x1="645.14" y1="391.453" x2="1068.31" y2="391.453" gradientUnits="userSpaceOnUse">
<stop stop-color="#04C1DE"/>
<stop offset="0.8" stop-color="#000205"/>
<stop offset="1" stop-color="#000408"/>
</linearGradient>
<linearGradient id="paint25_linear_324_5969" x1="645.136" y1="382.113" x2="1068.31" y2="382.113" gradientUnits="userSpaceOnUse">
<stop stop-color="#04C1DE"/>
<stop offset="0.8" stop-color="#000205"/>
<stop offset="1" stop-color="#000408"/>
</linearGradient>
<linearGradient id="paint26_linear_324_5969" x1="645.138" y1="391.453" x2="1068.34" y2="391.453" gradientUnits="userSpaceOnUse">
<stop stop-color="#04C1DE"/>
<stop offset="0.8" stop-color="#000205"/>
<stop offset="1" stop-color="#000408"/>
</linearGradient>
<linearGradient id="paint27_linear_324_5969" x1="645.136" y1="412.698" x2="1068.31" y2="412.698" gradientUnits="userSpaceOnUse">
<stop stop-color="#04C1DE"/>
<stop offset="0.8" stop-color="#000205"/>
<stop offset="1" stop-color="#000408"/>
</linearGradient>
<linearGradient id="paint28_linear_324_5969" x1="645.135" y1="330.634" x2="1068.31" y2="330.634" gradientUnits="userSpaceOnUse">
<stop stop-color="#04C1DE"/>
<stop offset="0.8" stop-color="#000205"/>
<stop offset="1" stop-color="#000408"/>
</linearGradient>
<linearGradient id="paint29_linear_324_5969" x1="645.136" y1="316.719" x2="1068.31" y2="316.719" gradientUnits="userSpaceOnUse">
<stop stop-color="#04C1DE"/>
<stop offset="0.8" stop-color="#000205"/>
<stop offset="1" stop-color="#000408"/>
</linearGradient>
<linearGradient id="paint30_linear_324_5969" x1="645.143" y1="295.664" x2="1068.31" y2="295.664" gradientUnits="userSpaceOnUse">
<stop stop-color="#04C1DE"/>
<stop offset="0.8" stop-color="#000205"/>
<stop offset="1" stop-color="#000408"/>
</linearGradient>
<linearGradient id="paint31_linear_324_5969" x1="645.143" y1="308.343" x2="1068.31" y2="308.343" gradientUnits="userSpaceOnUse">
<stop stop-color="#04C1DE"/>
<stop offset="0.8" stop-color="#000205"/>
<stop offset="1" stop-color="#000408"/>
</linearGradient>
<linearGradient id="paint32_linear_324_5969" x1="645.139" y1="305.893" x2="1068.31" y2="305.893" gradientUnits="userSpaceOnUse">
<stop stop-color="#04C1DE"/>
<stop offset="0.8" stop-color="#000205"/>
<stop offset="1" stop-color="#000408"/>
</linearGradient>
<linearGradient id="paint33_linear_324_5969" x1="645.138" y1="302.679" x2="1068.31" y2="302.679" gradientUnits="userSpaceOnUse">
<stop stop-color="#04C1DE"/>
<stop offset="0.8" stop-color="#000205"/>
<stop offset="1" stop-color="#000408"/>
</linearGradient>
<linearGradient id="paint34_linear_324_5969" x1="645.142" y1="288.383" x2="1068.31" y2="288.383" gradientUnits="userSpaceOnUse">
<stop stop-color="#04C1DE"/>
<stop offset="0.8" stop-color="#000205"/>
<stop offset="1" stop-color="#000408"/>
</linearGradient>
<linearGradient id="paint35_linear_324_5969" x1="645.137" y1="255.687" x2="1068.31" y2="255.687" gradientUnits="userSpaceOnUse">
<stop stop-color="#04C1DE"/>
<stop offset="0.8" stop-color="#000205"/>
<stop offset="1" stop-color="#000408"/>
</linearGradient>
<linearGradient id="paint36_linear_324_5969" x1="551.186" y1="455.105" x2="551.186" y2="690.479" gradientUnits="userSpaceOnUse">
<stop stop-color="#04C1DE"/>
<stop offset="0.8" stop-color="#000205"/>
<stop offset="1" stop-color="#000408"/>
</linearGradient>
<linearGradient id="paint37_linear_324_5969" x1="542.99" y1="455.105" x2="542.99" y2="690.479" gradientUnits="userSpaceOnUse">
<stop stop-color="#04C1DE"/>
<stop offset="0.8" stop-color="#000205"/>
<stop offset="1" stop-color="#000408"/>
</linearGradient>
<linearGradient id="paint38_linear_324_5969" x1="520.939" y1="455.105" x2="520.939" y2="690.479" gradientUnits="userSpaceOnUse">
<stop stop-color="#04C1DE"/>
<stop offset="0.8" stop-color="#000205"/>
<stop offset="1" stop-color="#000408"/>
</linearGradient>
<linearGradient id="paint39_linear_324_5969" x1="540.216" y1="455.109" x2="540.216" y2="690.484" gradientUnits="userSpaceOnUse">
<stop stop-color="#04C1DE"/>
<stop offset="0.8" stop-color="#000205"/>
<stop offset="1" stop-color="#000408"/>
</linearGradient>
<linearGradient id="paint40_linear_324_5969" x1="548.513" y1="455.113" x2="548.513" y2="690.488" gradientUnits="userSpaceOnUse">
<stop stop-color="#04C1DE"/>
<stop offset="0.8" stop-color="#000205"/>
<stop offset="1" stop-color="#000408"/>
</linearGradient>
<linearGradient id="paint41_linear_324_5969" x1="556.041" y1="455.106" x2="556.041" y2="690.481" gradientUnits="userSpaceOnUse">
<stop stop-color="#04C1DE"/>
<stop offset="0.8" stop-color="#000205"/>
<stop offset="1" stop-color="#000408"/>
</linearGradient>
<linearGradient id="paint42_linear_324_5969" x1="565.729" y1="455.112" x2="565.729" y2="690.487" gradientUnits="userSpaceOnUse">
<stop stop-color="#04C1DE"/>
<stop offset="0.8" stop-color="#000205"/>
<stop offset="1" stop-color="#000408"/>
</linearGradient>
<linearGradient id="paint43_linear_324_5969" x1="532.846" y1="455.113" x2="532.846" y2="690.488" gradientUnits="userSpaceOnUse">
<stop stop-color="#04C1DE"/>
<stop offset="0.8" stop-color="#000205"/>
<stop offset="1" stop-color="#000408"/>
</linearGradient>
<linearGradient id="paint44_linear_324_5969" x1="515.126" y1="455.105" x2="515.126" y2="690.479" gradientUnits="userSpaceOnUse">
<stop stop-color="#04C1DE"/>
<stop offset="0.8" stop-color="#000205"/>
<stop offset="1" stop-color="#000408"/>
</linearGradient>
<linearGradient id="paint45_linear_324_5969" x1="509.224" y1="455.105" x2="509.224" y2="690.479" gradientUnits="userSpaceOnUse">
<stop stop-color="#04C1DE"/>
<stop offset="0.8" stop-color="#000205"/>
<stop offset="1" stop-color="#000408"/>
</linearGradient>
<linearGradient id="paint46_linear_324_5969" x1="597.066" y1="455.105" x2="597.066" y2="690.479" gradientUnits="userSpaceOnUse">
<stop stop-color="#04C1DE"/>
<stop offset="0.8" stop-color="#000205"/>
<stop offset="1" stop-color="#000408"/>
</linearGradient>
<linearGradient id="paint47_linear_324_5969" x1="455.927" y1="455.105" x2="455.927" y2="690.479" gradientUnits="userSpaceOnUse">
<stop stop-color="#04C1DE"/>
<stop offset="0.8" stop-color="#000205"/>
<stop offset="1" stop-color="#000408"/>
</linearGradient>
<linearGradient id="paint48_linear_324_5969" x1="465.503" y1="455.105" x2="465.503" y2="690.479" gradientUnits="userSpaceOnUse">
<stop stop-color="#04C1DE"/>
<stop offset="0.8" stop-color="#000205"/>
<stop offset="1" stop-color="#000408"/>
</linearGradient>
<linearGradient id="paint49_linear_324_5969" x1="486.031" y1="455.105" x2="486.031" y2="690.479" gradientUnits="userSpaceOnUse">
<stop stop-color="#04C1DE"/>
<stop offset="0.8" stop-color="#000205"/>
<stop offset="1" stop-color="#000408"/>
</linearGradient>
<linearGradient id="paint50_linear_324_5969" x1="602.589" y1="455.105" x2="602.589" y2="690.479" gradientUnits="userSpaceOnUse">
<stop stop-color="#04C1DE"/>
<stop offset="0.8" stop-color="#000205"/>
<stop offset="1" stop-color="#000408"/>
</linearGradient>
<linearGradient id="paint51_linear_324_5969" x1="608.175" y1="455.105" x2="608.175" y2="690.479" gradientUnits="userSpaceOnUse">
<stop stop-color="#04C1DE"/>
<stop offset="0.8" stop-color="#000205"/>
<stop offset="1" stop-color="#000408"/>
</linearGradient>
<linearGradient id="paint52_linear_324_5969" x1="614.445" y1="455.105" x2="614.445" y2="690.479" gradientUnits="userSpaceOnUse">
<stop stop-color="#04C1DE"/>
<stop offset="0.8" stop-color="#000205"/>
<stop offset="1" stop-color="#000408"/>
</linearGradient>
<linearGradient id="paint53_linear_324_5969" x1="620.85" y1="455.105" x2="620.85" y2="690.479" gradientUnits="userSpaceOnUse">
<stop stop-color="#04C1DE"/>
<stop offset="0.8" stop-color="#000205"/>
<stop offset="1" stop-color="#000408"/>
</linearGradient>
<linearGradient id="paint54_linear_324_5969" x1="557.936" y1="455.111" x2="557.936" y2="690.486" gradientUnits="userSpaceOnUse">
<stop stop-color="#04C1DE"/>
<stop offset="0.8" stop-color="#000205"/>
<stop offset="1" stop-color="#000408"/>
</linearGradient>
<linearGradient id="paint55_linear_324_5969" x1="571.363" y1="455.105" x2="571.363" y2="690.48" gradientUnits="userSpaceOnUse">
<stop stop-color="#04C1DE"/>
<stop offset="0.8" stop-color="#000205"/>
<stop offset="1" stop-color="#000408"/>
</linearGradient>
<linearGradient id="paint56_linear_324_5969" x1="563.993" y1="455.111" x2="563.993" y2="690.486" gradientUnits="userSpaceOnUse">
<stop stop-color="#04C1DE"/>
<stop offset="0.8" stop-color="#000205"/>
<stop offset="1" stop-color="#000408"/>
</linearGradient>
<linearGradient id="paint57_linear_324_5969" x1="561.11" y1="455.122" x2="561.11" y2="690.496" gradientUnits="userSpaceOnUse">
<stop stop-color="#04C1DE"/>
<stop offset="0.8" stop-color="#000205"/>
<stop offset="1" stop-color="#000408"/>
</linearGradient>
<linearGradient id="paint58_linear_324_5969" x1="553.748" y1="455.109" x2="553.748" y2="690.484" gradientUnits="userSpaceOnUse">
<stop stop-color="#04C1DE"/>
<stop offset="0.8" stop-color="#000205"/>
<stop offset="1" stop-color="#000408"/>
</linearGradient>
<linearGradient id="paint59_linear_324_5969" x1="553.744" y1="455.11" x2="553.744" y2="690.485" gradientUnits="userSpaceOnUse">
<stop stop-color="#04C1DE"/>
<stop offset="0.8" stop-color="#000205"/>
<stop offset="1" stop-color="#000408"/>
</linearGradient>
<linearGradient id="paint60_linear_324_5969" x1="567.281" y1="455.111" x2="567.281" y2="690.486" gradientUnits="userSpaceOnUse">
<stop stop-color="#04C1DE"/>
<stop offset="0.8" stop-color="#000205"/>
<stop offset="1" stop-color="#000408"/>
</linearGradient>
<linearGradient id="paint61_linear_324_5969" x1="517.127" y1="455.112" x2="517.127" y2="690.487" gradientUnits="userSpaceOnUse">
<stop stop-color="#04C1DE"/>
<stop offset="0.8" stop-color="#000205"/>
<stop offset="1" stop-color="#000408"/>
</linearGradient>
<linearGradient id="paint62_linear_324_5969" x1="514.242" y1="455.105" x2="514.242" y2="690.479" gradientUnits="userSpaceOnUse">
<stop stop-color="#04C1DE"/>
<stop offset="0.8" stop-color="#000205"/>
<stop offset="1" stop-color="#000408"/>
</linearGradient>
<linearGradient id="paint63_linear_324_5969" x1="460.699" y1="455.116" x2="460.7" y2="690.49" gradientUnits="userSpaceOnUse">
<stop stop-color="#04C1DE"/>
<stop offset="0.8" stop-color="#000205"/>
<stop offset="1" stop-color="#000408"/>
</linearGradient>
<linearGradient id="paint64_linear_324_5969" x1="469.453" y1="455.106" x2="469.453" y2="690.481" gradientUnits="userSpaceOnUse">
<stop stop-color="#04C1DE"/>
<stop offset="0.8" stop-color="#000205"/>
<stop offset="1" stop-color="#000408"/>
</linearGradient>
<linearGradient id="paint65_linear_324_5969" x1="462.702" y1="455.111" x2="462.702" y2="690.486" gradientUnits="userSpaceOnUse">
<stop stop-color="#04C1DE"/>
<stop offset="0.8" stop-color="#000205"/>
<stop offset="1" stop-color="#000408"/>
</linearGradient>
<linearGradient id="paint66_linear_324_5969" x1="425.65" y1="439.895" x2="6.26856" y2="439.895" gradientUnits="userSpaceOnUse">
<stop stop-color="#04C1DE"/>
<stop offset="0.8" stop-color="#000205"/>
<stop offset="1" stop-color="#000408"/>
</linearGradient>
<linearGradient id="paint67_linear_324_5969" x1="425.65" y1="434.293" x2="6.26856" y2="434.293" gradientUnits="userSpaceOnUse">
<stop stop-color="#04C1DE"/>
<stop offset="0.8" stop-color="#000205"/>
<stop offset="1" stop-color="#000408"/>
</linearGradient>
<linearGradient id="paint68_linear_324_5969" x1="425.65" y1="428.29" x2="6.26856" y2="428.29" gradientUnits="userSpaceOnUse">
<stop stop-color="#04C1DE"/>
<stop offset="0.8" stop-color="#000205"/>
<stop offset="1" stop-color="#000408"/>
</linearGradient>
<linearGradient id="paint69_linear_324_5969" x1="425.65" y1="446.061" x2="6.26856" y2="446.061" gradientUnits="userSpaceOnUse">
<stop stop-color="#04C1DE"/>
<stop offset="0.8" stop-color="#000205"/>
<stop offset="1" stop-color="#000408"/>
</linearGradient>
<linearGradient id="paint70_linear_324_5969" x1="425.65" y1="383.207" x2="6.26856" y2="383.207" gradientUnits="userSpaceOnUse">
<stop stop-color="#04C1DE"/>
<stop offset="0.8" stop-color="#000205"/>
<stop offset="1" stop-color="#000408"/>
</linearGradient>
<linearGradient id="paint71_linear_324_5969" x1="425.65" y1="377.254" x2="6.26856" y2="377.254" gradientUnits="userSpaceOnUse">
<stop stop-color="#04C1DE"/>
<stop offset="0.8" stop-color="#000205"/>
<stop offset="1" stop-color="#000408"/>
</linearGradient>
<linearGradient id="paint72_linear_324_5969" x1="425.65" y1="370.714" x2="6.26856" y2="370.714" gradientUnits="userSpaceOnUse">
<stop stop-color="#04C1DE"/>
<stop offset="0.8" stop-color="#000205"/>
<stop offset="1" stop-color="#000408"/>
</linearGradient>
<linearGradient id="paint73_linear_324_5969" x1="425.65" y1="359.749" x2="6.26856" y2="359.749" gradientUnits="userSpaceOnUse">
<stop stop-color="#04C1DE"/>
<stop offset="0.8" stop-color="#000205"/>
<stop offset="1" stop-color="#000408"/>
</linearGradient>
<linearGradient id="paint74_linear_324_5969" x1="425.65" y1="353.288" x2="6.26856" y2="353.288" gradientUnits="userSpaceOnUse">
<stop stop-color="#04C1DE"/>
<stop offset="0.8" stop-color="#000205"/>
<stop offset="1" stop-color="#000408"/>
</linearGradient>
<linearGradient id="paint75_linear_324_5969" x1="425.65" y1="347.203" x2="6.26856" y2="347.203" gradientUnits="userSpaceOnUse">
<stop stop-color="#04C1DE"/>
<stop offset="0.8" stop-color="#000205"/>
<stop offset="1" stop-color="#000408"/>
</linearGradient>
<linearGradient id="paint76_linear_324_5969" x1="425.649" y1="386.514" x2="6.26828" y2="386.514" gradientUnits="userSpaceOnUse">
<stop stop-color="#04C1DE"/>
<stop offset="0.8" stop-color="#000205"/>
<stop offset="1" stop-color="#000408"/>
</linearGradient>
<linearGradient id="paint77_linear_324_5969" x1="425.65" y1="391.111" x2="6.2693" y2="391.111" gradientUnits="userSpaceOnUse">
<stop stop-color="#04C1DE"/>
<stop offset="0.8" stop-color="#000205"/>
<stop offset="1" stop-color="#000408"/>
</linearGradient>
<linearGradient id="paint78_linear_324_5969" x1="425.655" y1="346.648" x2="6.27368" y2="346.648" gradientUnits="userSpaceOnUse">
<stop stop-color="#04C1DE"/>
<stop offset="0.8" stop-color="#000205"/>
<stop offset="1" stop-color="#000408"/>
</linearGradient>
<linearGradient id="paint79_linear_324_5969" x1="425.655" y1="353.316" x2="6.27413" y2="353.316" gradientUnits="userSpaceOnUse">
<stop stop-color="#04C1DE"/>
<stop offset="0.8" stop-color="#000205"/>
<stop offset="1" stop-color="#000408"/>
</linearGradient>
<linearGradient id="paint80_linear_324_5969" x1="425.65" y1="277.621" x2="6.26856" y2="277.621" gradientUnits="userSpaceOnUse">
<stop stop-color="#04C1DE"/>
<stop offset="0.8" stop-color="#000205"/>
<stop offset="1" stop-color="#000408"/>
</linearGradient>
<linearGradient id="paint81_linear_324_5969" x1="425.65" y1="273.94" x2="6.26856" y2="273.94" gradientUnits="userSpaceOnUse">
<stop stop-color="#04C1DE"/>
<stop offset="0.8" stop-color="#000205"/>
<stop offset="1" stop-color="#000408"/>
</linearGradient>
<linearGradient id="paint82_linear_324_5969" x1="425.65" y1="285.629" x2="6.26856" y2="285.629" gradientUnits="userSpaceOnUse">
<stop stop-color="#04C1DE"/>
<stop offset="0.8" stop-color="#000205"/>
<stop offset="1" stop-color="#000408"/>
</linearGradient>
<linearGradient id="paint83_linear_324_5969" x1="425.65" y1="296.76" x2="6.26856" y2="296.76" gradientUnits="userSpaceOnUse">
<stop stop-color="#04C1DE"/>
<stop offset="0.8" stop-color="#000205"/>
<stop offset="1" stop-color="#000408"/>
</linearGradient>
<linearGradient id="paint84_linear_324_5969" x1="425.65" y1="305.165" x2="6.26856" y2="305.165" gradientUnits="userSpaceOnUse">
<stop stop-color="#04C1DE"/>
<stop offset="0.8" stop-color="#000205"/>
<stop offset="1" stop-color="#000408"/>
</linearGradient>
<linearGradient id="paint85_linear_324_5969" x1="425.65" y1="288.383" x2="6.26842" y2="288.383" gradientUnits="userSpaceOnUse">
<stop stop-color="#04C1DE"/>
<stop offset="0.8" stop-color="#000205"/>
<stop offset="1" stop-color="#000408"/>
</linearGradient>
<linearGradient id="paint86_linear_324_5969" x1="425.65" y1="276.691" x2="6.26842" y2="276.691" gradientUnits="userSpaceOnUse">
<stop stop-color="#04C1DE"/>
<stop offset="0.8" stop-color="#000205"/>
<stop offset="1" stop-color="#000408"/>
</linearGradient>
<linearGradient id="paint87_linear_324_5969" x1="425.65" y1="270.071" x2="6.26867" y2="270.071" gradientUnits="userSpaceOnUse">
<stop stop-color="#04C1DE"/>
<stop offset="0.8" stop-color="#000205"/>
<stop offset="1" stop-color="#000408"/>
</linearGradient>
<linearGradient id="paint88_linear_324_5969" x1="425.65" y1="263.266" x2="6.26852" y2="263.266" gradientUnits="userSpaceOnUse">
<stop stop-color="#04C1DE"/>
<stop offset="0.8" stop-color="#000205"/>
<stop offset="1" stop-color="#000408"/>
</linearGradient>
<linearGradient id="paint89_linear_324_5969" x1="425.65" y1="299.669" x2="6.26842" y2="299.669" gradientUnits="userSpaceOnUse">
<stop stop-color="#04C1DE"/>
<stop offset="0.8" stop-color="#000205"/>
<stop offset="1" stop-color="#000408"/>
</linearGradient>
<linearGradient id="paint90_linear_324_5969" x1="425.65" y1="311.144" x2="6.26853" y2="311.144" gradientUnits="userSpaceOnUse">
<stop stop-color="#04C1DE"/>
<stop offset="0.8" stop-color="#000205"/>
<stop offset="1" stop-color="#000408"/>
</linearGradient>
<linearGradient id="paint91_linear_324_5969" x1="425.65" y1="325.666" x2="6.26864" y2="325.666" gradientUnits="userSpaceOnUse">
<stop stop-color="#04C1DE"/>
<stop offset="0.8" stop-color="#000205"/>
<stop offset="1" stop-color="#000408"/>
</linearGradient>
<linearGradient id="paint92_linear_324_5969" x1="425.655" y1="311.144" x2="6.27418" y2="311.144" gradientUnits="userSpaceOnUse">
<stop stop-color="#04C1DE"/>
<stop offset="0.8" stop-color="#000205"/>
<stop offset="1" stop-color="#000408"/>
</linearGradient>
<linearGradient id="paint93_linear_324_5969" x1="425.652" y1="301.777" x2="6.27127" y2="301.777" gradientUnits="userSpaceOnUse">
<stop stop-color="#04C1DE"/>
<stop offset="0.8" stop-color="#000205"/>
<stop offset="1" stop-color="#000408"/>
</linearGradient>
<linearGradient id="paint94_linear_324_5969" x1="425.706" y1="367.552" x2="6.32596" y2="367.553" gradientUnits="userSpaceOnUse">
<stop stop-color="#04C1DE"/>
<stop offset="0.8" stop-color="#000205"/>
<stop offset="1" stop-color="#000408"/>
</linearGradient>
<linearGradient id="paint95_linear_324_5969" x1="425.682" y1="367.565" x2="6.30256" y2="367.566" gradientUnits="userSpaceOnUse">
<stop stop-color="#04C1DE"/>
<stop offset="0.8" stop-color="#000205"/>
<stop offset="1" stop-color="#000408"/>
</linearGradient>
<linearGradient id="paint96_linear_324_5969" x1="425.653" y1="396.687" x2="6.27208" y2="396.687" gradientUnits="userSpaceOnUse">
<stop stop-color="#04C1DE"/>
<stop offset="0.8" stop-color="#000205"/>
<stop offset="1" stop-color="#000408"/>
</linearGradient>
<linearGradient id="paint97_linear_324_5969" x1="425.65" y1="347.335" x2="6.26859" y2="347.335" gradientUnits="userSpaceOnUse">
<stop stop-color="#04C1DE"/>
<stop offset="0.8" stop-color="#000205"/>
<stop offset="1" stop-color="#000408"/>
</linearGradient>
<linearGradient id="paint98_linear_324_5969" x1="425.65" y1="343.972" x2="6.26864" y2="343.972" gradientUnits="userSpaceOnUse">
<stop stop-color="#04C1DE"/>
<stop offset="0.8" stop-color="#000205"/>
<stop offset="1" stop-color="#000408"/>
</linearGradient>
<linearGradient id="paint99_linear_324_5969" x1="425.65" y1="317.766" x2="6.26838" y2="317.766" gradientUnits="userSpaceOnUse">
<stop stop-color="#04C1DE"/>
<stop offset="0.8" stop-color="#000205"/>
<stop offset="1" stop-color="#000408"/>
</linearGradient>
<linearGradient id="paint100_linear_324_5969" x1="425.653" y1="306.398" x2="6.27219" y2="306.398" gradientUnits="userSpaceOnUse">
<stop stop-color="#04C1DE"/>
<stop offset="0.8" stop-color="#000205"/>
<stop offset="1" stop-color="#000408"/>
</linearGradient>
<linearGradient id="paint101_linear_324_5969" x1="425.649" y1="295.001" x2="6.26816" y2="295.001" gradientUnits="userSpaceOnUse">
<stop stop-color="#04C1DE"/>
<stop offset="0.8" stop-color="#000205"/>
<stop offset="1" stop-color="#000408"/>
</linearGradient>
<linearGradient id="paint102_linear_324_5969" x1="425.649" y1="283.336" x2="6.26751" y2="283.336" gradientUnits="userSpaceOnUse">
<stop stop-color="#04C1DE"/>
<stop offset="0.8" stop-color="#000205"/>
<stop offset="1" stop-color="#000408"/>
</linearGradient>
<linearGradient id="paint103_linear_324_5969" x1="425.65" y1="330.789" x2="6.2685" y2="330.789" gradientUnits="userSpaceOnUse">
<stop stop-color="#04C1DE"/>
<stop offset="0.8" stop-color="#000205"/>
<stop offset="1" stop-color="#000408"/>
</linearGradient>
<linearGradient id="paint104_linear_324_5969" x1="425.65" y1="342.83" x2="6.26857" y2="342.83" gradientUnits="userSpaceOnUse">
<stop stop-color="#04C1DE"/>
<stop offset="0.8" stop-color="#000205"/>
<stop offset="1" stop-color="#000408"/>
</linearGradient>
<linearGradient id="paint105_linear_324_5969" x1="425.65" y1="336.368" x2="6.26858" y2="336.368" gradientUnits="userSpaceOnUse">
<stop stop-color="#04C1DE"/>
<stop offset="0.8" stop-color="#000205"/>
<stop offset="1" stop-color="#000408"/>
</linearGradient>
<linearGradient id="paint106_linear_324_5969" x1="425.649" y1="415.021" x2="6.26802" y2="415.021" gradientUnits="userSpaceOnUse">
<stop stop-color="#04C1DE"/>
<stop offset="0.8" stop-color="#000205"/>
<stop offset="1" stop-color="#000408"/>
</linearGradient>
<linearGradient id="paint107_linear_324_5969" x1="425.645" y1="415.022" x2="6.26365" y2="415.022" gradientUnits="userSpaceOnUse">
<stop stop-color="#04C1DE"/>
<stop offset="0.8" stop-color="#000205"/>
<stop offset="1" stop-color="#000408"/>
</linearGradient>
<linearGradient id="paint108_linear_324_5969" x1="446.337" y1="238.418" x2="446.337" y2="7.20617" gradientUnits="userSpaceOnUse">
<stop stop-color="#04C1DE"/>
<stop offset="0.8" stop-color="#000205"/>
<stop offset="1" stop-color="#000408"/>
</linearGradient>
<linearGradient id="paint109_linear_324_5969" x1="465.93" y1="238.415" x2="465.93" y2="7.17692" gradientUnits="userSpaceOnUse">
<stop stop-color="#04C1DE"/>
<stop offset="0.8" stop-color="#000205"/>
<stop offset="1" stop-color="#000408"/>
</linearGradient>
<linearGradient id="paint110_linear_324_5969" x1="480.852" y1="238.414" x2="480.852" y2="7.20256" gradientUnits="userSpaceOnUse">
<stop stop-color="#04C1DE"/>
<stop offset="0.8" stop-color="#000205"/>
<stop offset="1" stop-color="#000408"/>
</linearGradient>
<linearGradient id="paint111_linear_324_5969" x1="459.281" y1="238.414" x2="459.281" y2="7.20285" gradientUnits="userSpaceOnUse">
<stop stop-color="#04C1DE"/>
<stop offset="0.8" stop-color="#000205"/>
<stop offset="1" stop-color="#000408"/>
</linearGradient>
<linearGradient id="paint112_linear_324_5969" x1="472.925" y1="238.418" x2="472.925" y2="7.20617" gradientUnits="userSpaceOnUse">
<stop stop-color="#04C1DE"/>
<stop offset="0.8" stop-color="#000205"/>
<stop offset="1" stop-color="#000408"/>
</linearGradient>
<linearGradient id="paint113_linear_324_5969" x1="480.129" y1="238.418" x2="480.129" y2="7.20617" gradientUnits="userSpaceOnUse">
<stop stop-color="#04C1DE"/>
<stop offset="0.8" stop-color="#000205"/>
<stop offset="1" stop-color="#000408"/>
</linearGradient>
<linearGradient id="paint114_linear_324_5969" x1="507.836" y1="238.419" x2="507.836" y2="7.18098" gradientUnits="userSpaceOnUse">
<stop stop-color="#04C1DE"/>
<stop offset="0.8" stop-color="#000205"/>
<stop offset="1" stop-color="#000408"/>
</linearGradient>
<linearGradient id="paint115_linear_324_5969" x1="513.122" y1="238.412" x2="513.122" y2="7.17366" gradientUnits="userSpaceOnUse">
<stop stop-color="#04C1DE"/>
<stop offset="0.8" stop-color="#000205"/>
<stop offset="1" stop-color="#000408"/>
</linearGradient>
<linearGradient id="paint116_linear_324_5969" x1="499.801" y1="238.414" x2="499.801" y2="7.20306" gradientUnits="userSpaceOnUse">
<stop stop-color="#04C1DE"/>
<stop offset="0.8" stop-color="#000205"/>
<stop offset="1" stop-color="#000408"/>
</linearGradient>
<linearGradient id="paint117_linear_324_5969" x1="528.097" y1="238.418" x2="528.097" y2="7.17948" gradientUnits="userSpaceOnUse">
<stop stop-color="#04C1DE"/>
<stop offset="0.8" stop-color="#000205"/>
<stop offset="1" stop-color="#000408"/>
</linearGradient>
<linearGradient id="paint118_linear_324_5969" x1="512.133" y1="238.418" x2="512.133" y2="7.20617" gradientUnits="userSpaceOnUse">
<stop stop-color="#04C1DE"/>
<stop offset="0.8" stop-color="#000205"/>
<stop offset="1" stop-color="#000408"/>
</linearGradient>
<linearGradient id="paint119_linear_324_5969" x1="519.953" y1="238.418" x2="519.953" y2="7.20617" gradientUnits="userSpaceOnUse">
<stop stop-color="#04C1DE"/>
<stop offset="0.8" stop-color="#000205"/>
<stop offset="1" stop-color="#000408"/>
</linearGradient>
<linearGradient id="paint120_linear_324_5969" x1="527.536" y1="238.418" x2="527.536" y2="7.20617" gradientUnits="userSpaceOnUse">
<stop stop-color="#04C1DE"/>
<stop offset="0.8" stop-color="#000205"/>
<stop offset="1" stop-color="#000408"/>
</linearGradient>
<linearGradient id="paint121_linear_324_5969" x1="545.099" y1="238.418" x2="545.099" y2="7.20617" gradientUnits="userSpaceOnUse">
<stop stop-color="#04C1DE"/>
<stop offset="0.8" stop-color="#000205"/>
<stop offset="1" stop-color="#000408"/>
</linearGradient>
<linearGradient id="paint122_linear_324_5969" x1="567.577" y1="238.418" x2="567.577" y2="7.20686" gradientUnits="userSpaceOnUse">
<stop stop-color="#04C1DE"/>
<stop offset="0.8" stop-color="#000205"/>
<stop offset="1" stop-color="#000408"/>
</linearGradient>
<linearGradient id="paint123_linear_324_5969" x1="574.248" y1="238.418" x2="574.248" y2="7.20681" gradientUnits="userSpaceOnUse">
<stop stop-color="#04C1DE"/>
<stop offset="0.8" stop-color="#000205"/>
<stop offset="1" stop-color="#000408"/>
</linearGradient>
<linearGradient id="paint124_linear_324_5969" x1="581.481" y1="238.418" x2="581.481" y2="7.20616" gradientUnits="userSpaceOnUse">
<stop stop-color="#04C1DE"/>
<stop offset="0.8" stop-color="#000205"/>
<stop offset="1" stop-color="#000408"/>
</linearGradient>
<linearGradient id="paint125_linear_324_5969" x1="589.302" y1="238.417" x2="589.302" y2="7.20545" gradientUnits="userSpaceOnUse">
<stop stop-color="#04C1DE"/>
<stop offset="0.8" stop-color="#000205"/>
<stop offset="1" stop-color="#000408"/>
</linearGradient>
<linearGradient id="paint126_linear_324_5969" x1="597.466" y1="238.419" x2="597.466" y2="7.20762" gradientUnits="userSpaceOnUse">
<stop stop-color="#04C1DE"/>
<stop offset="0.8" stop-color="#000205"/>
<stop offset="1" stop-color="#000408"/>
</linearGradient>
<linearGradient id="paint127_linear_324_5969" x1="606.568" y1="238.418" x2="606.568" y2="7.20675" gradientUnits="userSpaceOnUse">
<stop stop-color="#04C1DE"/>
<stop offset="0.8" stop-color="#000205"/>
<stop offset="1" stop-color="#000408"/>
</linearGradient>
<linearGradient id="paint128_linear_324_5969" x1="504.072" y1="238.418" x2="504.072" y2="7.20617" gradientUnits="userSpaceOnUse">
<stop stop-color="#04C1DE"/>
<stop offset="0.8" stop-color="#000205"/>
<stop offset="1" stop-color="#000408"/>
</linearGradient>
<linearGradient id="paint129_linear_324_5969" x1="500.631" y1="238.418" x2="500.631" y2="7.17949" gradientUnits="userSpaceOnUse">
<stop stop-color="#04C1DE"/>
<stop offset="0.8" stop-color="#000205"/>
<stop offset="1" stop-color="#000408"/>
</linearGradient>
<linearGradient id="paint130_linear_324_5969" x1="534.957" y1="238.418" x2="534.957" y2="7.17949" gradientUnits="userSpaceOnUse">
<stop stop-color="#04C1DE"/>
<stop offset="0.8" stop-color="#000205"/>
<stop offset="1" stop-color="#000408"/>
</linearGradient>
<linearGradient id="paint131_linear_324_5969" x1="475.809" y1="477.55" x2="29.3563" y2="755.902" gradientUnits="userSpaceOnUse">
<stop stop-color="#04C1DE"/>
<stop offset="0.8" stop-color="#000205"/>
<stop offset="1" stop-color="#000408"/>
</linearGradient>
<linearGradient id="paint132_linear_324_5969" x1="472.577" y1="472.373" x2="26.125" y2="750.725" gradientUnits="userSpaceOnUse">
<stop stop-color="#04C1DE"/>
<stop offset="0.8" stop-color="#000205"/>
<stop offset="1" stop-color="#000408"/>
</linearGradient>
<linearGradient id="paint133_linear_324_5969" x1="429.604" y1="403.467" x2="-16.8482" y2="681.819" gradientUnits="userSpaceOnUse">
<stop stop-color="#04C1DE"/>
<stop offset="0.8" stop-color="#000205"/>
<stop offset="1" stop-color="#000408"/>
</linearGradient>
<linearGradient id="paint134_linear_324_5969" x1="441.883" y1="423.16" x2="-4.54301" y2="701.512" gradientUnits="userSpaceOnUse">
<stop stop-color="#04C1DE"/>
<stop offset="0.8" stop-color="#000205"/>
<stop offset="1" stop-color="#000408"/>
</linearGradient>
<linearGradient id="paint135_linear_324_5969" x1="413.616" y1="377.845" x2="-32.8099" y2="656.197" gradientUnits="userSpaceOnUse">
<stop stop-color="#04C1DE"/>
<stop offset="0.8" stop-color="#000205"/>
<stop offset="1" stop-color="#000408"/>
</linearGradient>
<linearGradient id="paint136_linear_324_5969" x1="415.219" y1="380.408" x2="-31.2058" y2="658.761" gradientUnits="userSpaceOnUse">
<stop stop-color="#04C1DE"/>
<stop offset="0.8" stop-color="#000205"/>
<stop offset="1" stop-color="#000408"/>
</linearGradient>
<linearGradient id="paint137_linear_324_5969" x1="409.988" y1="372.001" x2="-36.4641" y2="650.354" gradientUnits="userSpaceOnUse">
<stop stop-color="#04C1DE"/>
<stop offset="0.8" stop-color="#000205"/>
<stop offset="1" stop-color="#000408"/>
</linearGradient>
<linearGradient id="paint138_linear_324_5969" x1="404.751" y1="363.594" x2="-41.6994" y2="641.943" gradientUnits="userSpaceOnUse">
<stop stop-color="#04C1DE"/>
<stop offset="0.8" stop-color="#000205"/>
<stop offset="1" stop-color="#000408"/>
</linearGradient>
<linearGradient id="paint139_linear_324_5969" x1="492.542" y1="504.411" x2="46.0908" y2="782.762" gradientUnits="userSpaceOnUse">
<stop stop-color="#04C1DE"/>
<stop offset="0.8" stop-color="#000205"/>
<stop offset="1" stop-color="#000408"/>
</linearGradient>
<linearGradient id="paint140_linear_324_5969" x1="494.789" y1="508.007" x2="48.3371" y2="786.333" gradientUnits="userSpaceOnUse">
<stop stop-color="#04C1DE"/>
<stop offset="0.8" stop-color="#000205"/>
<stop offset="1" stop-color="#000408"/>
</linearGradient>
<linearGradient id="paint141_linear_324_5969" x1="497.002" y1="511.586" x2="50.5767" y2="789.938" gradientUnits="userSpaceOnUse">
<stop stop-color="#04C1DE"/>
<stop offset="0.8" stop-color="#000205"/>
<stop offset="1" stop-color="#000408"/>
</linearGradient>
<linearGradient id="paint142_linear_324_5969" x1="439.373" y1="419.134" x2="-7.08056" y2="697.489" gradientUnits="userSpaceOnUse">
<stop stop-color="#04C1DE"/>
<stop offset="0.8" stop-color="#000205"/>
<stop offset="1" stop-color="#000408"/>
</linearGradient>
<linearGradient id="paint143_linear_324_5969" x1="441.613" y1="422.706" x2="-4.84089" y2="701.061" gradientUnits="userSpaceOnUse">
<stop stop-color="#04C1DE"/>
<stop offset="0.8" stop-color="#000205"/>
<stop offset="1" stop-color="#000408"/>
</linearGradient>
<linearGradient id="paint144_linear_324_5969" x1="443.857" y1="426.317" x2="-2.59486" y2="704.669" gradientUnits="userSpaceOnUse">
<stop stop-color="#04C1DE"/>
<stop offset="0.8" stop-color="#000205"/>
<stop offset="1" stop-color="#000408"/>
</linearGradient>
<linearGradient id="paint145_linear_324_5969" x1="408.247" y1="369.227" x2="-38.1778" y2="647.577" gradientUnits="userSpaceOnUse">
<stop stop-color="#04C1DE"/>
<stop offset="0.8" stop-color="#000205"/>
<stop offset="1" stop-color="#000408"/>
</linearGradient>
<linearGradient id="paint146_linear_324_5969" x1="401.129" y1="357.804" x2="-45.2968" y2="636.157" gradientUnits="userSpaceOnUse">
<stop stop-color="#04C1DE"/>
<stop offset="0.8" stop-color="#000205"/>
<stop offset="1" stop-color="#000408"/>
</linearGradient>
<linearGradient id="paint147_linear_324_5969" x1="683.227" y1="343.866" x2="1096.05" y2="632.493" gradientUnits="userSpaceOnUse">
<stop stop-color="#04C1DE"/>
<stop offset="0.8" stop-color="#000205"/>
<stop offset="1" stop-color="#000408"/>
</linearGradient>
<linearGradient id="paint148_linear_324_5969" x1="608.49" y1="450.781" x2="1021.31" y2="739.407" gradientUnits="userSpaceOnUse">
<stop stop-color="#04C1DE"/>
<stop offset="0.8" stop-color="#000205"/>
<stop offset="1" stop-color="#000408"/>
</linearGradient>
<linearGradient id="paint149_linear_324_5969" x1="625.278" y1="426.763" x2="1038.1" y2="715.39" gradientUnits="userSpaceOnUse">
<stop stop-color="#04C1DE"/>
<stop offset="0.8" stop-color="#000205"/>
<stop offset="1" stop-color="#000408"/>
</linearGradient>
<linearGradient id="paint150_linear_324_5969" x1="660.912" y1="375.818" x2="1073.73" y2="664.444" gradientUnits="userSpaceOnUse">
<stop stop-color="#04C1DE"/>
<stop offset="0.8" stop-color="#000205"/>
<stop offset="1" stop-color="#000408"/>
</linearGradient>
<linearGradient id="paint151_linear_324_5969" x1="649.889" y1="391.559" x2="1062.71" y2="680.185" gradientUnits="userSpaceOnUse">
<stop stop-color="#04C1DE"/>
<stop offset="0.8" stop-color="#000205"/>
<stop offset="1" stop-color="#000408"/>
</linearGradient>
<linearGradient id="paint152_linear_324_5969" x1="673.545" y1="357.749" x2="1086.36" y2="646.376" gradientUnits="userSpaceOnUse">
<stop stop-color="#04C1DE"/>
<stop offset="0.8" stop-color="#000205"/>
<stop offset="1" stop-color="#000408"/>
</linearGradient>
<linearGradient id="paint153_linear_324_5969" x1="665.185" y1="369.706" x2="1078" y2="658.333" gradientUnits="userSpaceOnUse">
<stop stop-color="#04C1DE"/>
<stop offset="0.8" stop-color="#000205"/>
<stop offset="1" stop-color="#000408"/>
</linearGradient>
<linearGradient id="paint154_linear_324_5969" x1="656.805" y1="381.717" x2="1069.6" y2="670.343" gradientUnits="userSpaceOnUse">
<stop stop-color="#04C1DE"/>
<stop offset="0.8" stop-color="#000205"/>
<stop offset="1" stop-color="#000408"/>
</linearGradient>
<linearGradient id="paint155_linear_324_5969" x1="601.927" y1="460.206" x2="1014.72" y2="748.805" gradientUnits="userSpaceOnUse">
<stop stop-color="#04C1DE"/>
<stop offset="0.8" stop-color="#000205"/>
<stop offset="1" stop-color="#000408"/>
</linearGradient>
<linearGradient id="paint156_linear_324_5969" x1="595.783" y1="468.987" x2="1008.58" y2="757.613" gradientUnits="userSpaceOnUse">
<stop stop-color="#04C1DE"/>
<stop offset="0.8" stop-color="#000205"/>
<stop offset="1" stop-color="#000408"/>
</linearGradient>
<linearGradient id="paint157_linear_324_5969" x1="589.618" y1="477.767" x2="1002.44" y2="766.393" gradientUnits="userSpaceOnUse">
<stop stop-color="#04C1DE"/>
<stop offset="0.8" stop-color="#000205"/>
<stop offset="1" stop-color="#000408"/>
</linearGradient>
<linearGradient id="paint158_linear_324_5969" x1="707.628" y1="308.988" x2="1120.45" y2="597.615" gradientUnits="userSpaceOnUse">
<stop stop-color="#04C1DE"/>
<stop offset="0.8" stop-color="#000205"/>
<stop offset="1" stop-color="#000408"/>
</linearGradient>
<linearGradient id="paint159_linear_324_5969" x1="701.488" y1="317.769" x2="1114.31" y2="606.396" gradientUnits="userSpaceOnUse">
<stop stop-color="#04C1DE"/>
<stop offset="0.8" stop-color="#000205"/>
<stop offset="1" stop-color="#000408"/>
</linearGradient>
<linearGradient id="paint160_linear_324_5969" x1="695.345" y1="326.576" x2="1108.16" y2="615.203" gradientUnits="userSpaceOnUse">
<stop stop-color="#04C1DE"/>
<stop offset="0.8" stop-color="#000205"/>
<stop offset="1" stop-color="#000408"/>
</linearGradient>
<linearGradient id="paint161_linear_324_5969" x1="609.13" y1="212.633" x2="1036.9" y2="-52.6394" gradientUnits="userSpaceOnUse">
<stop stop-color="#04C1DE"/>
<stop offset="0.8" stop-color="#000205"/>
<stop offset="1" stop-color="#000408"/>
</linearGradient>
<linearGradient id="paint162_linear_324_5969" x1="616.043" y1="223.82" x2="1043.81" y2="-41.4523" gradientUnits="userSpaceOnUse">
<stop stop-color="#04C1DE"/>
<stop offset="0.8" stop-color="#000205"/>
<stop offset="1" stop-color="#000408"/>
</linearGradient>
<linearGradient id="paint163_linear_324_5969" x1="685.068" y1="335.087" x2="1112.84" y2="69.8146" gradientUnits="userSpaceOnUse">
<stop stop-color="#04C1DE"/>
<stop offset="0.8" stop-color="#000205"/>
<stop offset="1" stop-color="#000408"/>
</linearGradient>
<linearGradient id="paint164_linear_324_5969" x1="603.739" y1="203.96" x2="1031.51" y2="-61.3127" gradientUnits="userSpaceOnUse">
<stop stop-color="#04C1DE"/>
<stop offset="0.8" stop-color="#000205"/>
<stop offset="1" stop-color="#000408"/>
</linearGradient>
<linearGradient id="paint165_linear_324_5969" x1="637.877" y1="258.997" x2="1065.65" y2="-6.27588" gradientUnits="userSpaceOnUse">
<stop stop-color="#04C1DE"/>
<stop offset="0.8" stop-color="#000205"/>
<stop offset="1" stop-color="#000408"/>
</linearGradient>
<linearGradient id="paint166_linear_324_5969" x1="640.893" y1="263.852" x2="1068.64" y2="-1.42127" gradientUnits="userSpaceOnUse">
<stop stop-color="#04C1DE"/>
<stop offset="0.8" stop-color="#000205"/>
<stop offset="1" stop-color="#000408"/>
</linearGradient>
<linearGradient id="paint167_linear_324_5969" x1="643.99" y1="268.869" x2="1071.76" y2="3.59581" gradientUnits="userSpaceOnUse">
<stop stop-color="#04C1DE"/>
<stop offset="0.8" stop-color="#000205"/>
<stop offset="1" stop-color="#000408"/>
</linearGradient>
<linearGradient id="paint168_linear_324_5969" x1="636.541" y1="256.831" x2="1064.28" y2="-8.44144" gradientUnits="userSpaceOnUse">
<stop stop-color="#04C1DE"/>
<stop offset="0.8" stop-color="#000205"/>
<stop offset="1" stop-color="#000408"/>
</linearGradient>
<linearGradient id="paint169_linear_324_5969" x1="636.545" y1="256.832" x2="1064.29" y2="-8.44067" gradientUnits="userSpaceOnUse">
<stop stop-color="#04C1DE"/>
<stop offset="0.8" stop-color="#000205"/>
<stop offset="1" stop-color="#000408"/>
</linearGradient>
<linearGradient id="paint170_linear_324_5969" x1="605.314" y1="206.494" x2="1033.08" y2="-58.7793" gradientUnits="userSpaceOnUse">
<stop stop-color="#04C1DE"/>
<stop offset="0.8" stop-color="#000205"/>
<stop offset="1" stop-color="#000408"/>
</linearGradient>
<linearGradient id="paint171_linear_324_5969" x1="600.109" y1="198.087" x2="1027.88" y2="-67.1865" gradientUnits="userSpaceOnUse">
<stop stop-color="#04C1DE"/>
<stop offset="0.8" stop-color="#000205"/>
<stop offset="1" stop-color="#000408"/>
</linearGradient>
<linearGradient id="paint172_linear_324_5969" x1="594.901" y1="189.706" x2="1022.67" y2="-75.5663" gradientUnits="userSpaceOnUse">
<stop stop-color="#04C1DE"/>
<stop offset="0.8" stop-color="#000205"/>
<stop offset="1" stop-color="#000408"/>
</linearGradient>
<linearGradient id="paint173_linear_324_5969" x1="664.304" y1="301.615" x2="1092.07" y2="36.3429" gradientUnits="userSpaceOnUse">
<stop stop-color="#04C1DE"/>
<stop offset="0.8" stop-color="#000205"/>
<stop offset="1" stop-color="#000408"/>
</linearGradient>
<linearGradient id="paint174_linear_324_5969" x1="659.098" y1="293.235" x2="1086.87" y2="27.9624" gradientUnits="userSpaceOnUse">
<stop stop-color="#04C1DE"/>
<stop offset="0.8" stop-color="#000205"/>
<stop offset="1" stop-color="#000408"/>
</linearGradient>
<linearGradient id="paint175_linear_324_5969" x1="653.92" y1="284.828" x2="1081.66" y2="19.5815" gradientUnits="userSpaceOnUse">
<stop stop-color="#04C1DE"/>
<stop offset="0.8" stop-color="#000205"/>
<stop offset="1" stop-color="#000408"/>
</linearGradient>
<linearGradient id="paint176_linear_324_5969" x1="557.458" y1="129.31" x2="985.2" y2="-135.964" gradientUnits="userSpaceOnUse">
<stop stop-color="#04C1DE"/>
<stop offset="0.8" stop-color="#000205"/>
<stop offset="1" stop-color="#000408"/>
</linearGradient>
<linearGradient id="paint177_linear_324_5969" x1="568.855" y1="147.702" x2="996.598" y2="-117.572" gradientUnits="userSpaceOnUse">
<stop stop-color="#04C1DE"/>
<stop offset="0.8" stop-color="#000205"/>
<stop offset="1" stop-color="#000408"/>
</linearGradient>
<linearGradient id="paint178_linear_324_5969" x1="580.306" y1="166.142" x2="1008.05" y2="-99.1311" gradientUnits="userSpaceOnUse">
<stop stop-color="#04C1DE"/>
<stop offset="0.8" stop-color="#000205"/>
<stop offset="1" stop-color="#000408"/>
</linearGradient>
<linearGradient id="paint179_linear_324_5969" x1="427.254" y1="276.422" x2="17.236" y2="7.4131" gradientUnits="userSpaceOnUse">
<stop stop-color="#04C1DE"/>
<stop offset="0.8" stop-color="#000205"/>
<stop offset="1" stop-color="#000408"/>
</linearGradient>
<linearGradient id="paint180_linear_324_5969" x1="422.724" y1="283.338" x2="12.7054" y2="14.3289" gradientUnits="userSpaceOnUse">
<stop stop-color="#04C1DE"/>
<stop offset="0.8" stop-color="#000205"/>
<stop offset="1" stop-color="#000408"/>
</linearGradient>
<linearGradient id="paint181_linear_324_5969" x1="418.077" y1="290.435" x2="8.05887" y2="21.4259" gradientUnits="userSpaceOnUse">
<stop stop-color="#04C1DE"/>
<stop offset="0.8" stop-color="#000205"/>
<stop offset="1" stop-color="#000408"/>
</linearGradient>
<linearGradient id="paint182_linear_324_5969" x1="491.076" y1="179.14" x2="81.0575" y2="-89.8686" gradientUnits="userSpaceOnUse">
<stop stop-color="#04C1DE"/>
<stop offset="0.8" stop-color="#000205"/>
<stop offset="1" stop-color="#000408"/>
</linearGradient>
<linearGradient id="paint183_linear_324_5969" x1="488.459" y1="183.117" x2="78.4404" y2="-85.8922" gradientUnits="userSpaceOnUse">
<stop stop-color="#04C1DE"/>
<stop offset="0.8" stop-color="#000205"/>
<stop offset="1" stop-color="#000408"/>
</linearGradient>
<linearGradient id="paint184_linear_324_5969" x1="485.711" y1="187.307" x2="75.6925" y2="-81.7018" gradientUnits="userSpaceOnUse">
<stop stop-color="#04C1DE"/>
<stop offset="0.8" stop-color="#000205"/>
<stop offset="1" stop-color="#000408"/>
</linearGradient>
<linearGradient id="paint185_linear_324_5969" x1="496.283" y1="171.21" x2="86.2652" y2="-97.7986" gradientUnits="userSpaceOnUse">
<stop stop-color="#04C1DE"/>
<stop offset="0.8" stop-color="#000205"/>
<stop offset="1" stop-color="#000408"/>
</linearGradient>
<linearGradient id="paint186_linear_324_5969" x1="496.28" y1="171.214" x2="86.2611" y2="-97.7949" gradientUnits="userSpaceOnUse">
<stop stop-color="#04C1DE"/>
<stop offset="0.8" stop-color="#000205"/>
<stop offset="1" stop-color="#000408"/>
</linearGradient>
<linearGradient id="paint187_linear_324_5969" x1="458.326" y1="229.05" x2="48.3078" y2="-39.9324" gradientUnits="userSpaceOnUse">
<stop stop-color="#04C1DE"/>
<stop offset="0.8" stop-color="#000205"/>
<stop offset="1" stop-color="#000408"/>
</linearGradient>
<linearGradient id="paint188_linear_324_5969" x1="450.665" y1="240.74" x2="40.6464" y2="-28.2691" gradientUnits="userSpaceOnUse">
<stop stop-color="#04C1DE"/>
<stop offset="0.8" stop-color="#000205"/>
<stop offset="1" stop-color="#000408"/>
</linearGradient>
<linearGradient id="paint189_linear_324_5969" x1="447.274" y1="245.917" x2="37.2557" y2="-23.0914" gradientUnits="userSpaceOnUse">
<stop stop-color="#04C1DE"/>
<stop offset="0.8" stop-color="#000205"/>
<stop offset="1" stop-color="#000408"/>
</linearGradient>
<linearGradient id="paint190_linear_324_5969" x1="408.304" y1="305.3" x2="-1.71424" y2="36.2908" gradientUnits="userSpaceOnUse">
<stop stop-color="#04C1DE"/>
<stop offset="0.8" stop-color="#000205"/>
<stop offset="1" stop-color="#000408"/>
</linearGradient>
</defs>
</svg>
