<svg width="286" height="285" viewBox="0 0 286 285" fill="none" xmlns="http://www.w3.org/2000/svg">
<g filter="url(#filter0_d_324_6417)">
<path d="M205.777 205.057C240.326 170.508 240.326 114.492 205.777 79.9429C171.227 45.3936 115.212 45.3936 80.6625 79.9429C46.1132 114.492 46.1132 170.508 80.6625 205.057C115.212 239.606 171.227 239.606 205.777 205.057Z" fill="url(#paint0_linear_324_6417)"/>
</g>
<g filter="url(#filter1_d_324_6417)">
<path d="M192.656 191.883C219.929 164.609 219.929 120.391 192.656 93.1173C165.382 65.844 121.164 65.8441 93.8905 93.1174C66.6172 120.391 66.6171 164.609 93.8904 191.883C121.164 219.156 165.382 219.156 192.656 191.883Z" fill="url(#paint1_linear_324_6417)"/>
</g>
<path d="M214.25 213.75C253.6 174.4 253.6 110.6 214.25 71.25C174.9 31.8997 111.1 31.8997 71.75 71.25C32.3997 110.6 32.3997 174.4 71.75 213.75C111.1 253.1 174.9 253.1 214.25 213.75Z" stroke="#2A2B6D" stroke-width="1.5" stroke-miterlimit="10" stroke-dasharray="6.64 6.64"/>
<defs>
<filter id="filter0_d_324_6417" x="50.3019" y="49.5822" width="206.625" height="206.625" filterUnits="userSpaceOnUse" color-interpolation-filters="sRGB">
<feFlood flood-opacity="0" result="BackgroundImageFix"/>
<feColorMatrix in="SourceAlpha" type="matrix" values="0 0 0 0 0 0 0 0 0 0 0 0 0 0 0 0 0 0 127 0" result="hardAlpha"/>
<feOffset dx="10.3946" dy="10.3946"/>
<feGaussianBlur stdDeviation="7.42163"/>
<feColorMatrix type="matrix" values="0 0 0 0 0 0 0 0 0 0 0 0 0 0 0 0 0 0 0.25 0"/>
<feBlend mode="normal" in2="BackgroundImageFix" result="effect1_dropShadow_324_6417"/>
<feBlend mode="normal" in="SourceGraphic" in2="effect1_dropShadow_324_6417" result="shape"/>
</filter>
<filter id="filter1_d_324_6417" x="68.9869" y="68.2137" width="169.362" height="169.362" filterUnits="userSpaceOnUse" color-interpolation-filters="sRGB">
<feFlood flood-opacity="0" result="BackgroundImageFix"/>
<feColorMatrix in="SourceAlpha" type="matrix" values="0 0 0 0 0 0 0 0 0 0 0 0 0 0 0 0 0 0 127 0" result="hardAlpha"/>
<feOffset dx="10.3946" dy="10.3946"/>
<feGaussianBlur stdDeviation="7.42163"/>
<feColorMatrix type="matrix" values="0 0 0 0 0 0 0 0 0 0 0 0 0 0 0 0 0 0 0.15 0"/>
<feBlend mode="normal" in2="BackgroundImageFix" result="effect1_dropShadow_324_6417"/>
<feBlend mode="normal" in="SourceGraphic" in2="effect1_dropShadow_324_6417" result="shape"/>
</filter>
<linearGradient id="paint0_linear_324_6417" x1="179.891" y1="54.0572" x2="54.7768" y2="179.171" gradientUnits="userSpaceOnUse">
<stop stop-color="#29ABE2"/>
<stop offset="1" stop-color="#2A2B6D"/>
</linearGradient>
<linearGradient id="paint1_linear_324_6417" x1="73.4443" y1="142.504" x2="213.102" y2="142.504" gradientUnits="userSpaceOnUse">
<stop stop-color="white"/>
<stop offset="1" stop-color="#F1F2F6"/>
</linearGradient>
</defs>
</svg>
