<svg width="37" height="36" viewBox="0 0 37 36" fill="none" xmlns="http://www.w3.org/2000/svg">
<path d="M20.2696 35.391C18.4115 35.391 16.5418 34.729 14.8696 33.4806C12.2509 31.5239 8.31409 24.3529 8.15151 24.0452C7.98312 23.7723 3.73861 16.7813 3.35538 13.5355C3.04183 10.8877 3.7328 8.44323 5.30635 6.64323C5.50377 6.41677 5.7128 6.20194 5.93925 5.9929C7.71022 4.36129 10.4509 3.09548 10.567 3.04323C10.6773 2.97936 10.8573 2.9271 11.0373 2.9271C11.4089 2.9271 11.7515 3.12452 11.9373 3.44387L16.5418 11.4161C16.6812 11.66 16.716 11.9387 16.6463 12.2116C16.5767 12.4787 16.4025 12.7052 16.1586 12.8445L16.0831 12.891C15.7173 13.1174 15.0554 13.5006 14.1031 14.0348C12.9999 14.6503 12.1405 14.8245 11.5715 14.8535C12.0825 16.0613 13.3599 18.3781 14.556 20.3581C15.6767 22.3903 17.047 24.6548 17.8367 25.7058C18.1618 25.1948 18.7541 24.5619 19.8225 23.9348C21.0476 23.209 21.5702 22.9303 21.7676 22.8258C21.7967 22.8026 21.8373 22.7677 21.8838 22.7445C22.3599 22.4658 23.0334 22.6458 23.3063 23.1277L27.9051 31.0942C28.1896 31.5935 28.0154 32.2323 27.5218 32.5168C27.4638 32.5632 24.996 34.2994 22.6967 35.0194C21.9012 35.269 21.0883 35.3968 20.2754 35.3968L20.2696 35.391ZM10.9734 4.1871C10.3812 4.47742 8.18054 5.58065 6.75796 6.88129C6.56635 7.06129 6.38054 7.2471 6.21796 7.43871C4.49925 9.4071 4.3657 11.7645 4.55731 13.3903C4.91151 16.3806 9.15602 23.3716 9.20248 23.4413C9.25473 23.54 13.1857 30.711 15.5954 32.511C17.6915 34.0729 20.0896 34.5665 22.3309 33.8581C24.218 33.2658 26.3199 31.8665 26.7728 31.5587L22.3367 23.8768C22.2438 23.9232 21.7851 24.1555 20.4263 24.9626C18.7541 25.9497 18.6263 26.8265 18.6263 26.8323C18.6031 27.0355 18.4696 27.2271 18.2838 27.3142C18.098 27.4013 17.8831 27.4013 17.7031 27.2968C16.7044 26.6813 14.2309 22.2858 13.4993 20.9561C12.727 19.6787 10.1547 15.3355 10.1257 14.1626C10.1199 13.9535 10.2244 13.7561 10.3986 13.64C10.5728 13.5239 10.7934 13.5065 10.9851 13.5935C10.9851 13.5935 11.8851 13.8839 13.5109 12.9723C14.4341 12.4555 15.0728 12.0839 15.4154 11.8748L10.9734 4.18129V4.1871Z" fill="#259CCE"/>
<path d="M25.7276 33.5387C25.5244 33.5387 25.3212 33.4342 25.2109 33.2426L20.0257 24.5097C19.8573 24.2252 19.9502 23.8535 20.2347 23.6794C20.5193 23.511 20.8909 23.6039 21.0651 23.8884L26.2502 32.6213C26.4186 32.9058 26.3257 33.2774 26.0412 33.4458C25.9425 33.5039 25.838 33.5329 25.7334 33.5329L25.7276 33.5387Z" fill="#259CCE"/>
<path d="M14.0915 13.9419C13.8825 13.9419 13.6851 13.8374 13.5689 13.6458L8.38377 4.92452C8.21538 4.64 8.30828 4.26839 8.5928 4.09419C8.87731 3.92581 9.24893 4.01871 9.42312 4.30323L14.6083 13.0245C14.7767 13.309 14.6838 13.6806 14.3993 13.8548C14.3005 13.9129 14.196 13.9419 14.0915 13.9419Z" fill="#259CCE"/>
<path d="M23.0392 12.2058C23.0392 12.7168 22.9463 13.2452 22.7605 13.7794C22.5689 14.3135 22.3251 14.8535 22.0173 15.3935C21.7154 15.9335 21.3728 16.4619 20.9954 16.9787C20.618 17.4955 20.2405 17.9832 19.8631 18.4477L19.1547 19.069V19.1271L20.0838 18.9703H23.2425V20.0445H17.4709V19.6206C17.6857 19.4 17.9412 19.1213 18.2373 18.7961C18.5392 18.4652 18.847 18.1052 19.1722 17.7045C19.4973 17.3039 19.8167 16.88 20.1302 16.4271C20.4438 15.98 20.7283 15.5213 20.9838 15.0568C21.2393 14.5923 21.4425 14.1335 21.5992 13.6806C21.756 13.2277 21.8315 12.7981 21.8315 12.3916C21.8315 11.9155 21.698 11.5265 21.4251 11.2071C21.1522 10.8935 20.7457 10.7368 20.1941 10.7368C19.8283 10.7368 19.4683 10.8123 19.1199 10.9632C18.7715 11.1142 18.4696 11.2826 18.2199 11.48L17.7438 10.6555C18.0805 10.3652 18.4812 10.1387 18.9457 9.97613C19.4102 9.81355 19.9096 9.73226 20.438 9.73226C20.8502 9.73226 21.2218 9.79032 21.5412 9.91226C21.8605 10.0342 22.1276 10.2026 22.3541 10.429C22.5747 10.6497 22.7431 10.9168 22.8593 11.2187C22.9754 11.5206 23.0334 11.8574 23.0334 12.2116L23.0392 12.2058Z" fill="#259CCE"/>
<path d="M32.0683 16.9323H30.3554V20.0503H29.2231V16.9323H24.758V16.4561L29.5715 9.74387H30.3554V15.9219H32.0683V16.9381V16.9323ZM29.2289 12.7574L29.3741 11.5671H29.3276L28.8225 12.5542L26.7786 15.3239L26.0818 16.0323L27.098 15.9161H29.2289V12.7574Z" fill="#259CCE"/>
<path d="M14.2251 35.2632C6.24119 33.3819 0.666992 26.3329 0.666992 18.1168C0.666992 16.4387 0.905057 14.7839 1.36377 13.1871L2.52506 13.5239C2.09538 15.0103 1.87473 16.5548 1.87473 18.1168C1.87473 25.7639 7.0657 32.3368 14.498 34.0903L14.2192 35.2632H14.2251Z" fill="#259CCE"/>
<path d="M30.3089 30.9955L29.4844 30.1129C32.7941 27.0181 34.6928 22.6458 34.6928 18.1168C34.6928 9.07032 27.3302 1.70774 18.2838 1.70774C16.3734 1.70774 14.5038 2.0329 12.727 2.67161L12.3147 1.53355C14.2251 0.848387 16.2341 0.5 18.2838 0.5C27.998 0.5 35.9005 8.40258 35.9005 18.1168C35.9005 22.9826 33.8625 27.6742 30.3089 30.9955Z" fill="#259CCE"/>
<path d="M29.5425 27.3665L30.1463 27.3897L30.036 30.3684L33.0147 30.2581L33.0322 30.8619L29.4089 30.9897L29.5425 27.3665Z" fill="#259CCE"/>
</svg>
