<svg width="128" height="29" viewBox="0 0 128 29" fill="none" xmlns="http://www.w3.org/2000/svg">
<path d="M17.5818 14.5875L11.1303 20.8305L18.4342 29H30.265L17.5818 14.5875Z" fill="white"/>
<path d="M18.4342 0L9.27009 8.81823V8.81607L4.65979 13.5172L9.27009 6.34996V0H0V29L30.265 0H18.4342Z" fill="white"/>
<path d="M36.7857 5.82722H41.0113V12.5358L47.6403 5.82722H52.7767L44.3764 14.3967L52.7767 22.9661H47.6403L41.0113 16.2576V22.9661H36.7857V5.82722Z" fill="white"/>
<path d="M54.2946 5.82721H58.5202V22.9661H54.2946V5.82721Z" fill="white"/>
<path d="M66.6169 9.49974H60.6204V5.82721H76.8134V9.49974H70.8169V22.9661H66.6169V9.49974Z" fill="white"/>
<path d="M87.6174 20.1994H80.2042L79.0404 22.9661H74.6883L81.7477 5.82721H86.0742L93.1336 22.9661H88.7815L87.6174 20.1994ZM86.2509 16.8451L83.8978 11.2383L81.5699 16.8451H86.2509Z" fill="white"/>
<path d="M94.4744 5.82721H108.466V9.49974H98.6997V12.7316H107.96V16.0614H98.6997V19.2933H108.466V22.9658H94.4744V5.82721Z" fill="white"/>
<path d="M109.554 5.82721H113.906L118.79 17.5551L123.648 5.82721H128L120.941 22.9661H116.614L109.554 5.82721Z" fill="white"/>
</svg>
