<svg width="24" height="24" viewBox="0 0 24 24" fill="none" xmlns="http://www.w3.org/2000/svg">
<g clip-path="url(#clip0_292_3450)">
<path opacity="0.2" d="M0.363601 13.6945L0.421783 4.96865C0.431965 3.38902 1.53669 2.03484 3.06178 1.73302L11.4887 0.0624719C13.5134 -0.338983 15.3927 1.24574 15.3796 3.34247L15.3214 12.0697C15.3105 13.6487 14.2058 15.0021 12.6807 15.3047L4.25378 16.9752C2.22906 17.3767 0.349783 15.7919 0.363601 13.6945Z" fill="white"/>
<path opacity="0.5" d="M4.49226 17.1759L4.55044 8.44867C4.5599 6.87049 5.66535 5.51704 7.19045 5.21449L15.6174 3.54467C17.6421 3.14322 19.5214 4.72722 19.5075 6.82467L19.4494 15.5519C19.4392 17.1309 18.3344 18.4843 16.8094 18.7869L8.38245 20.4574C6.35772 20.8581 4.47845 19.2741 4.49226 17.1774V17.1759Z" fill="white"/>
<path opacity="0.8" d="M8.62116 20.6575L8.67934 11.9302C8.68952 10.3506 9.79425 8.99784 11.3193 8.6953L19.7462 7.02475C21.771 6.6233 23.6502 8.20802 23.6364 10.3048L23.5782 19.032C23.5681 20.6117 22.4633 21.9651 20.9382 22.2669L12.5113 23.9375C10.4866 24.3389 8.60734 22.7542 8.62043 20.6575H8.62116Z" fill="white"/>
</g>
<defs>
<clipPath id="clip0_292_3450">
<rect width="24" height="24" fill="white"/>
</clipPath>
</defs>
</svg>
