<svg width="1200" height="524" viewBox="0 0 1200 524" fill="none" xmlns="http://www.w3.org/2000/svg">
<g clip-path="url(#clip0_292_3021)">
<rect width="1200" height="524" rx="24" fill="#2A2B6D"/>
<g filter="url(#filter0_f_292_3021)">
<ellipse cx="660.5" cy="170.5" rx="660.5" ry="170.5" transform="matrix(1 0 0 -1 0 524)" fill="url(#paint0_linear_292_3021)"/>
</g>
<g opacity="0.86">
<mask id="mask0_292_3021" style="mask-type:alpha" maskUnits="userSpaceOnUse" x="0" y="-94" width="1199" height="702">
<rect width="1199" height="603" transform="translate(0 5)" fill="url(#paint1_radial_292_3021)"/>
</mask>
<g mask="url(#mask0_292_3021)">
<g opacity="0.27">
<g clip-path="url(#clip1_292_3021)">
<mask id="path-5-inside-1_292_3021" fill="white">
<path d="M-77.4506 -11.4835H26.0659V92.033H-77.4506V-11.4835Z"/>
</mask>
<path d="M26.0659 92.033V93.1113H27.1442V92.033H26.0659ZM26.0659 -11.4835H24.9876V92.033H26.0659H27.1442V-11.4835H26.0659ZM26.0659 92.033V90.9547H-77.4506V92.033V93.1113H26.0659V92.033Z" fill="white" mask="url(#path-5-inside-1_292_3021)"/>
<mask id="path-7-inside-2_292_3021" fill="white">
<path d="M26.0659 -11.4835H129.582V92.033H26.0659V-11.4835Z"/>
</mask>
<path d="M129.582 92.033V93.1113H130.661V92.033H129.582ZM129.582 -11.4835H128.504V92.033H129.582H130.661V-11.4835H129.582ZM129.582 92.033V90.9547H26.0659V92.033V93.1113H129.582V92.033Z" fill="white" mask="url(#path-7-inside-2_292_3021)"/>
<mask id="path-9-inside-3_292_3021" fill="white">
<path d="M129.582 -11.4835H233.099V92.033H129.582V-11.4835Z"/>
</mask>
<path d="M129.582 -11.4835H233.099V92.033H129.582V-11.4835Z" fill="#F5F5F5"/>
<path d="M233.099 92.033V93.1113H234.177V92.033H233.099ZM233.099 -11.4835H232.021V92.033H233.099H234.177V-11.4835H233.099ZM233.099 92.033V90.9547H129.582V92.033V93.1113H233.099V92.033Z" fill="white" mask="url(#path-9-inside-3_292_3021)"/>
<mask id="path-11-inside-4_292_3021" fill="white">
<path d="M233.099 -11.4835H336.615V92.033H233.099V-11.4835Z"/>
</mask>
<path d="M336.615 92.033V93.1113H337.694V92.033H336.615ZM336.615 -11.4835H335.537V92.033H336.615H337.694V-11.4835H336.615ZM336.615 92.033V90.9547H233.099V92.033V93.1113H336.615V92.033Z" fill="white" mask="url(#path-11-inside-4_292_3021)"/>
<mask id="path-13-inside-5_292_3021" fill="white">
<path d="M336.615 -11.4835H440.132V92.033H336.615V-11.4835Z"/>
</mask>
<path d="M440.132 92.033V93.1113H441.21V92.033H440.132ZM440.132 -11.4835H439.054V92.033H440.132H441.21V-11.4835H440.132ZM440.132 92.033V90.9547H336.615V92.033V93.1113H440.132V92.033Z" fill="white" mask="url(#path-13-inside-5_292_3021)"/>
<mask id="path-15-inside-6_292_3021" fill="white">
<path d="M440.132 -11.4835H543.648V92.033H440.132V-11.4835Z"/>
</mask>
<path d="M543.648 92.033V93.1113H544.727V92.033H543.648ZM543.648 -11.4835H542.57V92.033H543.648H544.727V-11.4835H543.648ZM543.648 92.033V90.9547H440.132V92.033V93.1113H543.648V92.033Z" fill="white" mask="url(#path-15-inside-6_292_3021)"/>
<mask id="path-17-inside-7_292_3021" fill="white">
<path d="M543.648 -11.4835H647.165V92.033H543.648V-11.4835Z"/>
</mask>
<path d="M647.165 92.033V93.1113H648.243V92.033H647.165ZM647.165 -11.4835H646.087V92.033H647.165H648.243V-11.4835H647.165ZM647.165 92.033V90.9547H543.648V92.033V93.1113H647.165V92.033Z" fill="white" mask="url(#path-17-inside-7_292_3021)"/>
<mask id="path-19-inside-8_292_3021" fill="white">
<path d="M647.165 -11.4835H750.681V92.033H647.165V-11.4835Z"/>
</mask>
<path d="M750.681 92.033V93.1113H751.76V92.033H750.681ZM750.681 -11.4835H749.603V92.033H750.681H751.76V-11.4835H750.681ZM750.681 92.033V90.9547H647.165V92.033V93.1113H750.681V92.033Z" fill="white" mask="url(#path-19-inside-8_292_3021)"/>
<mask id="path-21-inside-9_292_3021" fill="white">
<path d="M750.681 -11.4835H854.198V92.033H750.681V-11.4835Z"/>
</mask>
<path d="M854.198 92.033V93.1113H855.276V92.033H854.198ZM854.198 -11.4835H853.119V92.033H854.198H855.276V-11.4835H854.198ZM854.198 92.033V90.9547H750.681V92.033V93.1113H854.198V92.033Z" fill="white" mask="url(#path-21-inside-9_292_3021)"/>
<mask id="path-23-inside-10_292_3021" fill="white">
<path d="M854.198 -11.4835H957.714V92.033H854.198V-11.4835Z"/>
</mask>
<path d="M957.714 92.033V93.1113H958.793V92.033H957.714ZM957.714 -11.4835H956.636V92.033H957.714H958.793V-11.4835H957.714ZM957.714 92.033V90.9547H854.198V92.033V93.1113H957.714V92.033Z" fill="white" mask="url(#path-23-inside-10_292_3021)"/>
<mask id="path-25-inside-11_292_3021" fill="white">
<path d="M957.714 -11.4835H1061.23V92.033H957.714V-11.4835Z"/>
</mask>
<path d="M1061.23 92.033V93.1113H1062.31V92.033H1061.23ZM1061.23 -11.4835H1060.15V92.033H1061.23H1062.31V-11.4835H1061.23ZM1061.23 92.033V90.9547H957.714V92.033V93.1113H1061.23V92.033Z" fill="white" mask="url(#path-25-inside-11_292_3021)"/>
<mask id="path-27-inside-12_292_3021" fill="white">
<path d="M1061.23 -11.4835H1164.75V92.033H1061.23V-11.4835Z"/>
</mask>
<path d="M1061.23 -11.4835H1164.75V92.033H1061.23V-11.4835Z" fill="#F5F5F5"/>
<path d="M1164.75 92.033V93.1113H1165.83V92.033H1164.75ZM1164.75 -11.4835H1163.67V92.033H1164.75H1165.83V-11.4835H1164.75ZM1164.75 92.033V90.9547H1061.23V92.033V93.1113H1164.75V92.033Z" fill="white" mask="url(#path-27-inside-12_292_3021)"/>
<mask id="path-29-inside-13_292_3021" fill="white">
<path d="M1164.75 -11.4835H1268.26V92.033H1164.75V-11.4835Z"/>
</mask>
<path d="M1268.26 92.033V93.1113H1269.34V92.033H1268.26ZM1268.26 -11.4835H1267.19V92.033H1268.26H1269.34V-11.4835H1268.26ZM1268.26 92.033V90.9547H1164.75V92.033V93.1113H1268.26V92.033Z" fill="white" mask="url(#path-29-inside-13_292_3021)"/>
<mask id="path-31-inside-14_292_3021" fill="white">
<path d="M-77.4506 92.033H26.0659V195.549H-77.4506V92.033Z"/>
</mask>
<path d="M26.0659 195.549V196.628H27.1442V195.549H26.0659ZM26.0659 92.033H24.9876V195.549H26.0659H27.1442V92.033H26.0659ZM26.0659 195.549V194.471H-77.4506V195.549V196.628H26.0659V195.549Z" fill="white" mask="url(#path-31-inside-14_292_3021)"/>
<mask id="path-33-inside-15_292_3021" fill="white">
<path d="M26.0659 92.033H129.582V195.549H26.0659V92.033Z"/>
</mask>
<path d="M129.582 195.549V196.628H130.661V195.549H129.582ZM129.582 92.033H128.504V195.549H129.582H130.661V92.033H129.582ZM129.582 195.549V194.471H26.0659V195.549V196.628H129.582V195.549Z" fill="white" mask="url(#path-33-inside-15_292_3021)"/>
<mask id="path-35-inside-16_292_3021" fill="white">
<path d="M129.582 92.033H233.099V195.549H129.582V92.033Z"/>
</mask>
<path d="M233.099 195.549V196.628H234.177V195.549H233.099ZM233.099 92.033H232.021V195.549H233.099H234.177V92.033H233.099ZM233.099 195.549V194.471H129.582V195.549V196.628H233.099V195.549Z" fill="white" mask="url(#path-35-inside-16_292_3021)"/>
<mask id="path-37-inside-17_292_3021" fill="white">
<path d="M233.099 92.033H336.615V195.549H233.099V92.033Z"/>
</mask>
<path d="M336.615 195.549V196.628H337.694V195.549H336.615ZM336.615 92.033H335.537V195.549H336.615H337.694V92.033H336.615ZM336.615 195.549V194.471H233.099V195.549V196.628H336.615V195.549Z" fill="white" mask="url(#path-37-inside-17_292_3021)"/>
<mask id="path-39-inside-18_292_3021" fill="white">
<path d="M336.615 92.033H440.132V195.549H336.615V92.033Z"/>
</mask>
<path d="M440.132 195.549V196.628H441.21V195.549H440.132ZM440.132 92.033H439.054V195.549H440.132H441.21V92.033H440.132ZM440.132 195.549V194.471H336.615V195.549V196.628H440.132V195.549Z" fill="white" mask="url(#path-39-inside-18_292_3021)"/>
<mask id="path-41-inside-19_292_3021" fill="white">
<path d="M440.132 92.033H543.648V195.549H440.132V92.033Z"/>
</mask>
<path d="M543.648 195.549V196.628H544.727V195.549H543.648ZM543.648 92.033H542.57V195.549H543.648H544.727V92.033H543.648ZM543.648 195.549V194.471H440.132V195.549V196.628H543.648V195.549Z" fill="white" mask="url(#path-41-inside-19_292_3021)"/>
<mask id="path-43-inside-20_292_3021" fill="white">
<path d="M543.648 92.033H647.165V195.549H543.648V92.033Z"/>
</mask>
<path d="M647.165 195.549V196.628H648.243V195.549H647.165ZM647.165 92.033H646.087V195.549H647.165H648.243V92.033H647.165ZM647.165 195.549V194.471H543.648V195.549V196.628H647.165V195.549Z" fill="white" mask="url(#path-43-inside-20_292_3021)"/>
<mask id="path-45-inside-21_292_3021" fill="white">
<path d="M647.165 92.033H750.681V195.549H647.165V92.033Z"/>
</mask>
<path d="M750.681 195.549V196.628H751.76V195.549H750.681ZM750.681 92.033H749.603V195.549H750.681H751.76V92.033H750.681ZM750.681 195.549V194.471H647.165V195.549V196.628H750.681V195.549Z" fill="white" mask="url(#path-45-inside-21_292_3021)"/>
<mask id="path-47-inside-22_292_3021" fill="white">
<path d="M750.681 92.033H854.198V195.549H750.681V92.033Z"/>
</mask>
<path d="M854.198 195.549V196.628H855.276V195.549H854.198ZM854.198 92.033H853.12V195.549H854.198H855.276V92.033H854.198ZM854.198 195.549V194.471H750.681V195.549V196.628H854.198V195.549Z" fill="white" mask="url(#path-47-inside-22_292_3021)"/>
<mask id="path-49-inside-23_292_3021" fill="white">
<path d="M854.198 92.033H957.714V195.549H854.198V92.033Z"/>
</mask>
<path d="M957.714 195.549V196.628H958.793V195.549H957.714ZM957.714 92.033H956.636V195.549H957.714H958.793V92.033H957.714ZM957.714 195.549V194.471H854.198V195.549V196.628H957.714V195.549Z" fill="white" mask="url(#path-49-inside-23_292_3021)"/>
<mask id="path-51-inside-24_292_3021" fill="white">
<path d="M957.714 92.033H1061.23V195.549H957.714V92.033Z"/>
</mask>
<path d="M1061.23 195.549V196.628H1062.31V195.549H1061.23ZM1061.23 92.033H1060.15V195.549H1061.23H1062.31V92.033H1061.23ZM1061.23 195.549V194.471H957.714V195.549V196.628H1061.23V195.549Z" fill="white" mask="url(#path-51-inside-24_292_3021)"/>
<mask id="path-53-inside-25_292_3021" fill="white">
<path d="M1061.23 92.033H1164.75V195.549H1061.23V92.033Z"/>
</mask>
<path d="M1164.75 195.549V196.628H1165.83V195.549H1164.75ZM1164.75 92.033H1163.67V195.549H1164.75H1165.83V92.033H1164.75ZM1164.75 195.549V194.471H1061.23V195.549V196.628H1164.75V195.549Z" fill="white" mask="url(#path-53-inside-25_292_3021)"/>
<mask id="path-55-inside-26_292_3021" fill="white">
<path d="M1164.75 92.033H1268.26V195.549H1164.75V92.033Z"/>
</mask>
<path d="M1268.26 195.549V196.628H1269.34V195.549H1268.26ZM1268.26 92.033H1267.19V195.549H1268.26H1269.34V92.033H1268.26ZM1268.26 195.549V194.471H1164.75V195.549V196.628H1268.26V195.549Z" fill="white" mask="url(#path-55-inside-26_292_3021)"/>
<mask id="path-57-inside-27_292_3021" fill="white">
<path d="M-77.4506 195.549H26.0659V299.066H-77.4506V195.549Z"/>
</mask>
<path d="M26.0659 299.066V300.144H27.1442V299.066H26.0659ZM26.0659 195.549H24.9876V299.066H26.0659H27.1442V195.549H26.0659ZM26.0659 299.066V297.988H-77.4506V299.066V300.144H26.0659V299.066Z" fill="white" mask="url(#path-57-inside-27_292_3021)"/>
<mask id="path-59-inside-28_292_3021" fill="white">
<path d="M26.0659 195.549H129.582V299.066H26.0659V195.549Z"/>
</mask>
<path d="M129.582 299.066V300.144H130.661V299.066H129.582ZM129.582 195.549H128.504V299.066H129.582H130.661V195.549H129.582ZM129.582 299.066V297.988H26.0659V299.066V300.144H129.582V299.066Z" fill="white" mask="url(#path-59-inside-28_292_3021)"/>
<mask id="path-61-inside-29_292_3021" fill="white">
<path d="M129.583 195.549H233.099V299.066H129.583V195.549Z"/>
</mask>
<path d="M233.099 299.066V300.144H234.177V299.066H233.099ZM233.099 195.549H232.021V299.066H233.099H234.177V195.549H233.099ZM233.099 299.066V297.988H129.583V299.066V300.144H233.099V299.066Z" fill="white" mask="url(#path-61-inside-29_292_3021)"/>
<mask id="path-63-inside-30_292_3021" fill="white">
<path d="M233.099 195.549H336.615V299.066H233.099V195.549Z"/>
</mask>
<path d="M336.615 299.066V300.144H337.694V299.066H336.615ZM336.615 195.549H335.537V299.066H336.615H337.694V195.549H336.615ZM336.615 299.066V297.988H233.099V299.066V300.144H336.615V299.066Z" fill="white" mask="url(#path-63-inside-30_292_3021)"/>
<mask id="path-65-inside-31_292_3021" fill="white">
<path d="M336.615 195.549H440.132V299.066H336.615V195.549Z"/>
</mask>
<path d="M440.132 299.066V300.144H441.21V299.066H440.132ZM440.132 195.549H439.054V299.066H440.132H441.21V195.549H440.132ZM440.132 299.066V297.988H336.615V299.066V300.144H440.132V299.066Z" fill="white" mask="url(#path-65-inside-31_292_3021)"/>
<mask id="path-67-inside-32_292_3021" fill="white">
<path d="M440.132 195.549H543.648V299.066H440.132V195.549Z"/>
</mask>
<path d="M543.648 299.066V300.144H544.727V299.066H543.648ZM543.648 195.549H542.57V299.066H543.648H544.727V195.549H543.648ZM543.648 299.066V297.988H440.132V299.066V300.144H543.648V299.066Z" fill="white" mask="url(#path-67-inside-32_292_3021)"/>
<mask id="path-69-inside-33_292_3021" fill="white">
<path d="M543.648 195.549H647.165V299.066H543.648V195.549Z"/>
</mask>
<path d="M647.165 299.066V300.144H648.243V299.066H647.165ZM647.165 195.549H646.087V299.066H647.165H648.243V195.549H647.165ZM647.165 299.066V297.988H543.648V299.066V300.144H647.165V299.066Z" fill="white" mask="url(#path-69-inside-33_292_3021)"/>
<mask id="path-71-inside-34_292_3021" fill="white">
<path d="M647.165 195.549H750.681V299.066H647.165V195.549Z"/>
</mask>
<path d="M750.681 299.066V300.144H751.76V299.066H750.681ZM750.681 195.549H749.603V299.066H750.681H751.76V195.549H750.681ZM750.681 299.066V297.988H647.165V299.066V300.144H750.681V299.066Z" fill="white" mask="url(#path-71-inside-34_292_3021)"/>
<mask id="path-73-inside-35_292_3021" fill="white">
<path d="M750.681 195.549H854.198V299.066H750.681V195.549Z"/>
</mask>
<path d="M854.198 299.066V300.144H855.276V299.066H854.198ZM854.198 195.549H853.12V299.066H854.198H855.276V195.549H854.198ZM854.198 299.066V297.988H750.681V299.066V300.144H854.198V299.066Z" fill="white" mask="url(#path-73-inside-35_292_3021)"/>
<mask id="path-75-inside-36_292_3021" fill="white">
<path d="M854.198 195.549H957.714V299.066H854.198V195.549Z"/>
</mask>
<path d="M957.714 299.066V300.144H958.793V299.066H957.714ZM957.714 195.549H956.636V299.066H957.714H958.793V195.549H957.714ZM957.714 299.066V297.988H854.198V299.066V300.144H957.714V299.066Z" fill="white" mask="url(#path-75-inside-36_292_3021)"/>
<mask id="path-77-inside-37_292_3021" fill="white">
<path d="M957.714 195.549H1061.23V299.066H957.714V195.549Z"/>
</mask>
<path d="M1061.23 299.066V300.144H1062.31V299.066H1061.23ZM1061.23 195.549H1060.15V299.066H1061.23H1062.31V195.549H1061.23ZM1061.23 299.066V297.988H957.714V299.066V300.144H1061.23V299.066Z" fill="white" mask="url(#path-77-inside-37_292_3021)"/>
<mask id="path-79-inside-38_292_3021" fill="white">
<path d="M1061.23 195.549H1164.75V299.066H1061.23V195.549Z"/>
</mask>
<path d="M1164.75 299.066V300.144H1165.83V299.066H1164.75ZM1164.75 195.549H1163.67V299.066H1164.75H1165.83V195.549H1164.75ZM1164.75 299.066V297.988H1061.23V299.066V300.144H1164.75V299.066Z" fill="white" mask="url(#path-79-inside-38_292_3021)"/>
<mask id="path-81-inside-39_292_3021" fill="white">
<path d="M1164.75 195.549H1268.26V299.066H1164.75V195.549Z"/>
</mask>
<path d="M1268.26 299.066V300.144H1269.34V299.066H1268.26ZM1268.26 195.549H1267.19V299.066H1268.26H1269.34V195.549H1268.26ZM1268.26 299.066V297.988H1164.75V299.066V300.144H1268.26V299.066Z" fill="white" mask="url(#path-81-inside-39_292_3021)"/>
<mask id="path-83-inside-40_292_3021" fill="white">
<path d="M-77.4506 299.066H26.0659V402.582H-77.4506V299.066Z"/>
</mask>
<path d="M26.0659 402.582V403.661H27.1442V402.582H26.0659ZM26.0659 299.066H24.9876V402.582H26.0659H27.1442V299.066H26.0659ZM26.0659 402.582V401.504H-77.4506V402.582V403.661H26.0659V402.582Z" fill="white" mask="url(#path-83-inside-40_292_3021)"/>
<mask id="path-85-inside-41_292_3021" fill="white">
<path d="M26.0659 299.066H129.582V402.582H26.0659V299.066Z"/>
</mask>
<path d="M129.582 402.582V403.661H130.661V402.582H129.582ZM129.582 299.066H128.504V402.582H129.582H130.661V299.066H129.582ZM129.582 402.582V401.504H26.0659V402.582V403.661H129.582V402.582Z" fill="white" mask="url(#path-85-inside-41_292_3021)"/>
<mask id="path-87-inside-42_292_3021" fill="white">
<path d="M129.583 299.066H233.099V402.582H129.583V299.066Z"/>
</mask>
<path d="M129.583 299.066H233.099V402.582H129.583V299.066Z" fill="#F5F5F5"/>
<path d="M233.099 402.582V403.661H234.177V402.582H233.099ZM233.099 299.066H232.021V402.582H233.099H234.177V299.066H233.099ZM233.099 402.582V401.504H129.583V402.582V403.661H233.099V402.582Z" fill="white" mask="url(#path-87-inside-42_292_3021)"/>
<mask id="path-89-inside-43_292_3021" fill="white">
<path d="M233.099 299.066H336.615V402.582H233.099V299.066Z"/>
</mask>
<path d="M336.615 402.582V403.661H337.694V402.582H336.615ZM336.615 299.066H335.537V402.582H336.615H337.694V299.066H336.615ZM336.615 402.582V401.504H233.099V402.582V403.661H336.615V402.582Z" fill="white" mask="url(#path-89-inside-43_292_3021)"/>
<mask id="path-91-inside-44_292_3021" fill="white">
<path d="M336.615 299.066H440.132V402.582H336.615V299.066Z"/>
</mask>
<path d="M440.132 402.582V403.661H441.21V402.582H440.132ZM440.132 299.066H439.054V402.582H440.132H441.21V299.066H440.132ZM440.132 402.582V401.504H336.615V402.582V403.661H440.132V402.582Z" fill="white" mask="url(#path-91-inside-44_292_3021)"/>
<mask id="path-93-inside-45_292_3021" fill="white">
<path d="M440.132 299.066H543.648V402.582H440.132V299.066Z"/>
</mask>
<path d="M543.648 402.582V403.661H544.727V402.582H543.648ZM543.648 299.066H542.57V402.582H543.648H544.727V299.066H543.648ZM543.648 402.582V401.504H440.132V402.582V403.661H543.648V402.582Z" fill="white" mask="url(#path-93-inside-45_292_3021)"/>
<mask id="path-95-inside-46_292_3021" fill="white">
<path d="M543.648 299.066H647.165V402.582H543.648V299.066Z"/>
</mask>
<path d="M647.165 402.582V403.661H648.243V402.582H647.165ZM647.165 299.066H646.087V402.582H647.165H648.243V299.066H647.165ZM647.165 402.582V401.504H543.648V402.582V403.661H647.165V402.582Z" fill="white" mask="url(#path-95-inside-46_292_3021)"/>
<mask id="path-97-inside-47_292_3021" fill="white">
<path d="M647.165 299.066H750.681V402.582H647.165V299.066Z"/>
</mask>
<path d="M750.681 402.582V403.661H751.76V402.582H750.681ZM750.681 299.066H749.603V402.582H750.681H751.76V299.066H750.681ZM750.681 402.582V401.504H647.165V402.582V403.661H750.681V402.582Z" fill="white" mask="url(#path-97-inside-47_292_3021)"/>
<mask id="path-99-inside-48_292_3021" fill="white">
<path d="M750.681 299.066H854.198V402.582H750.681V299.066Z"/>
</mask>
<path d="M854.198 402.582V403.661H855.276V402.582H854.198ZM854.198 299.066H853.12V402.582H854.198H855.276V299.066H854.198ZM854.198 402.582V401.504H750.681V402.582V403.661H854.198V402.582Z" fill="white" mask="url(#path-99-inside-48_292_3021)"/>
<mask id="path-101-inside-49_292_3021" fill="white">
<path d="M854.198 299.066H957.714V402.582H854.198V299.066Z"/>
</mask>
<path d="M957.714 402.582V403.661H958.793V402.582H957.714ZM957.714 299.066H956.636V402.582H957.714H958.793V299.066H957.714ZM957.714 402.582V401.504H854.198V402.582V403.661H957.714V402.582Z" fill="white" mask="url(#path-101-inside-49_292_3021)"/>
<mask id="path-103-inside-50_292_3021" fill="white">
<path d="M957.714 299.066H1061.23V402.582H957.714V299.066Z"/>
</mask>
<path d="M1061.23 402.582V403.661H1062.31V402.582H1061.23ZM1061.23 299.066H1060.15V402.582H1061.23H1062.31V299.066H1061.23ZM1061.23 402.582V401.504H957.714V402.582V403.661H1061.23V402.582Z" fill="white" mask="url(#path-103-inside-50_292_3021)"/>
<mask id="path-105-inside-51_292_3021" fill="white">
<path d="M1061.23 299.066H1164.75V402.582H1061.23V299.066Z"/>
</mask>
<path d="M1164.75 402.582V403.661H1165.83V402.582H1164.75ZM1164.75 299.066H1163.67V402.582H1164.75H1165.83V299.066H1164.75ZM1164.75 402.582V401.504H1061.23V402.582V403.661H1164.75V402.582Z" fill="white" mask="url(#path-105-inside-51_292_3021)"/>
<mask id="path-107-inside-52_292_3021" fill="white">
<path d="M1164.75 299.066H1268.26V402.582H1164.75V299.066Z"/>
</mask>
<path d="M1164.75 299.066H1268.26V402.582H1164.75V299.066Z" fill="#F5F5F5"/>
<path d="M1268.26 402.582V403.661H1269.34V402.582H1268.26ZM1268.26 299.066H1267.19V402.582H1268.26H1269.34V299.066H1268.26ZM1268.26 402.582V401.504H1164.75V402.582V403.661H1268.26V402.582Z" fill="white" mask="url(#path-107-inside-52_292_3021)"/>
<mask id="path-109-inside-53_292_3021" fill="white">
<path d="M-77.4506 402.582H26.0659V506.099H-77.4506V402.582Z"/>
</mask>
<path d="M26.0659 506.099V507.177H27.1442V506.099H26.0659ZM26.0659 402.582H24.9876V506.099H26.0659H27.1442V402.582H26.0659ZM26.0659 506.099V505.021H-77.4506V506.099V507.177H26.0659V506.099Z" fill="white" mask="url(#path-109-inside-53_292_3021)"/>
<mask id="path-111-inside-54_292_3021" fill="white">
<path d="M26.0659 402.582H129.582V506.099H26.0659V402.582Z"/>
</mask>
<path d="M129.582 506.099V507.177H130.661V506.099H129.582ZM129.582 402.582H128.504V506.099H129.582H130.661V402.582H129.582ZM129.582 506.099V505.021H26.0659V506.099V507.177H129.582V506.099Z" fill="white" mask="url(#path-111-inside-54_292_3021)"/>
<mask id="path-113-inside-55_292_3021" fill="white">
<path d="M129.583 402.582H233.099V506.099H129.583V402.582Z"/>
</mask>
<path d="M233.099 506.099V507.177H234.177V506.099H233.099ZM233.099 402.582H232.021V506.099H233.099H234.177V402.582H233.099ZM233.099 506.099V505.021H129.583V506.099V507.177H233.099V506.099Z" fill="white" mask="url(#path-113-inside-55_292_3021)"/>
<mask id="path-115-inside-56_292_3021" fill="white">
<path d="M233.099 402.582H336.615V506.099H233.099V402.582Z"/>
</mask>
<path d="M336.615 506.099V507.177H337.694V506.099H336.615ZM336.615 402.582H335.537V506.099H336.615H337.694V402.582H336.615ZM336.615 506.099V505.021H233.099V506.099V507.177H336.615V506.099Z" fill="white" mask="url(#path-115-inside-56_292_3021)"/>
<mask id="path-117-inside-57_292_3021" fill="white">
<path d="M336.615 402.582H440.132V506.099H336.615V402.582Z"/>
</mask>
<path d="M440.132 506.099V507.177H441.21V506.099H440.132ZM440.132 402.582H439.054V506.099H440.132H441.21V402.582H440.132ZM440.132 506.099V505.021H336.615V506.099V507.177H440.132V506.099Z" fill="white" mask="url(#path-117-inside-57_292_3021)"/>
<mask id="path-119-inside-58_292_3021" fill="white">
<path d="M440.132 402.582H543.648V506.099H440.132V402.582Z"/>
</mask>
<path d="M543.648 506.099V507.177H544.727V506.099H543.648ZM543.648 402.582H542.57V506.099H543.648H544.727V402.582H543.648ZM543.648 506.099V505.021H440.132V506.099V507.177H543.648V506.099Z" fill="white" mask="url(#path-119-inside-58_292_3021)"/>
<mask id="path-121-inside-59_292_3021" fill="white">
<path d="M543.648 402.582H647.165V506.099H543.648V402.582Z"/>
</mask>
<path d="M647.165 506.099V507.177H648.243V506.099H647.165ZM647.165 402.582H646.087V506.099H647.165H648.243V402.582H647.165ZM647.165 506.099V505.021H543.648V506.099V507.177H647.165V506.099Z" fill="white" mask="url(#path-121-inside-59_292_3021)"/>
<mask id="path-123-inside-60_292_3021" fill="white">
<path d="M647.165 402.582H750.681V506.099H647.165V402.582Z"/>
</mask>
<path d="M750.681 506.099V507.177H751.76V506.099H750.681ZM750.681 402.582H749.603V506.099H750.681H751.76V402.582H750.681ZM750.681 506.099V505.021H647.165V506.099V507.177H750.681V506.099Z" fill="white" mask="url(#path-123-inside-60_292_3021)"/>
<mask id="path-125-inside-61_292_3021" fill="white">
<path d="M750.681 402.582H854.198V506.099H750.681V402.582Z"/>
</mask>
<path d="M854.198 506.099V507.177H855.276V506.099H854.198ZM854.198 402.582H853.12V506.099H854.198H855.276V402.582H854.198ZM854.198 506.099V505.021H750.681V506.099V507.177H854.198V506.099Z" fill="white" mask="url(#path-125-inside-61_292_3021)"/>
<mask id="path-127-inside-62_292_3021" fill="white">
<path d="M854.198 402.582H957.714V506.099H854.198V402.582Z"/>
</mask>
<path d="M957.714 506.099V507.177H958.793V506.099H957.714ZM957.714 402.582H956.636V506.099H957.714H958.793V402.582H957.714ZM957.714 506.099V505.021H854.198V506.099V507.177H957.714V506.099Z" fill="white" mask="url(#path-127-inside-62_292_3021)"/>
<mask id="path-129-inside-63_292_3021" fill="white">
<path d="M957.714 402.582H1061.23V506.099H957.714V402.582Z"/>
</mask>
<path d="M1061.23 506.099V507.177H1062.31V506.099H1061.23ZM1061.23 402.582H1060.15V506.099H1061.23H1062.31V402.582H1061.23ZM1061.23 506.099V505.021H957.714V506.099V507.177H1061.23V506.099Z" fill="white" mask="url(#path-129-inside-63_292_3021)"/>
<mask id="path-131-inside-64_292_3021" fill="white">
<path d="M1061.23 402.582H1164.75V506.099H1061.23V402.582Z"/>
</mask>
<path d="M1164.75 506.099V507.177H1165.83V506.099H1164.75ZM1164.75 402.582H1163.67V506.099H1164.75H1165.83V402.582H1164.75ZM1164.75 506.099V505.021H1061.23V506.099V507.177H1164.75V506.099Z" fill="white" mask="url(#path-131-inside-64_292_3021)"/>
<mask id="path-133-inside-65_292_3021" fill="white">
<path d="M1164.75 402.582H1268.26V506.099H1164.75V402.582Z"/>
</mask>
<path d="M1268.26 506.099V507.177H1269.34V506.099H1268.26ZM1268.26 402.582H1267.19V506.099H1268.26H1269.34V402.582H1268.26ZM1268.26 506.099V505.021H1164.75V506.099V507.177H1268.26V506.099Z" fill="white" mask="url(#path-133-inside-65_292_3021)"/>
<mask id="path-135-inside-66_292_3021" fill="white">
<path d="M-77.4506 506.099H26.0659V609.615H-77.4506V506.099Z"/>
</mask>
<path d="M26.0659 609.615V610.694H27.1442V609.615H26.0659ZM26.0659 506.099H24.9876V609.615H26.0659H27.1442V506.099H26.0659ZM26.0659 609.615V608.537H-77.4506V609.615V610.694H26.0659V609.615Z" fill="white" mask="url(#path-135-inside-66_292_3021)"/>
<mask id="path-137-inside-67_292_3021" fill="white">
<path d="M26.0659 506.099H129.582V609.615H26.0659V506.099Z"/>
</mask>
<path d="M129.582 609.615V610.694H130.661V609.615H129.582ZM129.582 506.099H128.504V609.615H129.582H130.661V506.099H129.582ZM129.582 609.615V608.537H26.0659V609.615V610.694H129.582V609.615Z" fill="white" mask="url(#path-137-inside-67_292_3021)"/>
<mask id="path-139-inside-68_292_3021" fill="white">
<path d="M129.583 506.099H233.099V609.615H129.583V506.099Z"/>
</mask>
<path d="M233.099 609.615V610.694H234.177V609.615H233.099ZM233.099 506.099H232.021V609.615H233.099H234.177V506.099H233.099ZM233.099 609.615V608.537H129.583V609.615V610.694H233.099V609.615Z" fill="white" mask="url(#path-139-inside-68_292_3021)"/>
<mask id="path-141-inside-69_292_3021" fill="white">
<path d="M233.099 506.099H336.615V609.615H233.099V506.099Z"/>
</mask>
<path d="M336.615 609.615V610.694H337.694V609.615H336.615ZM336.615 506.099H335.537V609.615H336.615H337.694V506.099H336.615ZM336.615 609.615V608.537H233.099V609.615V610.694H336.615V609.615Z" fill="white" mask="url(#path-141-inside-69_292_3021)"/>
<mask id="path-143-inside-70_292_3021" fill="white">
<path d="M336.615 506.099H440.132V609.615H336.615V506.099Z"/>
</mask>
<path d="M440.132 609.615V610.694H441.21V609.615H440.132ZM440.132 506.099H439.054V609.615H440.132H441.21V506.099H440.132ZM440.132 609.615V608.537H336.615V609.615V610.694H440.132V609.615Z" fill="white" mask="url(#path-143-inside-70_292_3021)"/>
<mask id="path-145-inside-71_292_3021" fill="white">
<path d="M440.132 506.099H543.648V609.615H440.132V506.099Z"/>
</mask>
<path d="M543.648 609.615V610.694H544.727V609.615H543.648ZM543.648 506.099H542.57V609.615H543.648H544.727V506.099H543.648ZM543.648 609.615V608.537H440.132V609.615V610.694H543.648V609.615Z" fill="white" mask="url(#path-145-inside-71_292_3021)"/>
<mask id="path-147-inside-72_292_3021" fill="white">
<path d="M543.648 506.099H647.165V609.615H543.648V506.099Z"/>
</mask>
<path d="M647.165 609.615V610.694H648.243V609.615H647.165ZM647.165 506.099H646.087V609.615H647.165H648.243V506.099H647.165ZM647.165 609.615V608.537H543.648V609.615V610.694H647.165V609.615Z" fill="white" mask="url(#path-147-inside-72_292_3021)"/>
<mask id="path-149-inside-73_292_3021" fill="white">
<path d="M647.165 506.099H750.681V609.615H647.165V506.099Z"/>
</mask>
<path d="M750.681 609.615V610.694H751.76V609.615H750.681ZM750.681 506.099H749.603V609.615H750.681H751.76V506.099H750.681ZM750.681 609.615V608.537H647.165V609.615V610.694H750.681V609.615Z" fill="white" mask="url(#path-149-inside-73_292_3021)"/>
<mask id="path-151-inside-74_292_3021" fill="white">
<path d="M750.681 506.099H854.198V609.615H750.681V506.099Z"/>
</mask>
<path d="M854.198 609.615V610.694H855.276V609.615H854.198ZM854.198 506.099H853.12V609.615H854.198H855.276V506.099H854.198ZM854.198 609.615V608.537H750.681V609.615V610.694H854.198V609.615Z" fill="white" mask="url(#path-151-inside-74_292_3021)"/>
<mask id="path-153-inside-75_292_3021" fill="white">
<path d="M854.198 506.099H957.714V609.615H854.198V506.099Z"/>
</mask>
<path d="M957.714 609.615V610.694H958.793V609.615H957.714ZM957.714 506.099H956.636V609.615H957.714H958.793V506.099H957.714ZM957.714 609.615V608.537H854.198V609.615V610.694H957.714V609.615Z" fill="white" mask="url(#path-153-inside-75_292_3021)"/>
<mask id="path-155-inside-76_292_3021" fill="white">
<path d="M957.714 506.099H1061.23V609.615H957.714V506.099Z"/>
</mask>
<path d="M1061.23 609.615V610.694H1062.31V609.615H1061.23ZM1061.23 506.099H1060.15V609.615H1061.23H1062.31V506.099H1061.23ZM1061.23 609.615V608.537H957.714V609.615V610.694H1061.23V609.615Z" fill="white" mask="url(#path-155-inside-76_292_3021)"/>
<mask id="path-157-inside-77_292_3021" fill="white">
<path d="M1061.23 506.099H1164.75V609.615H1061.23V506.099Z"/>
</mask>
<path d="M1164.75 609.615V610.694H1165.83V609.615H1164.75ZM1164.75 506.099H1163.67V609.615H1164.75H1165.83V506.099H1164.75ZM1164.75 609.615V608.537H1061.23V609.615V610.694H1164.75V609.615Z" fill="white" mask="url(#path-157-inside-77_292_3021)"/>
<mask id="path-159-inside-78_292_3021" fill="white">
<path d="M1164.75 506.099H1268.26V609.615H1164.75V506.099Z"/>
</mask>
<path d="M1268.26 609.615V610.694H1269.34V609.615H1268.26ZM1268.26 506.099H1267.19V609.615H1268.26H1269.34V506.099H1268.26ZM1268.26 609.615V608.537H1164.75V609.615V610.694H1268.26V609.615Z" fill="white" mask="url(#path-159-inside-78_292_3021)"/>
</g>
<rect x="-387.461" y="-114.461" width="2069.25" height="1551.67" stroke="white" stroke-width="1.0783"/>
</g>
</g>
</g>
</g>
<defs>
<filter id="filter0_f_292_3021" x="-500" y="-317" width="2321" height="1341" filterUnits="userSpaceOnUse" color-interpolation-filters="sRGB">
<feFlood flood-opacity="0" result="BackgroundImageFix"/>
<feBlend mode="normal" in="SourceGraphic" in2="BackgroundImageFix" result="shape"/>
<feGaussianBlur stdDeviation="250" result="effect1_foregroundBlur_292_3021"/>
</filter>
<linearGradient id="paint0_linear_292_3021" x1="1321" y1="170.5" x2="73.0918" y2="170.5" gradientUnits="userSpaceOnUse">
<stop stop-color="#06ACFF"/>
<stop offset="1" stop-color="#06ACFF"/>
</linearGradient>
<radialGradient id="paint1_radial_292_3021" cx="0" cy="0" r="1" gradientUnits="userSpaceOnUse" gradientTransform="translate(599.5 -7.18832e-05) rotate(90) scale(603 625.801)">
<stop/>
<stop offset="0.953125" stop-opacity="0"/>
</radialGradient>
<clipPath id="clip0_292_3021">
<rect width="1200" height="524" rx="24" fill="white"/>
</clipPath>
<clipPath id="clip1_292_3021">
<rect x="-388" y="-115" width="2070.33" height="1552.75" fill="white"/>
</clipPath>
</defs>
</svg>
