<svg width="38" height="38" viewBox="0 0 38 38" fill="none" xmlns="http://www.w3.org/2000/svg">
<path d="M12.6667 28.5V23.75M19 20.5833V28.5M25.3333 28.5V17.4167M10.2917 18.2083L12.6106 15.5029C14.1162 13.7464 16.4409 12.9211 18.7169 13.3349V13.3349C21.8691 13.908 25.1018 12.8982 27.3673 10.6327L27.7083 10.2917M16.15 33.25H21.85C26.5997 33.25 28.9745 33.25 30.6393 32.0404C31.177 31.6498 31.6498 31.177 32.0404 30.6393C33.25 28.9745 33.25 26.5997 33.25 21.85V16.15C33.25 11.4003 33.25 9.02551 32.0404 7.36069C31.6498 6.82303 31.177 6.3502 30.6393 5.95956C28.9745 4.75 26.5997 4.75 21.85 4.75H16.15C11.4003 4.75 9.02551 4.75 7.36069 5.95956C6.82303 6.3502 6.3502 6.82303 5.95956 7.36069C4.75 9.02551 4.75 11.4003 4.75 16.15V21.85C4.75 26.5997 4.75 28.9745 5.95956 30.6393C6.3502 31.177 6.82303 31.6498 7.36069 32.0404C9.02551 33.25 11.4003 33.25 16.15 33.25Z" stroke="#259CCE" stroke-width="2" stroke-linecap="round" stroke-linejoin="round"/>
</svg>
