<svg width="39" height="38" viewBox="0 0 39 38" fill="none" xmlns="http://www.w3.org/2000/svg">
<path d="M8.58325 30.0833V11.95C8.58325 8.95022 8.58325 7.45032 9.34718 6.39886C9.5939 6.05928 9.89253 5.76065 10.2321 5.51393C11.2836 4.75 12.7835 4.75 15.7833 4.75H28.9499C29.6999 4.75 30.0748 4.75 30.3377 4.94098C30.4226 5.00266 30.4973 5.07732 30.5589 5.16221C30.7499 5.42508 30.7499 5.80005 30.7499 6.55V30.0833M14.9166 11.0833H24.4166M14.9166 15.8333H21.2499M10.9582 33.25H28.9499C29.6999 33.25 30.0748 33.25 30.3377 33.059C30.4226 32.9973 30.4973 32.9227 30.5589 32.8378C30.7499 32.5749 30.7499 32.1999 30.7499 31.45V30.3C30.7499 29.5501 30.7499 29.1751 30.5589 28.9122C30.4973 28.8273 30.4226 28.7527 30.3377 28.691C30.0748 28.5 29.6999 28.5 28.9499 28.5H10.9583C9.64658 28.5 8.58325 29.5633 8.58325 30.875V30.875C8.58325 32.1867 9.64657 33.25 10.9582 33.25Z" stroke="#259CCE" stroke-width="1.5" stroke-linecap="round" stroke-linejoin="round"/>
</svg>
