<svg width="38" height="38" viewBox="0 0 38 38" fill="none" xmlns="http://www.w3.org/2000/svg">
<path d="M24.4625 4.75H13.5375C10.8658 4.75 9.52997 4.75 8.59352 5.43038C8.29108 5.65011 8.02511 5.91608 7.80538 6.21852C7.125 7.15497 7.125 8.49082 7.125 11.1625V26.8375C7.125 29.5092 7.125 30.845 7.80538 31.7815C8.02511 32.0839 8.29108 32.3499 8.59352 32.5696C9.52997 33.25 10.8658 33.25 13.5375 33.25H24.4625C27.1342 33.25 28.47 33.25 29.4065 32.5696C29.7089 32.3499 29.9749 32.0839 30.1946 31.7815C30.875 30.845 30.875 29.5092 30.875 26.8375V11.1625C30.875 8.49082 30.875 7.15497 30.1946 6.21852C29.9749 5.91608 29.7089 5.65011 29.4065 5.43038C28.47 4.75 27.1342 4.75 24.4625 4.75Z" stroke="#259CCE" stroke-width="2" stroke-linejoin="round"/>
<path d="M10.2916 17.8124C10.2916 16.7194 11.1777 15.8333 12.2708 15.8333C13.3639 15.8333 14.25 16.7194 14.25 17.8124C14.25 18.9055 13.3639 19.7916 12.2708 19.7916C11.1777 19.7916 10.2916 18.9055 10.2916 17.8124Z" fill="#259CCE"/>
<path d="M17.0208 17.8124C17.0208 16.7194 17.9069 15.8333 19 15.8333C20.093 15.8333 20.9791 16.7194 20.9791 17.8124C20.9791 18.9055 20.093 19.7916 19 19.7916C17.9069 19.7916 17.0208 18.9055 17.0208 17.8124Z" fill="#259CCE"/>
<path d="M23.75 17.8124C23.75 16.7194 24.6361 15.8333 25.7291 15.8333C26.8222 15.8333 27.7083 16.7194 27.7083 17.8124C27.7083 18.9055 26.8222 19.7916 25.7291 19.7916C24.6361 19.7916 23.75 18.9055 23.75 17.8124Z" fill="#259CCE"/>
<path d="M10.2916 28.1041C10.2916 27.011 11.1777 26.1249 12.2708 26.1249C13.3639 26.1249 14.25 27.011 14.25 28.1041C14.25 29.1972 13.3639 30.0833 12.2708 30.0833C11.1777 30.0833 10.2916 29.1972 10.2916 28.1041Z" fill="#259CCE"/>
<path d="M17.0208 28.1041C17.0208 27.011 17.9069 26.1249 19 26.1249C20.093 26.1249 20.9791 27.011 20.9791 28.1041C20.9791 29.1972 20.093 30.0833 19 30.0833C17.9069 30.0833 17.0208 29.1972 17.0208 28.1041Z" fill="#259CCE"/>
<path d="M27.7083 28.1041V22.9583C27.7083 22.2183 27.7083 21.8484 27.5492 21.5728C27.445 21.3923 27.2951 21.2424 27.1145 21.1382C26.839 20.9791 26.469 20.9791 25.7291 20.9791C24.9892 20.9791 24.6193 20.9791 24.3437 21.1382C24.1632 21.2424 24.0133 21.3923 23.9091 21.5728C23.75 21.8484 23.75 22.2183 23.75 22.9583V28.1041C23.75 28.844 23.75 29.2139 23.9091 29.4895C24.0133 29.67 24.1632 29.8199 24.3437 29.9242C24.6193 30.0833 24.9892 30.0833 25.7291 30.0833C26.469 30.0833 26.839 30.0833 27.1145 29.9242C27.2951 29.8199 27.445 29.67 27.5492 29.4895C27.7083 29.2139 27.7083 28.844 27.7083 28.1041Z" fill="#259CCE"/>
<path d="M10.2916 22.9583C10.2916 21.8652 11.1777 20.9791 12.2708 20.9791C13.3639 20.9791 14.25 21.8652 14.25 22.9583C14.25 24.0513 13.3639 24.9374 12.2708 24.9374C11.1777 24.9374 10.2916 24.0513 10.2916 22.9583Z" fill="#259CCE"/>
<path d="M17.0208 22.9583C17.0208 21.8652 17.9069 20.9791 19 20.9791C20.093 20.9791 20.9791 21.8652 20.9791 22.9583C20.9791 24.0513 20.093 24.9374 19 24.9374C17.9069 24.9374 17.0208 24.0513 17.0208 22.9583Z" fill="#259CCE"/>
<path d="M24.9177 9.10425H13.0823C12.4143 9.10425 12.0804 9.10425 11.8463 9.27434C11.7706 9.32928 11.7042 9.39577 11.6492 9.47138C11.4791 9.70549 11.4791 10.0395 11.4791 10.7074V11.4595C11.4791 12.1274 11.4791 12.4613 11.6492 12.6955C11.7042 12.7711 11.7706 12.8376 11.8463 12.8925C12.0804 13.0626 12.4143 13.0626 13.0823 13.0626H24.9177C25.5856 13.0626 25.9195 13.0626 26.1537 12.8925C26.2293 12.8376 26.2958 12.7711 26.3507 12.6955C26.5208 12.4613 26.5208 12.1274 26.5208 11.4595V10.7074C26.5208 10.0395 26.5208 9.70549 26.3507 9.47138C26.2958 9.39577 26.2293 9.32928 26.1537 9.27434C25.9195 9.10425 25.5856 9.10425 24.9177 9.10425Z" stroke="#259CCE" stroke-width="2" stroke-linejoin="round"/>
</svg>
