<svg width="712" height="602" viewBox="0 0 712 602" fill="none" xmlns="http://www.w3.org/2000/svg">
<g opacity="0.27">
<g clip-path="url(#clip0_292_2714)">
<mask id="path-3-inside-1_292_2714" fill="white">
<path d="M-10.9011 -29H92.6154V74.5165H-10.9011V-29Z"/>
</mask>
<path d="M92.6154 74.5165V75.5948H93.6937V74.5165H92.6154ZM92.6154 -29H91.5371V74.5165H92.6154H93.6937V-29H92.6154ZM92.6154 74.5165V73.4382H-10.9011V74.5165V75.5948H92.6154V74.5165Z" fill="#E9EAEB" mask="url(#path-3-inside-1_292_2714)"/>
<mask id="path-5-inside-2_292_2714" fill="white">
<path d="M92.6154 -29H196.132V74.5165H92.6154V-29Z"/>
</mask>
<path d="M196.132 74.5165V75.5948H197.21V74.5165H196.132ZM196.132 -29H195.054V74.5165H196.132H197.21V-29H196.132ZM196.132 74.5165V73.4382H92.6154V74.5165V75.5948H196.132V74.5165Z" fill="#E9EAEB" mask="url(#path-5-inside-2_292_2714)"/>
<mask id="path-7-inside-3_292_2714" fill="white">
<path d="M196.132 -29H299.648V74.5165H196.132V-29Z"/>
</mask>
<path d="M299.648 74.5165V75.5948H300.727V74.5165H299.648ZM299.648 -29H298.57V74.5165H299.648H300.727V-29H299.648ZM299.648 74.5165V73.4382H196.132V74.5165V75.5948H299.648V74.5165Z" fill="#E9EAEB" mask="url(#path-7-inside-3_292_2714)"/>
<mask id="path-9-inside-4_292_2714" fill="white">
<path d="M299.648 -29H403.165V74.5165H299.648V-29Z"/>
</mask>
<path d="M403.165 74.5165V75.5948H404.243V74.5165H403.165ZM403.165 -29H402.087V74.5165H403.165H404.243V-29H403.165ZM403.165 74.5165V73.4382H299.648V74.5165V75.5948H403.165V74.5165Z" fill="#E9EAEB" mask="url(#path-9-inside-4_292_2714)"/>
<mask id="path-11-inside-5_292_2714" fill="white">
<path d="M403.165 -29H506.681V74.5165H403.165V-29Z"/>
</mask>
<path d="M506.681 74.5165V75.5948H507.76V74.5165H506.681ZM506.681 -29H505.603V74.5165H506.681H507.76V-29H506.681ZM506.681 74.5165V73.4382H403.165V74.5165V75.5948H506.681V74.5165Z" fill="#E9EAEB" mask="url(#path-11-inside-5_292_2714)"/>
<mask id="path-13-inside-6_292_2714" fill="white">
<path d="M506.681 -29H610.198V74.5165H506.681V-29Z"/>
</mask>
<path d="M610.198 74.5165V75.5948H611.276V74.5165H610.198ZM610.198 -29H609.119V74.5165H610.198H611.276V-29H610.198ZM610.198 74.5165V73.4382H506.681V74.5165V75.5948H610.198V74.5165Z" fill="#E9EAEB" mask="url(#path-13-inside-6_292_2714)"/>
<mask id="path-15-inside-7_292_2714" fill="white">
<path d="M610.198 -29H713.714V74.5165H610.198V-29Z"/>
</mask>
<path d="M713.714 74.5165V75.5948H714.793V74.5165H713.714ZM713.714 -29H712.636V74.5165H713.714H714.793V-29H713.714ZM713.714 74.5165V73.4382H610.198V74.5165V75.5948H713.714V74.5165Z" fill="#E9EAEB" mask="url(#path-15-inside-7_292_2714)"/>
<mask id="path-17-inside-8_292_2714" fill="white">
<path d="M-10.9011 74.5166H92.6154V178.033H-10.9011V74.5166Z"/>
</mask>
<path d="M92.6154 178.033V179.111H93.6937V178.033H92.6154ZM92.6154 74.5166H91.5371V178.033H92.6154H93.6937V74.5166H92.6154ZM92.6154 178.033V176.955H-10.9011V178.033V179.111H92.6154V178.033Z" fill="#E9EAEB" mask="url(#path-17-inside-8_292_2714)"/>
<mask id="path-19-inside-9_292_2714" fill="white">
<path d="M92.6154 74.5166H196.132V178.033H92.6154V74.5166Z"/>
</mask>
<path d="M196.132 178.033V179.111H197.21V178.033H196.132ZM196.132 74.5166H195.054V178.033H196.132H197.21V74.5166H196.132ZM196.132 178.033V176.955H92.6154V178.033V179.111H196.132V178.033Z" fill="#E9EAEB" mask="url(#path-19-inside-9_292_2714)"/>
<mask id="path-21-inside-10_292_2714" fill="white">
<path d="M196.132 74.5166H299.648V178.033H196.132V74.5166Z"/>
</mask>
<path d="M299.648 178.033V179.111H300.727V178.033H299.648ZM299.648 74.5166H298.57V178.033H299.648H300.727V74.5166H299.648ZM299.648 178.033V176.955H196.132V178.033V179.111H299.648V178.033Z" fill="#E9EAEB" mask="url(#path-21-inside-10_292_2714)"/>
<mask id="path-23-inside-11_292_2714" fill="white">
<path d="M299.648 74.5166H403.165V178.033H299.648V74.5166Z"/>
</mask>
<path d="M403.165 178.033V179.111H404.243V178.033H403.165ZM403.165 74.5166H402.087V178.033H403.165H404.243V74.5166H403.165ZM403.165 178.033V176.955H299.648V178.033V179.111H403.165V178.033Z" fill="#E9EAEB" mask="url(#path-23-inside-11_292_2714)"/>
<mask id="path-25-inside-12_292_2714" fill="white">
<path d="M403.165 74.5166H506.681V178.033H403.165V74.5166Z"/>
</mask>
<path d="M506.681 178.033V179.111H507.76V178.033H506.681ZM506.681 74.5166H505.603V178.033H506.681H507.76V74.5166H506.681ZM506.681 178.033V176.955H403.165V178.033V179.111H506.681V178.033Z" fill="#E9EAEB" mask="url(#path-25-inside-12_292_2714)"/>
<mask id="path-27-inside-13_292_2714" fill="white">
<path d="M506.681 74.5166H610.198V178.033H506.681V74.5166Z"/>
</mask>
<path d="M610.198 178.033V179.111H611.276V178.033H610.198ZM610.198 74.5166H609.119V178.033H610.198H611.276V74.5166H610.198ZM610.198 178.033V176.955H506.681V178.033V179.111H610.198V178.033Z" fill="#E9EAEB" mask="url(#path-27-inside-13_292_2714)"/>
<mask id="path-29-inside-14_292_2714" fill="white">
<path d="M610.198 74.5166H713.714V178.033H610.198V74.5166Z"/>
</mask>
<path d="M713.714 178.033V179.111H714.793V178.033H713.714ZM713.714 74.5166H712.636V178.033H713.714H714.793V74.5166H713.714ZM713.714 178.033V176.955H610.198V178.033V179.111H713.714V178.033Z" fill="#E9EAEB" mask="url(#path-29-inside-14_292_2714)"/>
<mask id="path-31-inside-15_292_2714" fill="white">
<path d="M-10.9011 178.033H92.6154V281.549H-10.9011V178.033Z"/>
</mask>
<path d="M92.6154 281.549V282.628H93.6937V281.549H92.6154ZM92.6154 178.033H91.5371V281.549H92.6154H93.6937V178.033H92.6154ZM92.6154 281.549V280.471H-10.9011V281.549V282.628H92.6154V281.549Z" fill="#E9EAEB" mask="url(#path-31-inside-15_292_2714)"/>
<mask id="path-33-inside-16_292_2714" fill="white">
<path d="M92.6155 178.033H196.132V281.549H92.6155V178.033Z"/>
</mask>
<path d="M196.132 281.549V282.628H197.21V281.549H196.132ZM196.132 178.033H195.054V281.549H196.132H197.21V178.033H196.132ZM196.132 281.549V280.471H92.6155V281.549V282.628H196.132V281.549Z" fill="#E9EAEB" mask="url(#path-33-inside-16_292_2714)"/>
<mask id="path-35-inside-17_292_2714" fill="white">
<path d="M196.132 178.033H299.648V281.549H196.132V178.033Z"/>
</mask>
<path d="M299.648 281.549V282.628H300.727V281.549H299.648ZM299.648 178.033H298.57V281.549H299.648H300.727V178.033H299.648ZM299.648 281.549V280.471H196.132V281.549V282.628H299.648V281.549Z" fill="#E9EAEB" mask="url(#path-35-inside-17_292_2714)"/>
<mask id="path-37-inside-18_292_2714" fill="white">
<path d="M299.648 178.033H403.165V281.549H299.648V178.033Z"/>
</mask>
<path d="M403.165 281.549V282.628H404.243V281.549H403.165ZM403.165 178.033H402.087V281.549H403.165H404.243V178.033H403.165ZM403.165 281.549V280.471H299.648V281.549V282.628H403.165V281.549Z" fill="#E9EAEB" mask="url(#path-37-inside-18_292_2714)"/>
<mask id="path-39-inside-19_292_2714" fill="white">
<path d="M403.165 178.033H506.682V281.549H403.165V178.033Z"/>
</mask>
<path d="M506.682 281.549V282.628H507.76V281.549H506.682ZM506.682 178.033H505.603V281.549H506.682H507.76V178.033H506.682ZM506.682 281.549V280.471H403.165V281.549V282.628H506.682V281.549Z" fill="#E9EAEB" mask="url(#path-39-inside-19_292_2714)"/>
<mask id="path-41-inside-20_292_2714" fill="white">
<path d="M506.681 178.033H610.198V281.549H506.681V178.033Z"/>
</mask>
<path d="M610.198 281.549V282.628H611.276V281.549H610.198ZM610.198 178.033H609.12V281.549H610.198H611.276V178.033H610.198ZM610.198 281.549V280.471H506.681V281.549V282.628H610.198V281.549Z" fill="#E9EAEB" mask="url(#path-41-inside-20_292_2714)"/>
<mask id="path-43-inside-21_292_2714" fill="white">
<path d="M610.198 178.033H713.714V281.549H610.198V178.033Z"/>
</mask>
<path d="M713.714 281.549V282.628H714.793V281.549H713.714ZM713.714 178.033H712.636V281.549H713.714H714.793V178.033H713.714ZM713.714 281.549V280.471H610.198V281.549V282.628H713.714V281.549Z" fill="#E9EAEB" mask="url(#path-43-inside-21_292_2714)"/>
<mask id="path-45-inside-22_292_2714" fill="white">
<path d="M-10.9011 281.55H92.6154V385.066H-10.9011V281.55Z"/>
</mask>
<path d="M92.6154 385.066V386.144H93.6937V385.066H92.6154ZM92.6154 281.55H91.5371V385.066H92.6154H93.6937V281.55H92.6154ZM92.6154 385.066V383.988H-10.9011V385.066V386.144H92.6154V385.066Z" fill="#E9EAEB" mask="url(#path-45-inside-22_292_2714)"/>
<mask id="path-47-inside-23_292_2714" fill="white">
<path d="M92.6155 281.55H196.132V385.066H92.6155V281.55Z"/>
</mask>
<path d="M196.132 385.066V386.144H197.21V385.066H196.132ZM196.132 281.55H195.054V385.066H196.132H197.21V281.55H196.132ZM196.132 385.066V383.988H92.6155V385.066V386.144H196.132V385.066Z" fill="#E9EAEB" mask="url(#path-47-inside-23_292_2714)"/>
<mask id="path-49-inside-24_292_2714" fill="white">
<path d="M196.132 281.55H299.648V385.066H196.132V281.55Z"/>
</mask>
<path d="M299.648 385.066V386.144H300.727V385.066H299.648ZM299.648 281.55H298.57V385.066H299.648H300.727V281.55H299.648ZM299.648 385.066V383.988H196.132V385.066V386.144H299.648V385.066Z" fill="#E9EAEB" mask="url(#path-49-inside-24_292_2714)"/>
<mask id="path-51-inside-25_292_2714" fill="white">
<path d="M299.648 281.55H403.165V385.066H299.648V281.55Z"/>
</mask>
<path d="M403.165 385.066V386.144H404.243V385.066H403.165ZM403.165 281.55H402.087V385.066H403.165H404.243V281.55H403.165ZM403.165 385.066V383.988H299.648V385.066V386.144H403.165V385.066Z" fill="#E9EAEB" mask="url(#path-51-inside-25_292_2714)"/>
<mask id="path-53-inside-26_292_2714" fill="white">
<path d="M403.165 281.55H506.682V385.066H403.165V281.55Z"/>
</mask>
<path d="M506.682 385.066V386.144H507.76V385.066H506.682ZM506.682 281.55H505.603V385.066H506.682H507.76V281.55H506.682ZM506.682 385.066V383.988H403.165V385.066V386.144H506.682V385.066Z" fill="#E9EAEB" mask="url(#path-53-inside-26_292_2714)"/>
<mask id="path-55-inside-27_292_2714" fill="white">
<path d="M506.681 281.55H610.198V385.066H506.681V281.55Z"/>
</mask>
<path d="M610.198 385.066V386.144H611.276V385.066H610.198ZM610.198 281.55H609.12V385.066H610.198H611.276V281.55H610.198ZM610.198 385.066V383.988H506.681V385.066V386.144H610.198V385.066Z" fill="#E9EAEB" mask="url(#path-55-inside-27_292_2714)"/>
<mask id="path-57-inside-28_292_2714" fill="white">
<path d="M610.198 281.55H713.714V385.066H610.198V281.55Z"/>
</mask>
<path d="M713.714 385.066V386.144H714.793V385.066H713.714ZM713.714 281.55H712.636V385.066H713.714H714.793V281.55H713.714ZM713.714 385.066V383.988H610.198V385.066V386.144H713.714V385.066Z" fill="#E9EAEB" mask="url(#path-57-inside-28_292_2714)"/>
<mask id="path-59-inside-29_292_2714" fill="white">
<path d="M-10.9011 385.066H92.6154V488.582H-10.9011V385.066Z"/>
</mask>
<path d="M92.6154 488.582V489.661H93.6937V488.582H92.6154ZM92.6154 385.066H91.5371V488.582H92.6154H93.6937V385.066H92.6154ZM92.6154 488.582V487.504H-10.9011V488.582V489.661H92.6154V488.582Z" fill="#E9EAEB" mask="url(#path-59-inside-29_292_2714)"/>
<mask id="path-61-inside-30_292_2714" fill="white">
<path d="M92.6155 385.066H196.132V488.582H92.6155V385.066Z"/>
</mask>
<path d="M196.132 488.582V489.661H197.21V488.582H196.132ZM196.132 385.066H195.054V488.582H196.132H197.21V385.066H196.132ZM196.132 488.582V487.504H92.6155V488.582V489.661H196.132V488.582Z" fill="#E9EAEB" mask="url(#path-61-inside-30_292_2714)"/>
<mask id="path-63-inside-31_292_2714" fill="white">
<path d="M196.132 385.066H299.648V488.582H196.132V385.066Z"/>
</mask>
<path d="M299.648 488.582V489.661H300.727V488.582H299.648ZM299.648 385.066H298.57V488.582H299.648H300.727V385.066H299.648ZM299.648 488.582V487.504H196.132V488.582V489.661H299.648V488.582Z" fill="#E9EAEB" mask="url(#path-63-inside-31_292_2714)"/>
<mask id="path-65-inside-32_292_2714" fill="white">
<path d="M299.648 385.066H403.165V488.582H299.648V385.066Z"/>
</mask>
<path d="M403.165 488.582V489.661H404.243V488.582H403.165ZM403.165 385.066H402.087V488.582H403.165H404.243V385.066H403.165ZM403.165 488.582V487.504H299.648V488.582V489.661H403.165V488.582Z" fill="#E9EAEB" mask="url(#path-65-inside-32_292_2714)"/>
<mask id="path-67-inside-33_292_2714" fill="white">
<path d="M403.165 385.066H506.682V488.582H403.165V385.066Z"/>
</mask>
<path d="M506.682 488.582V489.661H507.76V488.582H506.682ZM506.682 385.066H505.603V488.582H506.682H507.76V385.066H506.682ZM506.682 488.582V487.504H403.165V488.582V489.661H506.682V488.582Z" fill="#E9EAEB" mask="url(#path-67-inside-33_292_2714)"/>
<mask id="path-69-inside-34_292_2714" fill="white">
<path d="M506.681 385.066H610.198V488.582H506.681V385.066Z"/>
</mask>
<path d="M610.198 488.582V489.661H611.276V488.582H610.198ZM610.198 385.066H609.12V488.582H610.198H611.276V385.066H610.198ZM610.198 488.582V487.504H506.681V488.582V489.661H610.198V488.582Z" fill="#E9EAEB" mask="url(#path-69-inside-34_292_2714)"/>
<mask id="path-71-inside-35_292_2714" fill="white">
<path d="M610.198 385.066H713.714V488.582H610.198V385.066Z"/>
</mask>
<path d="M713.714 488.582V489.661H714.793V488.582H713.714ZM713.714 385.066H712.636V488.582H713.714H714.793V385.066H713.714ZM713.714 488.582V487.504H610.198V488.582V489.661H713.714V488.582Z" fill="#E9EAEB" mask="url(#path-71-inside-35_292_2714)"/>
<mask id="path-73-inside-36_292_2714" fill="white">
<path d="M-10.9011 488.583H92.6154V592.099H-10.9011V488.583Z"/>
</mask>
<path d="M92.6154 592.099V593.177H93.6937V592.099H92.6154ZM92.6154 488.583H91.5371V592.099H92.6154H93.6937V488.583H92.6154ZM92.6154 592.099V591.021H-10.9011V592.099V593.177H92.6154V592.099Z" fill="#E9EAEB" mask="url(#path-73-inside-36_292_2714)"/>
<mask id="path-75-inside-37_292_2714" fill="white">
<path d="M92.6155 488.583H196.132V592.099H92.6155V488.583Z"/>
</mask>
<path d="M196.132 592.099V593.177H197.21V592.099H196.132ZM196.132 488.583H195.054V592.099H196.132H197.21V488.583H196.132ZM196.132 592.099V591.021H92.6155V592.099V593.177H196.132V592.099Z" fill="#E9EAEB" mask="url(#path-75-inside-37_292_2714)"/>
<mask id="path-77-inside-38_292_2714" fill="white">
<path d="M196.132 488.583H299.648V592.099H196.132V488.583Z"/>
</mask>
<path d="M299.648 592.099V593.177H300.727V592.099H299.648ZM299.648 488.583H298.57V592.099H299.648H300.727V488.583H299.648ZM299.648 592.099V591.021H196.132V592.099V593.177H299.648V592.099Z" fill="#E9EAEB" mask="url(#path-77-inside-38_292_2714)"/>
<mask id="path-79-inside-39_292_2714" fill="white">
<path d="M299.648 488.583H403.165V592.099H299.648V488.583Z"/>
</mask>
<path d="M403.165 592.099V593.177H404.243V592.099H403.165ZM403.165 488.583H402.087V592.099H403.165H404.243V488.583H403.165ZM403.165 592.099V591.021H299.648V592.099V593.177H403.165V592.099Z" fill="#E9EAEB" mask="url(#path-79-inside-39_292_2714)"/>
<mask id="path-81-inside-40_292_2714" fill="white">
<path d="M403.165 488.583H506.682V592.099H403.165V488.583Z"/>
</mask>
<path d="M506.682 592.099V593.177H507.76V592.099H506.682ZM506.682 488.583H505.603V592.099H506.682H507.76V488.583H506.682ZM506.682 592.099V591.021H403.165V592.099V593.177H506.682V592.099Z" fill="#E9EAEB" mask="url(#path-81-inside-40_292_2714)"/>
<mask id="path-83-inside-41_292_2714" fill="white">
<path d="M506.681 488.583H610.198V592.099H506.681V488.583Z"/>
</mask>
<path d="M610.198 592.099V593.177H611.276V592.099H610.198ZM610.198 488.583H609.12V592.099H610.198H611.276V488.583H610.198ZM610.198 592.099V591.021H506.681V592.099V593.177H610.198V592.099Z" fill="#E9EAEB" mask="url(#path-83-inside-41_292_2714)"/>
<mask id="path-85-inside-42_292_2714" fill="white">
<path d="M610.198 488.583H713.714V592.099H610.198V488.583Z"/>
</mask>
<path d="M713.714 592.099V593.177H714.793V592.099H713.714ZM713.714 488.583H712.636V592.099H713.714H714.793V488.583H713.714ZM713.714 592.099V591.021H610.198V592.099V593.177H713.714V592.099Z" fill="#E9EAEB" mask="url(#path-85-inside-42_292_2714)"/>
<mask id="path-87-inside-43_292_2714" fill="white">
<path d="M-10.9011 592.099H92.6154V695.615H-10.9011V592.099Z"/>
</mask>
<path d="M92.6154 695.615V696.694H93.6937V695.615H92.6154ZM92.6154 592.099H91.5371V695.615H92.6154H93.6937V592.099H92.6154ZM92.6154 695.615V694.537H-10.9011V695.615V696.694H92.6154V695.615Z" fill="#E9EAEB" mask="url(#path-87-inside-43_292_2714)"/>
<mask id="path-89-inside-44_292_2714" fill="white">
<path d="M92.6155 592.099H196.132V695.615H92.6155V592.099Z"/>
</mask>
<path d="M196.132 695.615V696.694H197.21V695.615H196.132ZM196.132 592.099H195.054V695.615H196.132H197.21V592.099H196.132ZM196.132 695.615V694.537H92.6155V695.615V696.694H196.132V695.615Z" fill="#E9EAEB" mask="url(#path-89-inside-44_292_2714)"/>
<mask id="path-91-inside-45_292_2714" fill="white">
<path d="M196.132 592.099H299.648V695.615H196.132V592.099Z"/>
</mask>
<path d="M299.648 695.615V696.694H300.727V695.615H299.648ZM299.648 592.099H298.57V695.615H299.648H300.727V592.099H299.648ZM299.648 695.615V694.537H196.132V695.615V696.694H299.648V695.615Z" fill="#E9EAEB" mask="url(#path-91-inside-45_292_2714)"/>
<mask id="path-93-inside-46_292_2714" fill="white">
<path d="M299.648 592.099H403.165V695.615H299.648V592.099Z"/>
</mask>
<path d="M403.165 695.615V696.694H404.243V695.615H403.165ZM403.165 592.099H402.087V695.615H403.165H404.243V592.099H403.165ZM403.165 695.615V694.537H299.648V695.615V696.694H403.165V695.615Z" fill="#E9EAEB" mask="url(#path-93-inside-46_292_2714)"/>
<mask id="path-95-inside-47_292_2714" fill="white">
<path d="M403.165 592.099H506.682V695.615H403.165V592.099Z"/>
</mask>
<path d="M506.682 695.615V696.694H507.76V695.615H506.682ZM506.682 592.099H505.603V695.615H506.682H507.76V592.099H506.682ZM506.682 695.615V694.537H403.165V695.615V696.694H506.682V695.615Z" fill="#E9EAEB" mask="url(#path-95-inside-47_292_2714)"/>
<mask id="path-97-inside-48_292_2714" fill="white">
<path d="M506.681 592.099H610.198V695.615H506.681V592.099Z"/>
</mask>
<path d="M610.198 695.615V696.694H611.276V695.615H610.198ZM610.198 592.099H609.12V695.615H610.198H611.276V592.099H610.198ZM610.198 695.615V694.537H506.681V695.615V696.694H610.198V695.615Z" fill="#E9EAEB" mask="url(#path-97-inside-48_292_2714)"/>
<mask id="path-99-inside-49_292_2714" fill="white">
<path d="M610.198 592.099H713.714V695.615H610.198V592.099Z"/>
</mask>
<path d="M713.714 695.615V696.694H714.793V695.615H713.714ZM713.714 592.099H712.636V695.615H713.714H714.793V592.099H713.714ZM713.714 695.615V694.537H610.198V695.615V696.694H713.714V695.615Z" fill="#E9EAEB" mask="url(#path-99-inside-49_292_2714)"/>
</g>
<rect x="-631.461" y="-28.4609" width="2069.25" height="1551.67" stroke="#E9EAEB" stroke-width="1.0783"/>
</g>
<defs>
<clipPath id="clip0_292_2714">
<rect x="-632" y="-29" width="2070.33" height="1552.75" fill="white"/>
</clipPath>
</defs>
</svg>
