<svg width="39" height="38" viewBox="0 0 39 38" fill="none" xmlns="http://www.w3.org/2000/svg">
<path d="M23.5416 19C23.5416 21.1353 21.8103 22.8663 19.6746 22.8663C17.5389 22.8663 15.8076 21.1353 15.8076 19C15.8076 16.8647 17.5389 15.1337 19.6746 15.1337C21.8103 15.1337 23.5416 16.8647 23.5416 19Z" stroke="#29ABE2" stroke-width="2.375" stroke-linecap="round" stroke-linejoin="round"/>
<path d="M15.1809 7.42983C17.5726 4.73949 21.7766 4.73949 24.1683 7.42983V7.42983C25.0293 8.39834 26.1805 9.06283 27.4498 9.32404V9.32404C30.9751 10.0495 33.0779 13.6899 31.9435 17.1056V17.1056C31.535 18.3355 31.535 19.6645 31.9435 20.8944V20.8944C33.0779 24.3101 30.9751 27.9505 27.4498 28.676V28.676C26.1805 28.9372 25.0293 29.6017 24.1683 30.5702V30.5702C21.7766 33.2605 17.5726 33.2605 15.1809 30.5702V30.5702C14.3199 29.6017 13.1686 28.9372 11.8994 28.676V28.676C8.37409 27.9505 6.27132 24.3101 7.40572 20.8944V20.8944C7.81418 19.6645 7.81418 18.3355 7.40572 17.1056V17.1056C6.27132 13.6899 8.37409 10.0495 11.8993 9.32404V9.32404C13.1686 9.06283 14.3199 8.39834 15.1809 7.42983V7.42983Z" stroke="#29ABE2" stroke-width="2.375" stroke-linecap="round" stroke-linejoin="round"/>
</svg>
