<svg width="39" height="38" viewBox="0 0 39 38" fill="none" xmlns="http://www.w3.org/2000/svg">
<path d="M24.0835 26.9167H14.5835M24.0835 26.9167V29.65C24.0835 31.1499 24.0835 31.8998 23.7015 32.4256C23.5782 32.5954 23.4289 32.7447 23.2591 32.868C22.7333 33.25 21.9834 33.25 20.4835 33.25H18.1835C16.6836 33.25 15.9337 33.25 15.4079 32.868C15.2381 32.7447 15.0888 32.5954 14.9655 32.4256C14.5835 31.8998 14.5835 31.1499 14.5835 29.65V26.9167M24.0835 26.9167V25.3218C24.0835 25.1882 24.0835 25.1214 24.0878 25.0563C24.1093 24.7263 24.2124 24.4069 24.3876 24.1265C24.4223 24.0712 24.4613 24.017 24.5393 23.9086L27.2317 20.1692C31.8669 13.7313 27.2664 4.75 19.3335 4.75V4.75C11.4006 4.75 6.80005 13.7313 11.4353 20.1692L14.1277 23.9086C14.2057 24.017 14.2447 24.0712 14.2794 24.1265C14.4546 24.4069 14.5577 24.7263 14.5792 25.0563C14.5835 25.1214 14.5835 25.1882 14.5835 25.3218V26.9167M16.9585 18.2083L19.3335 22.1667L21.7085 18.2083M5.0835 4.75L7.02668 7.125M33.5835 4.75L31.6403 7.125M33.5835 23.75L31.6403 21.375M5.0835 23.75L7.02668 21.375M5.0835 14.25H5.87516M33.5835 14.25H32.7918" stroke="#29ABE2" stroke-width="2" stroke-linecap="round" stroke-linejoin="round"/>
</svg>
