<svg width="39" height="38" viewBox="0 0 39 38" fill="none" xmlns="http://www.w3.org/2000/svg">
<path d="M14.5835 26.9167C14.5835 28.6657 13.1657 30.0834 11.4168 30.0834C9.66793 30.0834 8.25016 28.6657 8.25016 26.9167M14.5835 26.9167C14.5835 25.1678 13.1657 23.7501 11.4168 23.7501C9.66793 23.7501 8.25016 25.1678 8.25016 26.9167M14.5835 26.9167H24.0835M8.25016 26.9167V26.9167C6.50126 26.9167 5.0835 25.499 5.0835 23.7501V13.6167C5.0835 11.2419 5.0835 10.0545 5.68828 9.22209C5.88359 8.95326 6.12001 8.71685 6.38884 8.52153C7.22125 7.91675 8.40867 7.91675 10.7835 7.91675H14.4252C16.8 7.91675 17.9874 7.91675 18.8198 8.52153C19.0886 8.71685 19.3251 8.95326 19.5204 9.22209C20.1252 10.0545 20.1252 11.2419 20.1252 13.6167V15.8334V15.8334C20.1252 14.3579 20.1252 13.6202 20.3662 13.0383C20.6876 12.2623 21.3041 11.6459 22.08 11.3245C22.6619 11.0834 23.3997 11.0834 24.8752 11.0834H26.1024C27.6214 11.0834 28.3809 11.0834 29.0251 11.3889C29.2365 11.4892 29.4361 11.6125 29.6203 11.7568C30.1816 12.1963 30.5213 12.8756 31.2006 14.2343L32.9817 17.7966C33.2478 18.3288 33.3809 18.5949 33.4618 18.878C33.4886 18.9722 33.5111 19.0675 33.5292 19.1637C33.5835 19.4531 33.5835 19.7507 33.5835 20.3457V23.7501C33.5835 25.499 32.1657 26.9167 30.4168 26.9167V26.9167M30.4168 26.9167C30.4168 28.6657 28.9991 30.0834 27.2502 30.0834C25.5013 30.0834 24.0835 28.6657 24.0835 26.9167M30.4168 26.9167C30.4168 25.1678 28.9991 23.7501 27.2502 23.7501C25.5013 23.7501 24.0835 25.1678 24.0835 26.9167M24.0835 15.0417H27.2502L29.2293 19.0001H24.0835V15.0417Z" stroke="#29ABE2" stroke-width="2.375" stroke-linecap="round" stroke-linejoin="round"/>
</svg>
